<svg width="22" height="22" viewBox="0 0 22 22" fill="none" xmlns="http://www.w3.org/2000/svg">
<path fill-rule="evenodd" clip-rule="evenodd" d="M11.0002 3.17145C11.0001 2.14551 12.2406 1.63172 12.9661 2.35719L20.491 9.88258C21.1085 10.5001 21.1085 11.5013 20.491 12.1188L12.9662 19.6436C12.2407 20.369 11.0004 19.8552 11.0004 18.8293V15.3991C9.28306 15.3991 8.01393 15.5034 6.76124 15.9947C5.50746 16.4863 4.21927 17.3862 2.51793 19.0677C2.02783 19.5522 1.14544 19.2611 1.11475 18.5217C0.947699 14.4979 2.01523 11.5044 3.86579 9.51315C5.71512 7.52327 8.28676 6.59915 10.9996 6.59915L11.0002 3.17145ZM12.1002 3.17144V7.14914C12.1002 7.29501 12.0423 7.43491 11.9391 7.53806C11.836 7.64121 11.6961 7.69915 11.5502 7.69915H10.9996C8.53547 7.69915 6.27689 8.53464 4.67154 10.262C3.15737 11.8912 2.17113 14.3716 2.19815 17.8461C3.74542 16.3786 5.03683 15.4892 6.35967 14.9706C7.81073 14.4015 9.24935 14.2991 10.9996 14.2991H11.5504C11.8541 14.2991 12.1004 14.5454 12.1004 14.8491V18.8293C12.1004 18.8762 12.1551 18.899 12.1884 18.8658L19.7131 11.341C19.9011 11.153 19.9011 10.8483 19.7132 10.6604L12.1882 3.13499C12.155 3.10177 12.1002 3.12446 12.1002 3.17144Z" fill="#222222"/>
</svg>
