<svg width="14" height="15" viewBox="0 0 14 15" fill="none" xmlns="http://www.w3.org/2000/svg">
<g clip-path="url(#clip0_837_18683)">
<path fill-rule="evenodd" clip-rule="evenodd" d="M4.08301 1.22852C2.87488 1.22852 1.89551 2.20789 1.89551 3.41602V10.416C1.89551 11.6242 2.87488 12.6035 4.08301 12.6035H8.74967C9.95782 12.6035 10.9372 11.6242 10.9372 10.416V3.41602C10.9372 2.20789 9.95782 1.22852 8.74967 1.22852H4.08301ZM2.77051 3.41602C2.77051 2.69114 3.35813 2.10352 4.08301 2.10352H8.74967C9.47452 2.10352 10.0622 2.69114 10.0622 3.41602V10.416C10.0622 11.1409 9.47452 11.7285 8.74967 11.7285H4.08301C3.35813 11.7285 2.77051 11.1409 2.77051 10.416V3.41602Z" fill="#58638B"/>
<path d="M12.6875 5.75C12.6875 5.50838 12.4916 5.3125 12.25 5.3125C12.0084 5.3125 11.8125 5.50838 11.8125 5.75V10.7083C11.8125 12.2386 10.572 13.4792 9.04167 13.4792H5.25C5.00838 13.4792 4.8125 13.675 4.8125 13.9167C4.8125 14.1583 5.00838 14.3542 5.25 14.3542H9.04167C11.0552 14.3542 12.6875 12.7219 12.6875 10.7083V5.75Z" fill="#58638B"/>
</g>
<defs>
<clipPath id="clip0_837_18683">
<rect width="14" height="14" fill="white" transform="translate(0 0.5)"/>
</clipPath>
</defs>
</svg>
