<svg width="11" height="12" viewBox="0 0 11 12" fill="none" xmlns="http://www.w3.org/2000/svg">
<g clip-path="url(#clip0_837_18690)">
<path fill-rule="evenodd" clip-rule="evenodd" d="M5.5957 10.375C8.01193 10.375 9.9707 8.41622 9.9707 6C9.9707 3.58375 8.01193 1.625 5.5957 1.625C3.17946 1.625 1.2207 3.58375 1.2207 6C1.2207 8.41622 3.17946 10.375 5.5957 10.375ZM5.5957 11.25C8.49522 11.25 10.8457 8.89952 10.8457 6C10.8457 3.10051 8.49522 0.75 5.5957 0.75C2.69621 0.75 0.345703 3.10051 0.345703 6C0.345703 8.89952 2.69621 11.25 5.5957 11.25ZM6.0332 7.75V8.625H5.1582V7.75H6.0332ZM4.7207 5.08522C4.7207 4.63653 5.09969 4.25 5.5957 4.25C6.09171 4.25 6.4707 4.63653 6.4707 5.08522C6.4707 5.26442 6.36284 5.47681 6.12514 5.71761C5.89472 5.95106 5.60177 6.15126 5.35817 6.3087L5.1582 6.43802V7.3125H6.0332V6.91134C6.25557 6.76008 6.519 6.56414 6.7479 6.33227C7.04342 6.0329 7.3457 5.60893 7.3457 5.08522C7.3457 4.1281 6.54939 3.375 5.5957 3.375C4.64201 3.375 3.8457 4.1281 3.8457 5.08522H4.7207Z" fill="#666666"/>
</g>
<defs>
<clipPath id="clip0_837_18690">
<rect width="11" height="12" fill="white"/>
</clipPath>
</defs>
</svg>
