<svg xmlns="http://www.w3.org/2000/svg" width="24" height="24" viewBox="0 0 24 24" fill="none">
  <path d="M13.5512 20.4688C15.2518 20.2242 16.8398 19.4363 18.069 18.2071C19.5693 16.7068 20.4122 14.672 20.4122 12.5503C20.4122 10.4285 19.5693 8.39369 18.069 6.8934C16.8398 5.66418 15.2518 4.87633 13.5512 4.63172C12.3048 4.45245 11.4122 5.49134 11.4122 6.55025V18.5503C11.4122 19.6092 12.3048 20.6481 13.5512 20.4688Z" fill="#272932"/>
  <path fill-rule="evenodd" clip-rule="evenodd" d="M3 12.5C3 7.25329 7.25329 3 12.5 3C17.7467 3 22 7.25329 22 12.5C22 17.7467 17.7467 22 12.5 22C7.25329 22 3 17.7467 3 12.5ZM12.5 21C7.80558 21 4 17.1944 4 12.5C4 7.80558 7.80558 4 12.5 4C17.1944 4 21 7.80558 21 12.5C21 17.1944 17.1944 21 12.5 21Z" fill="#272932"/>
</svg>
