<svg xmlns="http://www.w3.org/2000/svg" width="24" height="24" viewBox="0 0 24 24" fill="none">
  <path fill-rule="evenodd" clip-rule="evenodd" d="M19 7C20.1046 7 21 6.10457 21 5C21 3.89543 20.1046 3 19 3C17.8954 3 17 3.89543 17 5C17 6.10457 17.8954 7 19 7ZM19 8C20.6569 8 22 6.65685 22 5C22 3.34315 20.6569 2 19 2C17.3431 2 16 3.34315 16 5C16 5.64792 16.2054 6.24786 16.5546 6.73827L13.7383 9.55463C13.2479 9.2054 12.6479 9 12 9C11.3521 9 10.7521 9.2054 10.2617 9.55463L6.72309 6.01598C6.89903 5.71823 7 5.3709 7 5C7 3.89543 6.10457 3 5 3C3.89543 3 3 3.89543 3 5C3 6.10457 3.89543 7 5 7C5.3709 7 5.71823 6.89903 6.01598 6.72309L9.55463 10.2617C9.2054 10.7521 9 11.3521 9 12C9 12.6479 9.2054 13.2479 9.55463 13.7383L6.73827 16.5546C6.24786 16.2054 5.64792 16 5 16C3.34315 16 2 17.3431 2 19C2 20.6569 3.34315 22 5 22C6.65685 22 8 20.6569 8 19C8 18.3521 7.7946 17.7521 7.44537 17.2617L10.2617 14.4454C10.7521 14.7946 11.3521 15 12 15C12.6479 15 13.2479 14.7946 13.7383 14.4454L15.2769 15.984C15.101 16.2818 15 16.6291 15 17C15 18.1046 15.8954 19 17 19C18.1046 19 19 18.1046 19 17C19 15.8954 18.1046 15 17 15C16.6291 15 16.2818 15.101 15.984 15.2769L14.4454 13.7383C14.7028 13.3768 14.882 12.9558 14.9585 12.5H18.063C18.285 13.3626 19.0681 14 20 14C21.1046 14 22 13.1046 22 12C22 10.8954 21.1046 10 20 10C19.0681 10 18.285 10.6374 18.063 11.5H14.9585C14.882 11.0442 14.7028 10.6232 14.4454 10.2617L17.2617 7.44537C17.7521 7.7946 18.3521 8 19 8ZM12 14C13.1046 14 14 13.1046 14 12C14 10.8954 13.1046 10 12 10C10.8954 10 10 10.8954 10 12C10 13.1046 10.8954 14 12 14ZM17 18C17.5523 18 18 17.5523 18 17C18 16.4477 17.5523 16 17 16C16.4477 16 16 16.4477 16 17C16 17.5523 16.4477 18 17 18ZM21 12C21 12.5523 20.5523 13 20 13C19.4477 13 19 12.5523 19 12C19 11.4477 19.4477 11 20 11C20.5523 11 21 11.4477 21 12ZM5 6C5.55228 6 6 5.55228 6 5C6 4.44772 5.55228 4 5 4C4.44772 4 4 4.44772 4 5C4 5.55228 4.44772 6 5 6ZM7 19C7 20.1046 6.10457 21 5 21C3.89543 21 3 20.1046 3 19C3 17.8954 3.89543 17 5 17C6.10457 17 7 17.8954 7 19Z" fill="#272932"/>
</svg>
