<svg xmlns="http://www.w3.org/2000/svg" width="24" height="24" viewBox="0 0 24 24" fill="none">
  <path fill-rule="evenodd" clip-rule="evenodd" d="M13.191 14.9697L19.7509 8.7024C21.1163 7.39795 21.1163 5.28281 19.7509 3.97834C18.3856 2.67391 16.1728 2.67391 14.8065 3.9782L8.21329 10.2773L8.20152 10.2889L4.46184 13.8618C2.51272 15.7239 2.51272 18.7419 4.46184 20.6041C6.40997 22.4653 9.56886 22.4653 11.517 20.6041L20.8539 11.6837C21.0487 11.4975 21.0487 11.1958 20.8539 11.0096C20.659 10.8234 20.3431 10.8234 20.1483 11.0096L10.8114 19.93C9.25293 21.4189 6.7259 21.4189 5.16745 19.93C3.60803 18.4401 3.60803 16.0258 5.16745 14.5359L15.0455 5.09847L15.0573 5.08683L15.5119 4.65248C16.4884 3.72031 18.0696 3.72031 19.0453 4.65248C20.021 5.58463 20.021 7.09611 19.0453 8.02827L14.1174 12.7363C14.1138 12.7395 14.1103 12.7428 14.1068 12.7462L12.4831 14.2978L12.4523 14.3272L12.4508 14.3286L8.68733 17.9248C8.29571 18.2984 7.66016 18.2984 7.26819 17.9245C6.87747 17.5506 6.87747 16.9434 7.26879 16.5689L12.2199 11.8396C12.4148 11.6535 12.4149 11.3516 12.22 11.1655C12.0252 10.9793 11.7093 10.9792 11.5144 11.1654L6.56294 15.8951C5.7824 16.6421 5.7824 17.852 6.56259 18.5987C7.34473 19.3446 8.61115 19.3446 9.39269 18.5992L13.1579 15.0013L13.191 14.9697Z" fill="black"/>
</svg>
