<svg xmlns="http://www.w3.org/2000/svg" width="24" height="24" viewBox="0 0 24 24" fill="none">
  <path d="M19.6772 9.08189L14.918 4.32203C14.8161 4.21994 14.695 4.13895 14.5617 4.0837C14.4285 4.02844 14.2856 4 14.1413 4C13.997 4 13.8542 4.02844 13.7209 4.0837C13.5876 4.13895 13.4666 4.21994 13.3646 4.32203L9.09238 8.60975C8.34585 8.35485 6.42618 7.95565 4.41005 9.58305C4.28981 9.67971 4.19129 9.80063 4.12091 9.93793C4.05053 10.0752 4.00987 10.2258 4.00159 10.3799C3.9933 10.534 4.01757 10.688 4.07282 10.8321C4.12806 10.9761 4.21305 11.1069 4.32222 11.2159L8.22038 15.1147L4.76607 18.5655C4.71984 18.6086 4.68277 18.6606 4.65705 18.7183C4.63133 18.776 4.61751 18.8383 4.61639 18.9015C4.61528 18.9647 4.6269 19.0275 4.65056 19.0861C4.67423 19.1446 4.70945 19.1979 4.75413 19.2426C4.7988 19.2872 4.85202 19.3225 4.91061 19.3461C4.9692 19.3698 5.03195 19.3814 5.09513 19.3803C5.1583 19.3792 5.2206 19.3654 5.27832 19.3396C5.33603 19.3139 5.38798 19.2768 5.43105 19.2306L8.88536 15.7758L12.7835 19.6777C12.8854 19.7798 13.0064 19.8608 13.1396 19.9161C13.2728 19.9714 13.4156 19.9999 13.5599 20H13.6383C13.7948 19.9889 13.9471 19.9444 14.0849 19.8694C14.2228 19.7945 14.3429 19.6908 14.4373 19.5655C15.9837 17.5099 15.7822 15.8613 15.4144 14.9147L19.678 10.6364C19.7802 10.5343 19.8612 10.4131 19.9164 10.2797C19.9717 10.1463 20.0001 10.0033 20 9.85896C19.9999 9.71457 19.9714 9.57162 19.916 9.43827C19.8606 9.30493 19.7795 9.18383 19.6772 9.08189ZM19.0115 9.96892L14.5205 14.4755C14.4509 14.5454 14.4051 14.6354 14.3895 14.7328C14.3739 14.8302 14.3892 14.93 14.4334 15.0182C15.2129 16.5774 14.2993 18.1804 13.6853 18.9961C13.6717 19.0138 13.6546 19.0284 13.6349 19.039C13.6152 19.0495 13.5935 19.0558 13.5712 19.0572C13.549 19.0587 13.5266 19.0554 13.5058 19.0476C13.4849 19.0398 13.4659 19.0276 13.4501 19.0118L4.98721 10.5501C4.97136 10.5344 4.95904 10.5155 4.95108 10.4946C4.94312 10.4738 4.93969 10.4515 4.94102 10.4292C4.94236 10.407 4.94843 10.3852 4.95883 10.3655C4.96922 10.3458 4.98371 10.3285 5.00132 10.3148C5.98155 9.52345 6.92256 9.31404 7.64401 9.31404C8.1087 9.30704 8.56964 9.39817 8.99671 9.58148C9.08536 9.62538 9.18558 9.64021 9.28314 9.62388C9.3807 9.60754 9.47063 9.56088 9.54015 9.49051L14.0304 4.98789C14.0449 4.97331 14.0622 4.96174 14.0813 4.95385C14.1003 4.94595 14.1207 4.94189 14.1413 4.94189C14.1619 4.94189 14.1823 4.94595 14.2014 4.95385C14.2204 4.96174 14.2377 4.97331 14.2523 4.98789L19.0115 9.74697C19.026 9.76154 19.0376 9.77884 19.0455 9.79788C19.0534 9.81692 19.0575 9.83733 19.0575 9.85795C19.0575 9.87856 19.0534 9.89897 19.0455 9.91801C19.0376 9.93706 19.026 9.95436 19.0115 9.96892Z" fill="#272932"/>
</svg>
