<svg xmlns="http://www.w3.org/2000/svg" width="24" height="24" viewBox="0 0 24 24" fill="none">
  <path d="M20.4385 6.06201H11.4385C11.3059 6.06201 11.1787 6.00933 11.0849 5.91557C10.9912 5.8218 10.9385 5.69462 10.9385 5.56201C10.9385 5.4294 10.9912 5.30223 11.0849 5.20846C11.1787 5.11469 11.3059 5.06201 11.4385 5.06201H20.4385C20.5711 5.06201 20.6983 5.11469 20.7921 5.20846C20.8858 5.30223 20.9385 5.4294 20.9385 5.56201C20.9385 5.69462 20.8858 5.8218 20.7921 5.91557C20.6983 6.00933 20.5711 6.06201 20.4385 6.06201ZM20.4385 12.5H11.4385C11.3059 12.5 11.1787 12.4473 11.0849 12.3536C10.9912 12.2598 10.9385 12.1326 10.9385 12C10.9385 11.8674 10.9912 11.7402 11.0849 11.6465C11.1787 11.5527 11.3059 11.5 11.4385 11.5H20.4385C20.5711 11.5 20.6983 11.5527 20.7921 11.6465C20.8858 11.7402 20.9385 11.8674 20.9385 12C20.9385 12.1326 20.8858 12.2598 20.7921 12.3536C20.6983 12.4473 20.5711 12.5 20.4385 12.5ZM20.4385 18.935H11.4385C11.3059 18.935 11.1787 18.8823 11.0849 18.7886C10.9912 18.6948 10.9385 18.5676 10.9385 18.435C10.9385 18.3024 10.9912 18.1752 11.0849 18.0815C11.1787 17.9877 11.3059 17.935 11.4385 17.935H20.4385C20.5711 17.935 20.6983 17.9877 20.7921 18.0815C20.8858 18.1752 20.9385 18.3024 20.9385 18.435C20.9385 18.5676 20.8858 18.6948 20.7921 18.7886C20.6983 18.8823 20.5711 18.935 20.4385 18.935ZM5.5625 8.06201C5.06805 8.06201 4.5847 7.91539 4.17358 7.64069C3.76245 7.36598 3.44202 6.97554 3.2528 6.51872C3.06358 6.06191 3.01407 5.55924 3.11054 5.07429C3.207 4.58933 3.4451 4.14388 3.79473 3.79425C4.14437 3.44461 4.58982 3.20651 5.07478 3.11005C5.55973 3.01359 6.06239 3.06309 6.51921 3.25231C6.97603 3.44153 7.36647 3.76196 7.64118 4.17309C7.91588 4.58421 8.0625 5.06756 8.0625 5.56201C8.0625 5.89032 7.99784 6.21541 7.8722 6.51872C7.74656 6.82204 7.56241 7.09763 7.33027 7.32978C7.09812 7.56193 6.82252 7.74608 6.51921 7.87171C6.2159 7.99735 5.89081 8.06201 5.5625 8.06201ZM5.5625 4.06201C5.26583 4.06201 4.97582 4.14999 4.72915 4.31481C4.48247 4.47963 4.29021 4.7139 4.17668 4.98799C4.06315 5.26208 4.03345 5.56368 4.09132 5.85465C4.1492 6.14562 4.29206 6.41289 4.50184 6.62267C4.71162 6.83245 4.97889 6.97531 5.26987 7.03319C5.56084 7.09107 5.86244 7.06136 6.13653 6.94783C6.41062 6.8343 6.64488 6.64204 6.80971 6.39537C6.97453 6.14869 7.0625 5.85868 7.0625 5.56201C7.0625 5.16419 6.90447 4.78266 6.62316 4.50135C6.34186 4.22005 5.96033 4.06201 5.5625 4.06201ZM5.5625 14.5C5.06805 14.5 4.5847 14.3534 4.17358 14.0787C3.76245 13.804 3.44202 13.4135 3.2528 12.9567C3.06358 12.4999 3.01407 11.9972 3.11054 11.5123C3.207 11.0273 3.4451 10.5819 3.79473 10.2322C4.14437 9.88261 4.58982 9.64451 5.07478 9.54805C5.55973 9.45159 6.06239 9.50109 6.51921 9.69031C6.97603 9.87953 7.36647 10.2 7.64118 10.6111C7.91588 11.0222 8.0625 11.5056 8.0625 12C8.0625 12.6631 7.79911 13.2989 7.33027 13.7678C6.86143 14.2366 6.22554 14.5 5.5625 14.5ZM5.5625 10.5C5.26583 10.5 4.97582 10.588 4.72915 10.7528C4.48247 10.9176 4.29021 11.1519 4.17668 11.426C4.06315 11.7001 4.03345 12.0017 4.09132 12.2926C4.1492 12.5836 4.29206 12.8509 4.50184 13.0607C4.71162 13.2705 4.97889 13.4133 5.26987 13.4712C5.56084 13.5291 5.86244 13.4994 6.13653 13.3858C6.41062 13.2723 6.64488 13.08 6.80971 12.8334C6.97453 12.5867 7.0625 12.2967 7.0625 12C7.0625 11.6022 6.90447 11.2207 6.62316 10.9394C6.34186 10.658 5.96033 10.5 5.5625 10.5ZM5.5625 20.938C5.06805 20.938 4.5847 20.7914 4.17358 20.5167C3.76245 20.242 3.44202 19.8515 3.2528 19.3947C3.06358 18.9379 3.01407 18.4352 3.11054 17.9503C3.207 17.4653 3.4451 17.0199 3.79473 16.6702C4.14437 16.3206 4.58982 16.0825 5.07478 15.986C5.55973 15.8896 6.06239 15.9391 6.51921 16.1283C6.97603 16.3175 7.36647 16.638 7.64118 17.0491C7.91588 17.4602 8.0625 17.9436 8.0625 18.438C8.0625 19.1011 7.79911 19.7369 7.33027 20.2058C6.86143 20.6746 6.22554 20.938 5.5625 20.938ZM5.5625 16.938C5.26583 16.938 4.97582 17.026 4.72915 17.1908C4.48247 17.3556 4.29021 17.5899 4.17668 17.864C4.06315 18.1381 4.03345 18.4397 4.09132 18.7306C4.1492 19.0216 4.29206 19.2889 4.50184 19.4987C4.71162 19.7085 4.97889 19.8513 5.26987 19.9092C5.56084 19.9671 5.86244 19.9374 6.13653 19.8238C6.41062 19.7103 6.64488 19.518 6.80971 19.2714C6.97453 19.0247 7.0625 18.7347 7.0625 18.438C7.0625 18.0402 6.90447 17.6587 6.62316 17.3774C6.34186 17.096 5.96033 16.938 5.5625 16.938Z" fill="#272932"/>
</svg>
