<svg xmlns="http://www.w3.org/2000/svg" width="24" height="24" viewBox="0 0 24 24" fill="none">
  <path fill-rule="evenodd" clip-rule="evenodd" d="M15.7333 9.85294C15.4572 9.85294 15.2333 9.62908 15.2333 9.35294V7.23529C15.2333 6.95915 15.4572 6.73529 15.7333 6.73529C16.0095 6.73529 16.2333 6.95915 16.2333 7.23529V9.35294C16.2333 9.62908 16.0095 9.85294 15.7333 9.85294ZM6.13375 17.2647C6.13809 18.9325 6.18783 19.8136 6.75817 20.3798C7.38301 21 8.38867 21 10.4 21H15.7333C17.7447 21 18.7503 21 19.3752 20.3798C20 19.7595 20 18.7612 20 16.7647V7.23529C20 5.23876 20 4.24049 19.3752 3.62024C18.7503 3 17.7447 3 15.7333 3H10.4C8.38867 3 7.38301 3 6.75817 3.62024C6.13333 4.24049 6.13333 5.23876 6.13333 7.23529V16.7647C6.13333 16.9388 6.13333 17.1054 6.13375 17.2647ZM7.13385 17.2647C7.136 18.0168 7.14702 18.5453 7.20239 18.9541C7.26529 19.4185 7.36832 19.5764 7.46267 19.67C7.55803 19.7647 7.72005 19.8683 8.19144 19.9313C8.69084 19.9979 9.36627 20 10.4 20H15.7333C16.7671 20 17.4425 19.9979 17.9419 19.9313C18.4133 19.8683 18.5753 19.7647 18.6707 19.67C18.765 19.5764 18.868 19.4185 18.9309 18.9541C18.9978 18.4602 19 17.7914 19 16.7647V7.23529C19 6.20855 18.9978 5.53983 18.9309 5.04588C18.868 4.58145 18.765 4.42361 18.6707 4.32996C18.5753 4.23529 18.4133 4.13165 17.9419 4.06874C17.4425 4.00209 16.7671 4 15.7333 4H10.4C9.36627 4 8.69084 4.00209 8.19144 4.06874C7.72005 4.13165 7.55803 4.23529 7.46267 4.32996C7.36832 4.42361 7.26529 4.58145 7.20239 5.04588C7.13549 5.53983 7.13333 6.20855 7.13333 7.23529V7.79412H8.26667C8.54281 7.79412 8.76667 8.01798 8.76667 8.29412C8.76667 8.57026 8.54281 8.79412 8.26667 8.79412H7.13333V12.0294H8.26667C8.54281 12.0294 8.76667 12.2533 8.76667 12.5294C8.76667 12.8056 8.54281 13.0294 8.26667 13.0294H7.13333V16.2647H8.26667C8.54281 16.2647 8.76667 16.4886 8.76667 16.7647C8.76667 17.0408 8.54281 17.2647 8.26667 17.2647H7.13385Z" fill="#272932"/>
</svg>
