<svg xmlns="http://www.w3.org/2000/svg" width="24" height="24" viewBox="0 0 24 24" fill="none">
  <path fill-rule="evenodd" clip-rule="evenodd" d="M16.7647 4.5C14.7034 4.5 13.0294 6.1773 13.0294 8.25C13.0294 10.3227 14.7034 12 16.7647 12C18.826 12 20.5 10.3227 20.5 8.25C20.5 6.1773 18.826 4.5 16.7647 4.5ZM12.0294 8.25C12.0294 5.62828 14.1478 3.5 16.7647 3.5C19.3816 3.5 21.5 5.62828 21.5 8.25C21.5 10.8717 19.3816 13 16.7647 13C14.1478 13 12.0294 10.8717 12.0294 8.25ZM5.64706 7.6875C4.4629 7.6875 3.5 8.65125 3.5 9.84375C3.5 11.0362 4.4629 12 5.64706 12C6.83121 12 7.79412 11.0362 7.79412 9.84375C7.79412 8.65125 6.83121 7.6875 5.64706 7.6875ZM2.5 9.84375C2.5 8.10224 3.90735 6.6875 5.64706 6.6875C7.38676 6.6875 8.79412 8.10224 8.79412 9.84375C8.79412 11.5853 7.38676 13 5.64706 13C3.90735 13 2.5 11.5853 2.5 9.84375ZM11.4706 15.125C9.99405 15.125 8.79412 16.3266 8.79412 17.8125C8.79412 19.2984 9.99405 20.5 11.4706 20.5C12.9471 20.5 14.1471 19.2984 14.1471 17.8125C14.1471 16.3266 12.9471 15.125 11.4706 15.125ZM7.79412 17.8125C7.79412 15.7776 9.4385 14.125 11.4706 14.125C13.5027 14.125 15.1471 15.7776 15.1471 17.8125C15.1471 19.8474 13.5027 21.5 11.4706 21.5C9.4385 21.5 7.79412 19.8474 7.79412 17.8125Z" fill="#272932"/>
</svg>
