<svg xmlns="http://www.w3.org/2000/svg" width="24" height="24" viewBox="0 0 24 24" fill="none">
  <path fill-rule="evenodd" clip-rule="evenodd" d="M5.69729 15.8445C5.91114 15.8445 6.10101 15.7077 6.16869 15.5049L6.89103 13.3397H10.2525L10.9748 15.5049C11.0425 15.7077 11.2324 15.8445 11.4462 15.8445C11.7876 15.8445 12.0273 15.5082 11.916 15.1855L9.26074 7.49109C9.15932 7.19721 8.88265 7 8.57176 7C8.26086 7 7.98419 7.19721 7.88277 7.49109L5.22754 15.1855C5.11617 15.5082 5.35589 15.8445 5.69729 15.8445ZM8.60423 8.39923L9.93552 12.3896H7.208L8.53929 8.39923H8.60423Z" fill="#272932"/>
  <path fill-rule="evenodd" clip-rule="evenodd" d="M14.0672 15.7625C14.3892 15.9208 14.7477 16 15.1428 16C15.5054 16 15.8125 15.9424 16.0641 15.8273C16.3157 15.7121 16.5173 15.5725 16.6689 15.4083C16.8204 15.2442 16.9286 15.0902 16.9936 14.9463H17.0423V15.3656C17.0423 15.6301 17.2567 15.8445 17.5212 15.8445C17.7857 15.8445 18.0001 15.6301 18.0001 15.3656V11.4741C18.0001 10.9472 17.9189 10.5269 17.7566 10.2131C17.5942 9.89923 17.3899 9.66459 17.1437 9.50912C16.9002 9.35365 16.6472 9.25144 16.3847 9.2025C16.125 9.15067 15.895 9.12476 15.6948 9.12476C15.3809 9.12476 15.0616 9.17083 14.7369 9.26296C14.4149 9.35221 14.1173 9.51056 13.844 9.738C13.6838 9.87098 13.5425 10.0353 13.4203 10.2308C13.2739 10.4649 13.4066 10.76 13.6646 10.8581C13.9105 10.9515 14.1846 10.8304 14.3553 10.6302C14.4393 10.5316 14.5381 10.4357 14.6517 10.3426C14.9114 10.1296 15.27 10.023 15.7272 10.023C16.1683 10.023 16.497 10.1411 16.7135 10.3772C16.9327 10.6132 17.0423 10.9443 17.0423 11.3704V11.405C17.0423 11.5691 16.9868 11.6843 16.8758 11.7505C16.7676 11.8167 16.5944 11.8642 16.3563 11.893C16.1209 11.9189 15.8138 11.9578 15.435 12.0096C15.1455 12.0499 14.8573 12.1046 14.5705 12.1737C14.2864 12.2399 14.0266 12.3407 13.7912 12.476C13.5558 12.6113 13.3678 12.7985 13.2271 13.0374C13.0864 13.2735 13.016 13.5816 13.016 13.9616C13.016 14.3935 13.1107 14.762 13.3001 15.0672C13.4895 15.3695 13.7452 15.6012 14.0672 15.7625ZM16.2467 14.8469C15.987 15.0053 15.6677 15.0845 15.2889 15.0845C14.9074 15.0845 14.5922 14.9952 14.3432 14.8167C14.097 14.6353 13.9739 14.3676 13.9739 14.0134C13.9739 13.7543 14.0388 13.5499 14.1687 13.4002C14.3013 13.2476 14.4745 13.1339 14.6882 13.059C14.9047 12.9813 15.1374 12.9251 15.3863 12.8906C15.4891 12.8762 15.6231 12.8589 15.7881 12.8388C15.9559 12.8157 16.1277 12.7898 16.3036 12.761C16.4822 12.7294 16.6391 12.6934 16.7744 12.6531C16.9124 12.6099 17.0017 12.5624 17.0423 12.5106V13.4434C17.0423 13.7198 16.9746 13.9832 16.8393 14.2337C16.7067 14.4842 16.5092 14.6886 16.2467 14.8469Z" fill="#272932"/>
  <path fill-rule="evenodd" clip-rule="evenodd" d="M7 2.5C4.51472 2.5 2.5 4.51472 2.5 7V17C2.5 19.4853 4.51472 21.5 7 21.5H17C19.4853 21.5 21.5 19.4853 21.5 17V7C21.5 4.51472 19.4853 2.5 17 2.5H7ZM3.5 7C3.5 5.067 5.067 3.5 7 3.5H17C18.933 3.5 20.5 5.067 20.5 7V17C20.5 18.933 18.933 20.5 17 20.5H7C5.067 20.5 3.5 18.933 3.5 17V7Z" fill="#272932"/>
</svg>
