<svg width="25" height="24" viewBox="0 0 25 24" fill="none" xmlns="http://www.w3.org/2000/svg">
<path d="M19.8327 4.27993L19.8335 4.28143C20.1271 4.8316 20.3086 5.38569 20.3086 7.128V17C20.3086 17.1326 20.2559 17.2598 20.1621 17.3536C20.0684 17.4473 19.9412 17.5 19.8086 17.5C19.676 17.5 19.5488 17.4473 19.455 17.3536C19.3613 17.2598 19.3086 17.1326 19.3086 17V7.205C19.3086 6.04963 19.1882 5.55223 18.9153 5.04292C18.6508 4.54901 18.2596 4.1578 17.7657 3.89324C17.2563 3.62042 16.7579 3.5 15.6036 3.5H9.80859C9.67599 3.5 9.54881 3.44732 9.45504 3.35355C9.36127 3.25978 9.30859 3.13261 9.30859 3C9.30859 2.86739 9.36127 2.74021 9.45504 2.64645C9.54881 2.55268 9.67599 2.5 9.80859 2.5H15.6806C17.4229 2.5 17.977 2.68145 18.5272 2.9751L18.5287 2.9759C19.0843 3.27001 19.5386 3.72434 19.8327 4.27993ZM6.32153 6.7759L6.32153 6.7759L6.32367 6.77476C6.62836 6.61156 6.93897 6.5 8.01359 6.5H13.6036C14.6781 6.5 14.9892 6.61151 15.2944 6.77421L15.2957 6.7749C15.6097 6.94113 15.8665 7.19792 16.0327 7.51193L16.0338 7.51408C16.197 7.81877 16.3086 8.12937 16.3086 9.204L16.3086 20.9203C16.3086 20.9205 16.3086 20.9206 16.3086 20.9208C16.3084 21.0147 16.2817 21.1066 16.2316 21.1861C16.1815 21.2657 16.1099 21.3295 16.0251 21.3703C15.9403 21.411 15.8457 21.427 15.7522 21.4164C15.6588 21.4058 15.5702 21.369 15.4967 21.3104C15.4967 21.3104 15.4966 21.3103 15.4966 21.3103L11.1207 17.8134L10.8086 17.564L10.4965 17.8134L6.1206 21.3103C6.04704 21.369 5.9584 21.4058 5.86487 21.4164C5.77134 21.427 5.67672 21.411 5.5919 21.3702C5.50707 21.3294 5.43548 21.2655 5.38536 21.1858C5.33528 21.1062 5.30867 21.0141 5.30859 20.92L5.30859 20.9198L5.30859 9.205C5.30859 8.13037 5.42015 7.81977 5.58335 7.51508L5.58336 7.51508L5.58449 7.51293C5.75073 7.19892 6.00751 6.94213 6.32153 6.7759Z" stroke="currentColor"/>
</svg>
