<svg width="24" height="25" viewBox="0 0 24 25" fill="none" xmlns="http://www.w3.org/2000/svg">
<path fill-rule="evenodd" clip-rule="evenodd" d="M13.4538 7.47524C12.9768 6.18694 12.1145 5.01694 11.1583 3.76141C10.7718 3.25398 9.93624 3.53599 9.9339 4.17244C9.92584 6.36349 8.84808 7.72262 7.62248 9.15025C6.42584 10.5442 5 12.0767 5 14.4642C5 18.304 8.11268 21.4167 11.9523 21.4167C15.7921 21.4167 18.9047 18.304 18.9047 14.4642C18.9047 12.0391 17.7878 9.83117 16.4603 8.60095C16.0517 8.22224 15.3588 8.48805 15.3171 9.04884C15.2493 9.96056 14.8318 11.3879 13.6728 11.2822C13.9908 9.84441 13.8799 8.62643 13.4538 7.47524ZM15.3164 16.3842C15.3164 18.1417 13.8103 19.5664 11.9524 19.5664C10.0945 19.5664 8.58835 18.1417 8.58835 16.3842C8.58835 15.3623 9.19716 14.693 9.83041 13.9968C10.5166 13.2425 11.2315 12.4566 11.2315 11.1562C12.1973 12.4284 12.9136 13.4292 12.433 15.0204C13.9987 15.5575 14.115 13.6566 14.115 13.6566C14.7096 14.2305 15.3164 15.2477 15.3164 16.3842Z" fill="#FF384F"/>
</svg>
