<svg width="21" height="20" viewBox="0 0 21 20" fill="none" xmlns="http://www.w3.org/2000/svg">
<g clip-path="url(#clip0_969_19221)">
<path d="M5.5973 4H3.15117C2.81961 4 2.55078 4.36674 2.55078 4.81863V15.3795C2.55078 15.8313 2.81961 16.1981 3.15117 16.1981H5.59734C5.92895 16.1981 6.19777 15.8313 6.19777 15.3795V4.81863C6.19777 4.36674 5.92891 4 5.5973 4Z" fill="currentColor"/>
<path d="M1.32711 6.56738H0.562617C0.286563 6.56738 0.0625 6.87305 0.0625 7.24965V12.9476C0.0625 13.3243 0.286563 13.6299 0.562617 13.6299H1.32711C1.60316 13.6299 1.82723 13.3242 1.82723 12.9476V7.24965C1.82723 6.87305 1.60316 6.56738 1.32711 6.56738Z" fill="currentColor"/>
<path d="M13.1219 8.6543H7.00391V11.5432H13.1219V8.6543Z" fill="currentColor"/>
<path d="M16.9733 4H14.5272C14.1956 4 13.9268 4.36674 13.9268 4.81863V15.3795C13.9268 15.8313 14.1956 16.1981 14.5272 16.1981H16.9733C17.3049 16.1981 17.5738 15.8313 17.5738 15.3795V4.81863C17.5738 4.36674 17.3049 4 16.9733 4Z" fill="currentColor"/>
<path d="M19.5624 6.56738H18.798C18.5219 6.56738 18.2979 6.87305 18.2979 7.24965V12.9476C18.2979 13.3243 18.5219 13.6299 18.798 13.6299H19.5624C19.8385 13.6299 20.0625 13.3242 20.0625 12.9476V7.24965C20.0625 6.87305 19.8385 6.56738 19.5624 6.56738Z" fill="currentColor"/>
</g>
<defs>
<clipPath id="clip0_969_19221">
<rect width="20" height="20" fill="currentColor" transform="translate(0.0625)"/>
</clipPath>
</defs>
</svg>
