<svg width="25" height="22" viewBox="0 0 25 22" fill="none" xmlns="http://www.w3.org/2000/svg">
<path d="M5.5229 16.8779C6.93833 18.826 9.0092 20.198 11.3551 20.7417C13.7009 21.2855 16.1642 20.9645 18.2923 19.8376C20.4206 18.7109 22.0706 16.854 22.9394 14.6081C23.8083 12.3622 23.8376 9.87837 23.0218 7.61263C22.2062 5.34695 20.6003 3.45169 18.4993 2.27506C16.3983 1.09844 13.9432 0.719473 11.5852 1.20779C9.22719 1.69611 7.12456 3.01892 5.66364 4.9332C4.20271 6.84746 3.4816 9.22462 3.63281 11.6279M3.63281 11.6279L1.75781 9.75287M3.63281 11.6279L5.50781 9.75287" stroke="#595D68" stroke-linecap="round" stroke-linejoin="round"/>
<path d="M13.6133 6V11L17.3633 14.75" stroke="#595D68" stroke-linecap="round" stroke-linejoin="round"/>
</svg>
