<svg width="25" height="32" viewBox="0 0 25 32" fill="none" xmlns="http://www.w3.org/2000/svg">
<path fill-rule="evenodd" clip-rule="evenodd" d="M14.222 8.71782C13.536 6.86479 12.2957 5.1819 10.9203 3.376C10.3643 2.64614 9.16258 3.05176 9.15921 3.9672C9.14762 7.11873 7.59741 9.07364 5.83457 11.1271C4.11337 13.132 2.0625 15.3363 2.0625 18.7705C2.0625 24.2934 6.53965 28.7705 12.0624 28.7705C17.5854 28.7705 22.0625 24.2934 22.0625 18.7705C22.0625 15.2822 20.456 12.1065 18.5466 10.337C17.9587 9.79226 16.9621 10.1746 16.9022 10.9812C16.8047 12.2926 16.2042 14.3456 14.5371 14.1936C14.9945 12.1255 14.835 10.3736 14.222 8.71782ZM16.9012 21.532C16.9012 24.0599 14.7349 26.1092 12.0626 26.1092C9.39019 26.1092 7.22383 24.0599 7.22383 21.532C7.22383 20.0623 8.09951 19.0995 9.01035 18.0982C9.99732 17.0132 11.0256 15.8827 11.0256 14.0124C12.4147 15.8422 13.4451 17.2818 12.7538 19.5705C15.0058 20.343 15.1731 17.6088 15.1731 17.6088C16.0284 18.4343 16.9012 19.8973 16.9012 21.532Z" fill="#6C8DFF"/>
</svg>
