<svg width="24" height="24" viewBox="0 0 24 24" fill="none" xmlns="http://www.w3.org/2000/svg">
<circle cx="11.6562" cy="12" r="10.5" stroke="#CA2744" stroke-width="2"/>
<path d="M12.8347 7.31818L12.7055 14.5717H11.3283L11.1991 7.31818H12.8347ZM12.0194 17.5945C11.7443 17.5945 11.509 17.4983 11.3134 17.3061C11.1179 17.1106 11.0217 16.8752 11.0251 16.6001C11.0217 16.3284 11.1179 16.0964 11.3134 15.9041C11.509 15.7086 11.7443 15.6108 12.0194 15.6108C12.2878 15.6108 12.5198 15.7086 12.7154 15.9041C12.9109 16.0964 13.0104 16.3284 13.0137 16.6001C13.0104 16.7824 12.9623 16.9498 12.8695 17.1023C12.78 17.2514 12.6607 17.3707 12.5116 17.4602C12.3624 17.5497 12.1983 17.5945 12.0194 17.5945Z" fill="#CA2744"/>
</svg>
