<svg width="21" height="23" viewBox="0 0 21 23" fill="none" xmlns="http://www.w3.org/2000/svg">
<path d="M13.3116 13.4404L13.3115 13.4405C13.0348 13.7381 12.8848 14.1345 12.8848 14.5411V17.0601C12.8848 17.794 12.6132 18.4913 12.14 19.0001L9.93797 21.3673C9.55429 21.7798 9.05683 21.8335 8.64382 21.6496C8.22591 21.4635 7.88477 21.026 7.88477 20.4079V14.5411C7.88477 14.1345 7.73485 13.7381 7.45804 13.4404L7.45798 13.4404L1.62955 7.17458C1.15631 6.66583 0.884766 5.96857 0.884766 5.23462V3.97513C0.884766 2.4354 2.03752 1.25 3.38477 1.25H17.3848C18.7321 1.25 19.8848 2.43539 19.8848 3.97513V5.23462C19.8848 5.96856 19.6132 6.66583 19.14 7.17459L13.3116 13.4404Z" stroke="#202020"/>
</svg>
