<svg width="30" height="29" viewBox="0 0 30 29" fill="none" xmlns="http://www.w3.org/2000/svg">
<rect x="1.26953" y="1.5" width="27" height="27" rx="13.5" stroke="#202020"/>
<path d="M17.5 11.5C17.5 12.8807 16.3807 14 15 14C13.6193 14 12.5 12.8807 12.5 11.5C12.5 10.1193 13.6193 9 15 9C16.3807 9 17.5 10.1193 17.5 11.5Z" stroke="#202020"/>
<path d="M19.4096 20.5635H10.5933C10.0784 20.5635 9.8056 19.9419 10.1608 19.5368C11.216 18.333 13.1517 16.5 15.1547 16.5C17.1774 16.5 18.9403 18.3693 19.8654 19.5721C20.1821 19.9839 19.9033 20.5635 19.4096 20.5635Z" stroke="#202020" stroke-linecap="round" stroke-linejoin="round"/>
</svg>
