<svg width="12" height="12" viewBox="0 0 12 12" fill="none" xmlns="http://www.w3.org/2000/svg">
<path fill-rule="evenodd" clip-rule="evenodd" d="M5.87695 10.375C8.29318 10.375 10.252 8.41622 10.252 6C10.252 3.58375 8.29318 1.625 5.87695 1.625C3.46071 1.625 1.50195 3.58375 1.50195 6C1.50195 8.41622 3.46071 10.375 5.87695 10.375ZM5.87695 11.25C8.77647 11.25 11.127 8.89952 11.127 6C11.127 3.10051 8.77647 0.75 5.87695 0.75C2.97746 0.75 0.626953 3.10051 0.626953 6C0.626953 8.89952 2.97746 11.25 5.87695 11.25ZM6.31445 7.75V8.625H5.43945V7.75H6.31445ZM5.00195 5.08522C5.00195 4.63653 5.38094 4.25 5.87695 4.25C6.37296 4.25 6.75195 4.63653 6.75195 5.08522C6.75195 5.26442 6.64409 5.47681 6.40639 5.71761C6.17597 5.95106 5.88302 6.15126 5.63942 6.3087L5.43945 6.43802V7.3125H6.31445V6.91134C6.53682 6.76008 6.80025 6.56414 7.02915 6.33227C7.32467 6.0329 7.62695 5.60893 7.62695 5.08522C7.62695 4.1281 6.83064 3.375 5.87695 3.375C4.92326 3.375 4.12695 4.1281 4.12695 5.08522H5.00195Z" fill="#656A76"/>
</svg>
