<svg width="25" height="24" viewBox="0 0 25 24" fill="none" xmlns="http://www.w3.org/2000/svg">
<path d="M2.70996 12.002C2.70996 13.0375 3.54942 13.877 4.58496 13.877C5.62049 13.877 6.45996 13.0375 6.45996 12.002C6.45996 10.9664 5.62049 10.127 4.58496 10.127C3.54942 10.127 2.70996 10.9664 2.70996 12.002Z" fill="#FAFAFA"/>
<path d="M12.0869 13.8774C11.0514 13.8774 10.2119 13.038 10.2119 12.0024C10.2119 10.9669 11.0514 10.1274 12.0869 10.1274C13.1224 10.1274 13.9619 10.9669 13.9619 12.0024C13.9619 13.038 13.1224 13.8774 12.0869 13.8774Z" fill="#FAFAFA"/>
<path d="M19.5898 13.8779C18.5542 13.8779 17.7148 13.0384 17.7148 12.0029C17.7148 10.9674 18.5542 10.1279 19.5898 10.1279C20.6253 10.1279 21.4648 10.9674 21.4648 12.0029C21.4648 13.0384 20.6253 13.8779 19.5898 13.8779Z" fill="#FAFAFA"/>
</svg>
