<svg width="20" height="21" viewBox="0 0 20 21" fill="none" xmlns="http://www.w3.org/2000/svg">
<path d="M10.9375 13.7734C10.9375 14.2913 10.5178 14.711 10 14.711C9.48225 14.711 9.0625 14.2913 9.0625 13.7734C9.0625 13.2557 9.48225 12.8359 10 12.8359C10.5178 12.8359 10.9375 13.2557 10.9375 13.7734Z" fill="#CA2744"/>
<path d="M10.625 7.0376C10.625 6.69242 10.3452 6.4126 10 6.4126C9.65483 6.4126 9.375 6.69242 9.375 7.0376V10.7097C9.375 11.0549 9.65483 11.3347 10 11.3347C10.3452 11.3347 10.625 11.0549 10.625 10.7097V7.0376Z" fill="#CA2744"/>
<path fill-rule="evenodd" clip-rule="evenodd" d="M8.25503 3.12407C9.05017 1.81541 10.9495 1.81541 11.7447 3.12407L18.3989 14.0755C19.2256 15.4362 18.2462 17.1774 16.6541 17.1774H3.34564C1.75358 17.1774 0.774096 15.4362 1.6008 14.0755L8.25503 3.12407ZM10.6764 3.77316C10.3681 3.26572 9.63159 3.26572 9.32325 3.77316L2.66907 14.7246C2.34851 15.2522 2.7283 15.9274 3.34564 15.9274H16.6541C17.2714 15.9274 17.6512 15.2522 17.3307 14.7246L10.6764 3.77316Z" fill="#CA2744"/>
</svg>