<svg width="25" height="24" viewBox="0 0 25 24" fill="none" xmlns="http://www.w3.org/2000/svg">
<path d="M6.41477 16H5.30682L8.51136 7.27273H9.60227L12.8068 16H11.6989L9.09091 8.65341H9.02273L6.41477 16ZM6.82386 12.5909H11.2898V13.5284H6.82386V12.5909ZM15.956 16.1534C15.5412 16.1534 15.1648 16.0753 14.8267 15.919C14.4886 15.7599 14.2202 15.5312 14.0213 15.233C13.8224 14.9318 13.723 14.5682 13.723 14.142C13.723 13.767 13.7969 13.4631 13.9446 13.2301C14.0923 12.9943 14.2898 12.8097 14.5369 12.6761C14.7841 12.5426 15.0568 12.4432 15.3551 12.3778C15.6563 12.3097 15.9588 12.2557 16.2628 12.2159C16.6605 12.1648 16.983 12.1264 17.2301 12.1009C17.4801 12.0724 17.6619 12.0256 17.7756 11.9602C17.892 11.8949 17.9503 11.7812 17.9503 11.6193V11.5852C17.9503 11.1648 17.8352 10.8381 17.6051 10.6051C17.3778 10.3722 17.0327 10.2557 16.5696 10.2557C16.0895 10.2557 15.7131 10.3608 15.4403 10.571C15.1676 10.7812 14.9759 11.0057 14.8651 11.2443L13.9105 10.9034C14.081 10.5057 14.3082 10.196 14.5923 9.97443C14.8793 9.75 15.1918 9.59375 15.5298 9.50568C15.8707 9.41477 16.206 9.36932 16.5355 9.36932C16.7457 9.36932 16.9872 9.39489 17.2599 9.44602C17.5355 9.49432 17.8011 9.59517 18.0568 9.74858C18.3153 9.90199 18.5298 10.1335 18.7003 10.4432C18.8707 10.7528 18.956 11.1676 18.956 11.6875V16H17.9503V15.1136H17.8991C17.831 15.2557 17.7173 15.4077 17.5582 15.5696C17.3991 15.7315 17.1875 15.8693 16.9233 15.983C16.6591 16.0966 16.3366 16.1534 15.956 16.1534ZM16.1094 15.25C16.5071 15.25 16.8423 15.1719 17.1151 15.0156C17.3906 14.8594 17.598 14.6577 17.7372 14.4105C17.8793 14.1634 17.9503 13.9034 17.9503 13.6307V12.7102C17.9077 12.7614 17.8139 12.8082 17.669 12.8509C17.527 12.8906 17.3622 12.9261 17.1747 12.9574C16.9901 12.9858 16.8097 13.0114 16.6335 13.0341C16.4602 13.054 16.3196 13.071 16.2116 13.0852C15.9503 13.1193 15.706 13.1747 15.4787 13.2514C15.2543 13.3253 15.0724 13.4375 14.9332 13.5881C14.7969 13.7358 14.7287 13.9375 14.7287 14.1932C14.7287 14.5426 14.858 14.8068 15.1165 14.9858C15.3778 15.1619 15.7088 15.25 16.1094 15.25Z" fill="#595D68"/>
<rect x="0.5" y="0.5" width="24" height="23" rx="4.5" stroke="#595D68"/>
</svg>
