<svg width="18" height="17" viewBox="0 0 18 17" fill="none" xmlns="http://www.w3.org/2000/svg">
<path fill-rule="evenodd" clip-rule="evenodd" d="M10.6283 1.90781L8.83466 3.70136C8.63939 3.89662 8.32281 3.89661 8.12755 3.70135C7.93229 3.50608 7.93229 3.1895 8.12756 2.99424L9.92974 1.19211C9.93527 1.18658 9.94093 1.18118 9.94672 1.17591C10.805 0.394691 11.9312 -0.0259765 13.0914 0.00124314C14.2517 0.0284628 15.3569 0.501478 16.1776 1.32208C16.9983 2.14269 17.4714 3.24784 17.4987 4.40809C17.5261 5.56833 17.1055 6.69452 16.3243 7.55284C16.3188 7.55885 16.3132 7.56474 16.3074 7.57048L13.7325 10.1362C13.7324 10.1364 13.7322 10.1365 13.732 10.1367C12.8904 10.981 11.7479 11.4566 10.5557 11.4588C9.36323 11.461 8.21874 10.9895 7.37391 10.148L7.37322 10.1473L7.36271 10.1368C7.16744 9.94155 7.16744 9.62497 7.3627 9.4297C7.55796 9.23444 7.87454 9.23443 8.06981 9.42969L8.07963 9.43952C8.73658 10.0939 9.62655 10.4605 10.5538 10.4588C11.4811 10.4571 12.3697 10.0871 13.0242 9.43032L13.0254 9.42906L15.5927 6.87101C16.1957 6.20393 16.5202 5.33091 16.499 4.43162C16.4778 3.5284 16.1094 2.66806 15.4705 2.02923C14.8316 1.3904 13.9712 1.02216 13.068 1.00097C12.1685 0.979867 11.2953 1.30453 10.6283 1.90781ZM9.92037 7.56048C9.26342 6.90611 8.37345 6.53946 7.44619 6.54118C6.51893 6.54291 5.63033 6.91286 4.97583 7.56968L4.97457 7.57094L2.40734 10.129C1.80429 10.7961 1.4798 11.6691 1.50097 12.5684C1.52224 13.4716 1.89055 14.3319 2.52945 14.9708C3.16835 15.6096 4.02875 15.9778 4.93201 15.999C5.83149 16.0201 6.70464 15.6955 7.37174 15.0922L9.16534 13.2986C9.36061 13.1034 9.67719 13.1034 9.87245 13.2987C10.0677 13.4939 10.0677 13.8105 9.87244 14.0058L8.07026 15.8079C8.06473 15.8134 8.05907 15.8188 8.05328 15.8241C7.195 16.6053 6.06882 17.026 4.90856 16.9988C3.74829 16.9715 2.64308 16.4985 1.82238 15.6779C1.00169 14.8573 0.528566 13.7522 0.501252 12.5919C0.473938 11.4317 0.89453 10.3055 1.6757 9.44716C1.68118 9.44115 1.6868 9.43526 1.69256 9.42952L4.26748 6.86382C4.26767 6.86363 4.26786 6.86343 4.26806 6.86324C5.10969 6.01894 6.25217 5.5434 7.44433 5.54118C8.63677 5.53896 9.78126 6.01047 10.6261 6.85199L10.6268 6.85268L10.6373 6.86319C10.8326 7.05845 10.8326 7.37503 10.6373 7.5703C10.442 7.76556 10.1255 7.76557 9.93019 7.57031L9.92037 7.56048Z" fill="#272932"/>
</svg>
