<svg width="20" height="20" viewBox="0 0 20 20" fill="none" xmlns="http://www.w3.org/2000/svg">
<path 
d="M16.8426 11.75H13.1501C12.66 11.75 12.415 11.75 12.2278 11.8454C12.0632 11.9293 11.9293 12.0631 11.8455 12.2277C11.7501 12.4149 11.7501 12.6599 11.7501 13.15V16.8425M17 10.636V5.8C17 4.81991 17 4.32986 16.8092 3.95552C16.6415 3.62623 16.3738 3.35851 16.0445 3.19074C15.6702 3 15.1801 3 14.2 3H5.8C4.81991 3 4.32986 3 3.95552 3.19074C3.62623 3.35851 3.35851 3.62623 3.19074 3.95552C3 4.32986 3 4.81991 3 5.8V14.2C3 15.1801 3 15.6702 3.19074 16.0445C3.35851 16.3738 3.62623 16.6415 3.95552 16.8092C4.32986 17 4.81991 17 5.8 17H10.8309C11.2756 17 11.4978 17 11.7061 16.9481C11.8907 16.9022 12.0666 16.8264 12.2268 16.7239C12.4076 16.6082 12.5602 16.4466 12.8657 16.1235L16.2347 12.5596C16.5175 12.2604 16.6588 12.1109 16.7598 11.9387C16.8493 11.7859 16.9151 11.6204 16.955 11.448C17 11.2534 17 11.0476 17 10.636Z" 
stroke="currentColor" 
stroke-width="2"
stroke-linecap="round" 
stroke-linejoin="round"
/>

</svg>
