<svg width="16" height="16" viewBox="0 0 16 16" fill="none" xmlns="http://www.w3.org/2000/svg">
<path d="M15.6772 5.08189L10.918 0.322031C10.8161 0.219942 10.695 0.138954 10.5617 0.0836978C10.4285 0.0284414 10.2856 0 10.1413 0C9.99705 0 9.85419 0.0284414 9.72091 0.0836978C9.58763 0.138954 9.46655 0.219942 9.36459 0.322031L5.09238 4.60975C4.34585 4.35485 2.42618 3.95565 0.410053 5.58305C0.289813 5.67971 0.191291 5.80063 0.120911 5.93793C0.0505309 6.07523 0.00987188 6.22582 0.00158514 6.37989C-0.00670161 6.53395 0.0175699 6.68804 0.0728171 6.83209C0.128064 6.97615 0.213047 7.10694 0.322224 7.21595L4.22038 11.1147L0.76607 14.5655C0.719843 14.6086 0.682765 14.6606 0.657049 14.7183C0.631333 14.776 0.617506 14.8383 0.616391 14.9015C0.615276 14.9647 0.626898 15.0275 0.650562 15.0861C0.674226 15.1446 0.709448 15.1979 0.754126 15.2426C0.798805 15.2872 0.852024 15.3225 0.910611 15.3461C0.969197 15.3698 1.03195 15.3814 1.09513 15.3803C1.1583 15.3792 1.2206 15.3654 1.27832 15.3396C1.33603 15.3139 1.38798 15.2768 1.43105 15.2306L4.88536 11.7758L8.78351 15.6777C8.8854 15.7798 9.00641 15.8608 9.13961 15.9161C9.27282 15.9714 9.41562 15.9999 9.55985 16H9.63827C9.79477 15.9889 9.94707 15.9444 10.0849 15.8694C10.2228 15.7945 10.3429 15.6908 10.4373 15.5655C11.9837 13.5099 11.7822 11.8613 11.4144 10.9147L15.678 6.63635C15.7802 6.53431 15.8612 6.41313 15.9164 6.27973C15.9717 6.14633 16.0001 6.00335 16 5.85896C15.9999 5.71457 15.9714 5.57162 15.916 5.43827C15.8606 5.30493 15.7795 5.18383 15.6772 5.08189ZM15.0115 5.96892L10.5205 10.4755C10.4509 10.5454 10.4051 10.6354 10.3895 10.7328C10.3739 10.8302 10.3892 10.93 10.4334 11.0182C11.2129 12.5774 10.2993 14.1804 9.68532 14.9961C9.67175 15.0138 9.65455 15.0284 9.63488 15.039C9.61521 15.0495 9.59351 15.0558 9.57124 15.0572C9.54898 15.0587 9.52665 15.0554 9.50575 15.0476C9.48485 15.0398 9.46587 15.0276 9.45007 15.0118L0.987208 6.55008C0.971361 6.53438 0.959044 6.51548 0.95108 6.49465C0.943115 6.47381 0.939687 6.45151 0.941022 6.42924C0.942358 6.40698 0.948428 6.38525 0.958826 6.36551C0.969225 6.34578 0.983713 6.32849 1.00132 6.3148C1.98155 5.52345 2.92256 5.31404 3.64401 5.31404C4.1087 5.30704 4.56964 5.39817 4.99671 5.58148C5.08536 5.62538 5.18558 5.64021 5.28314 5.62388C5.3807 5.60754 5.47063 5.56088 5.54015 5.49051L10.0304 0.987894C10.0449 0.973309 10.0622 0.96174 10.0813 0.953846C10.1003 0.945952 10.1207 0.941889 10.1413 0.941889C10.1619 0.941889 10.1823 0.945952 10.2014 0.953846C10.2204 0.96174 10.2377 0.973309 10.2523 0.987894L15.0115 5.74697C15.026 5.76154 15.0376 5.77884 15.0455 5.79788C15.0534 5.81692 15.0575 5.83733 15.0575 5.85795C15.0575 5.87856 15.0534 5.89897 15.0455 5.91801C15.0376 5.93706 15.026 5.95436 15.0115 5.96892Z" fill="#272932"/>
</svg>
