	<svg
		width="25"
		height="25"
		viewBox="0 0 25 25"
		fill="none"
		xmlns="http://www.w3.org/2000/svg"
	>
		<circle
			cx="12.0156"
			cy="12.9414"
			r="11.25"
			stroke="currentColor"
			strokeWidth="1.5"
		/>
		<path
			d="M11.6111 18C11.3964 18 11.2097 17.9207 11.0511 17.762C10.8924 17.6033 10.8131 17.4167 10.8131 17.202V11.518C10.8131 11.3033 10.8924 11.1167 11.0511 10.958C11.2097 10.7993 11.3964 10.72 11.6111 10.72H12.3951C12.6097 10.72 12.7964 10.7993 12.9551 10.958C13.1137 11.1167 13.1931 11.3033 13.1931 11.518V17.202C13.1931 17.4167 13.1137 17.6033 12.9551 17.762C12.7964 17.9207 12.6097 18 12.3951 18H11.6111ZM11.6111 9.32C11.3964 9.32 11.2097 9.24067 11.0511 9.082C10.8924 8.92333 10.8131 8.73667 10.8131 8.522V8.298C10.8131 8.08333 10.8924 7.89667 11.0511 7.738C11.2097 7.57933 11.3964 7.5 11.6111 7.5H12.3951C12.6097 7.5 12.7964 7.57933 12.9551 7.738C13.1137 7.89667 13.1931 8.08333 13.1931 8.298V8.522C13.1931 8.73667 13.1137 8.92333 12.9551 9.082C12.7964 9.24067 12.6097 9.32 12.3951 9.32H11.6111Z"
			fill="currentColor"
		/>
	</svg>
