<svg width="25" height="25" viewBox="0 0 25 25" fill="none" xmlns="http://www.w3.org/2000/svg">
<path d="M4.13477 4.75C3.72056 4.75 3.38477 5.08579 3.38477 5.5C3.38477 5.91421 3.72056 6.25 4.13477 6.25H14.6348C15.049 6.25 15.3848 5.91421 15.3848 5.5C15.3848 5.08579 15.049 4.75 14.6348 4.75H4.13477Z" fill="#202020"/>
<path d="M3.38477 12.5C3.38477 12.0858 3.72056 11.75 4.13477 11.75H20.6348C21.049 11.75 21.3848 12.0858 21.3848 12.5C21.3848 12.9142 21.049 13.25 20.6348 13.25H4.13477C3.72056 13.25 3.38477 12.9142 3.38477 12.5Z" fill="#202020"/>
<path d="M3.38477 19.5C3.38477 19.0858 3.72056 18.75 4.13477 18.75H8.63477C9.04898 18.75 9.38477 19.0858 9.38477 19.5C9.38477 19.9142 9.04898 20.25 8.63477 20.25H4.13477C3.72056 20.25 3.38477 19.9142 3.38477 19.5Z" fill="#202020"/>
</svg>
