<svg width="20" height="21" viewBox="0 0 20 21" fill="none" xmlns="http://www.w3.org/2000/svg">
<path d="M10.8301 5.32488C10.3753 5.25435 10 5.63402 10 6.09425V15.2609C10 15.7212 10.3753 16.1008 10.8301 16.0303C11.9593 15.8552 13.0121 15.3258 13.8302 14.5078C14.846 13.4919 15.4167 12.1142 15.4167 10.6776C15.4167 9.241 14.846 7.86325 13.8302 6.84743C13.0121 6.02936 11.9593 5.49999 10.8301 5.32488Z" fill="currentColor"/>
<path fill-rule="evenodd" clip-rule="evenodd" d="M10 2.55273C5.51268 2.55273 1.875 6.19042 1.875 10.6777C1.875 15.1651 5.51268 18.8027 10 18.8027C14.4873 18.8027 18.125 15.1651 18.125 10.6777C18.125 6.19042 14.4873 2.55273 10 2.55273ZM3.125 10.6777C3.125 6.88078 6.20304 3.80273 10 3.80273C13.7969 3.80273 16.875 6.88078 16.875 10.6777C16.875 14.4747 13.7969 17.5527 10 17.5527C6.20304 17.5527 3.125 14.4747 3.125 10.6777Z" fill="currentColor"/>
</svg>
