<svg width="20" height="21" viewBox="0 0 20 21" fill="none" xmlns="http://www.w3.org/2000/svg">
<path d="M12.1948 2.8521C11.9507 2.60802 11.9507 2.21229 12.1948 1.96822C12.4389 1.72414 12.8346 1.72414 13.0786 1.96822L16.3516 5.24114C17.0533 5.94286 17.0533 7.08058 16.3516 7.7823L13.0786 11.0553C12.8346 11.2993 12.4389 11.2993 12.1948 11.0553C11.9507 10.8112 11.9507 10.4154 12.1948 10.1713L15.2294 7.13672H3.75C3.40483 7.13672 3.125 6.8569 3.125 6.51172C3.125 6.16654 3.40483 5.88672 3.75 5.88672H15.2294L12.1948 2.8521Z" fill="currentColor"/>
<path d="M7.80223 11.1861C8.04632 10.942 8.04632 10.5463 7.80223 10.3022C7.55816 10.0581 7.16243 10.0581 6.91835 10.3022L3.64543 13.5751C2.94371 14.2769 2.94371 15.4146 3.64543 16.1163L6.91835 19.3892C7.16243 19.6333 7.55816 19.6333 7.80223 19.3892C8.04632 19.1452 8.04632 18.7495 7.80223 18.5054L4.76762 15.4707H16.247C16.5922 15.4707 16.872 15.191 16.872 14.8457C16.872 14.5005 16.5922 14.2207 16.247 14.2207H4.76762L7.80223 11.1861Z" fill="currentColor"/>
</svg>
