<svg width="24" height="24" viewBox="0 0 24 24" fill="none" xmlns="http://www.w3.org/2000/svg">
<path fill-rule="evenodd" clip-rule="evenodd" d="M7 11C9.20914 11 11 9.20914 11 7C11 4.79086 9.20914 3 7 3C4.79086 3 3 4.79086 3 7C3 9.20914 4.79086 11 7 11ZM10 7C10 8.65685 8.65685 10 7 10C5.34315 10 4 8.65685 4 7C4 5.34315 5.34315 4 7 4C8.65685 4 10 5.34315 10 7Z" fill="#272932"/>
<path fill-rule="evenodd" clip-rule="evenodd" d="M17 11C19.2091 11 21 9.20914 21 7C21 4.79086 19.2091 3 17 3C14.7909 3 13 4.79086 13 7C13 9.20914 14.7909 11 17 11ZM20 7C20 8.65685 18.6569 10 17 10C15.3431 10 14 8.65685 14 7C14 5.34315 15.3431 4 17 4C18.6569 4 20 5.34315 20 7Z" fill="#272932"/>
<path fill-rule="evenodd" clip-rule="evenodd" d="M11 17C11 19.2091 9.20914 21 7 21C4.79086 21 3 19.2091 3 17C3 14.7909 4.79086 13 7 13C9.20914 13 11 14.7909 11 17ZM10 17C10 18.6569 8.65685 20 7 20C5.34315 20 4 18.6569 4 17C4 15.3431 5.34315 14 7 14C8.65685 14 10 15.3431 10 17Z" fill="#272932"/>
<path d="M17.5 13C17.5 12.7239 17.2761 12.5 17 12.5C16.7239 12.5 16.5 12.7239 16.5 13V16.5H13C12.7239 16.5 12.5 16.7239 12.5 17C12.5 17.2761 12.7239 17.5 13 17.5H16.5V21C16.5 21.2761 16.7239 21.5 17 21.5C17.2761 21.5 17.5 21.2761 17.5 21V17.5H21C21.2761 17.5 21.5 17.2761 21.5 17C21.5 16.7239 21.2761 16.5 21 16.5H17.5V13Z" fill="#272932"/>
</svg>
