<svg xmlns="http://www.w3.org/2000/svg" width="24" height="24" viewBox="0 0 24 24" fill="none">
  <path fill-rule="evenodd" clip-rule="evenodd" d="M18.9706 1C19.2467 1 19.4706 1.22386 19.4706 1.5V4.52941H22.5C22.7761 4.52941 23 4.75327 23 5.02941C23 5.30555 22.7761 5.52941 22.5 5.52941H19.4706V8.55882C19.4706 8.83497 19.2467 9.05882 18.9706 9.05882C18.6944 9.05882 18.4706 8.83497 18.4706 8.55882V5.52941H15.4412C15.165 5.52941 14.9412 5.30555 14.9412 5.02941C14.9412 4.75327 15.165 4.52941 15.4412 4.52941H18.4706V1.5C18.4706 1.22386 18.6944 1 18.9706 1ZM11.727 4.52941H11.7647C12.0409 4.52941 12.2647 4.75327 12.2647 5.02941C12.2647 5.30555 12.0409 5.52941 11.7647 5.52941C9.60414 5.52941 8.03242 5.53041 6.82844 5.68742C5.63793 5.84267 4.87965 6.1428 4.30576 6.6892C4.25591 6.73665 4.20724 6.78532 4.15979 6.83517C3.6134 7.40906 3.31326 8.16734 3.15801 9.35785C3.001 10.5618 3 12.1335 3 14.2941V19.1471C3 19.7158 3.00106 20.092 3.03862 20.3713C3.07423 20.6363 3.13423 20.738 3.19814 20.8019C3.26204 20.8658 3.36373 20.9258 3.62865 20.9614C3.90796 20.9989 4.2842 21 4.85292 21H9.70588C11.8665 21 13.4382 20.999 14.6422 20.842C15.8327 20.6867 16.5909 20.3866 17.1648 19.8402C17.2147 19.7928 17.2633 19.7441 17.3108 19.6942C17.8572 19.1204 18.1573 18.3621 18.3126 17.1716C18.4696 15.9676 18.4706 14.3959 18.4706 12.2353C18.4706 11.9592 18.6944 11.7353 18.9706 11.7353C19.2467 11.7353 19.4706 11.9592 19.4706 12.2353V12.273C19.4706 14.388 19.4706 16.0248 19.3042 17.3009C19.135 18.598 18.7863 19.5947 18.0351 20.3838C17.9763 20.4455 17.9161 20.5057 17.8544 20.5645C17.0653 21.3157 16.0686 21.6644 14.7715 21.8336C13.4954 22 11.8586 22 9.74357 22H4.81896C4.29336 22 3.84924 22 3.49541 21.9525C3.11959 21.9019 2.7717 21.7896 2.49103 21.509C2.21035 21.2283 2.09806 20.8804 2.04753 20.5046C1.99996 20.1508 1.99998 19.7066 2 19.181L2 14.2564C2 12.1414 1.99999 10.5046 2.16641 9.22853C2.33557 7.93138 2.68427 6.93471 3.43554 6.14563C3.49428 6.08393 3.55452 6.02369 3.61622 5.96495C4.4053 5.21368 5.40197 4.86498 6.69912 4.69582C7.97522 4.5294 9.61201 4.52941 11.727 4.52941ZM6.70588 10.9118C6.70588 10.6356 6.92974 10.4118 7.20588 10.4118H14.2647C14.5409 10.4118 14.7647 10.6356 14.7647 10.9118C14.7647 11.1879 14.5409 11.4118 14.2647 11.4118H7.20588C6.92974 11.4118 6.70588 11.1879 6.70588 10.9118ZM6.70588 15.6176C6.70588 15.3415 6.92974 15.1176 7.20588 15.1176H10.7353C11.0114 15.1176 11.2353 15.3415 11.2353 15.6176C11.2353 15.8938 11.0114 16.1176 10.7353 16.1176H7.20588C6.92974 16.1176 6.70588 15.8938 6.70588 15.6176Z" fill="#272932"/>
</svg>
