<svg xmlns="http://www.w3.org/2000/svg" width="24" height="24" viewBox="0 0 24 24" fill="none">
  <path fill-rule="evenodd" clip-rule="evenodd" d="M5.43103 8.20473C5.80523 4.94423 8.64561 2.5 12 2.5C15.3544 2.5 18.1948 4.94424 18.569 8.20473L18.8512 10.6634C18.9836 11.7806 19.3593 12.8588 19.9543 13.8267L20.6328 14.9215C20.9071 15.3642 21.1334 15.7294 21.2804 16.0314C21.4284 16.3356 21.5417 16.6633 21.4852 17.0102C21.4239 17.3866 21.2243 17.7251 20.9282 17.9651C20.6584 18.1837 20.3201 18.2569 19.9771 18.2903C19.6359 18.3235 19.1977 18.3235 18.6629 18.3235H15.6643C15.6621 18.3386 15.6593 18.3536 15.6557 18.3687C15.4463 19.2513 14.9826 20.042 14.3248 20.612C13.6658 21.1832 12.8489 21.5 12 21.5C11.1511 21.5 10.3342 21.1832 9.67518 20.612C9.01744 20.042 8.55367 19.2513 8.34429 18.3687C8.34072 18.3536 8.33787 18.3386 8.33572 18.3235H5.33715C4.80233 18.3235 4.36407 18.3235 4.02288 18.2903C3.6799 18.2569 3.34157 18.1837 3.07182 17.9651C2.77571 17.7251 2.57615 17.3866 2.5148 17.0102C2.45827 16.6633 2.57164 16.3356 2.71962 16.0314C2.86656 15.7294 3.09286 15.3642 3.36722 14.9216L4.0457 13.8267C4.64069 12.8588 5.01638 11.7806 5.1488 10.6634L5.43103 8.20473ZM9.36662 18.3235C9.5479 18.9386 9.88596 19.4714 10.3301 19.8564C10.8172 20.2785 11.4044 20.5 12 20.5C12.5956 20.5 13.1828 20.2785 13.6699 19.8564C14.114 19.4714 14.4521 18.9386 14.6334 18.3235H9.36662ZM12 3.5C9.12811 3.5 6.73789 5.58821 6.42451 8.31875L6.14185 10.7811C5.99222 12.0435 5.56787 13.26 4.89762 14.3504L4.2319 15.4247C3.93918 15.897 3.74067 16.2185 3.61886 16.4689C3.49548 16.7225 3.49639 16.8162 3.50178 16.8493C3.52284 16.9785 3.59208 17.0996 3.70141 17.1882C3.73634 17.2165 3.8291 17.2667 4.11982 17.295C4.40665 17.323 4.79577 17.3235 5.36386 17.3235H18.6361C19.2042 17.3235 19.5933 17.323 19.8802 17.295C20.1709 17.2667 20.2637 17.2165 20.2986 17.1882C20.4079 17.0996 20.4772 16.9785 20.4982 16.8493C20.5036 16.8162 20.5045 16.7225 20.3811 16.4689C20.2593 16.2185 20.0608 15.897 19.7681 15.4247L19.1024 14.3504C18.4321 13.26 18.0078 12.0435 17.8582 10.7811L17.5755 8.31875C17.2621 5.58821 14.8719 3.5 12 3.5Z" fill="#272932"/>
</svg>
