<svg xmlns="http://www.w3.org/2000/svg" width="24" height="24" viewBox="0 0 24 24" fill="none">
  <path fill-rule="evenodd" clip-rule="evenodd" d="M4 4.5C3.72386 4.5 3.5 4.72386 3.5 5V15.84L6.07353 13.4095C6.35197 13.1465 6.72046 13 7.10346 13H15.2353C15.5114 13 15.7353 12.7761 15.7353 12.5V5C15.7353 4.72386 15.5114 4.5 15.2353 4.5H4ZM2.5 5C2.5 4.17157 3.17157 3.5 4 3.5H15.2353C16.0637 3.5 16.7353 4.17157 16.7353 5V8H20C20.8284 8 21.5 8.67157 21.5 9.5V20.34C21.5 21.2172 20.4511 21.6694 19.8134 21.067L17.2399 18.6365C17.147 18.5488 17.0242 18.5 16.8965 18.5H8.23529C7.40687 18.5 6.73529 17.8284 6.73529 17V14.16L4.18662 16.567C3.54889 17.1694 2.5 16.7172 2.5 15.84V5ZM7.73529 14V17C7.73529 17.2761 7.95915 17.5 8.23529 17.5H16.8965C17.2795 17.5 17.648 17.6465 17.9265 17.9095L20.5 20.34V9.5C20.5 9.22386 20.2761 9 20 9H16.7353V12.5C16.7353 13.3284 16.0637 14 15.2353 14L7.73529 14Z" fill="#272932"/>
</svg>
