<svg xmlns="http://www.w3.org/2000/svg" width="24" height="24" viewBox="0 0 24 24" fill="none">
  <path fill-rule="evenodd" clip-rule="evenodd" d="M4.01446 12H12V9.61499C10.875 9.56993 9.76628 9.373 8.72703 9.03095C7.58652 8.65557 6.54974 8.11196 5.67893 7.42733C4.71734 8.71825 4.11357 10.2914 4.01446 12ZM6.32265 6.66128C7.08819 7.25786 8.01005 7.7422 9.03967 8.08108C9.97577 8.38918 10.9786 8.56964 12 8.61412V4.01446C9.76698 4.14399 7.76525 5.13554 6.32265 6.66128ZM13 4.01446V8.61412C14.1404 8.56446 15.2549 8.34541 16.2775 7.97087C17.1817 7.63967 17.9928 7.19477 18.6774 6.66128C17.2347 5.13554 15.233 4.14399 13 4.01446ZM19.3211 7.42733C18.5409 8.04067 17.6263 8.54179 16.6214 8.90987C15.4852 9.32599 14.2538 9.56477 13 9.61499V12H20.9855C20.8864 10.2914 20.2827 8.71825 19.3211 7.42733ZM20.9855 13H13V15.385C14.2731 15.436 15.5233 15.6814 16.6741 16.1096C17.6588 16.476 18.555 16.9704 19.3211 17.5727C20.2827 16.2818 20.8864 14.7086 20.9855 13ZM18.6774 18.3387C18.0054 17.8151 17.2111 17.3764 16.3254 17.0468C15.2896 16.6614 14.1581 16.4363 13 16.3859V20.9855C15.233 20.856 17.2347 19.8645 18.6774 18.3387ZM12 20.9855V16.3859C10.8991 16.4338 9.82107 16.6397 8.82565 16.992C7.88017 17.3267 7.03335 17.7849 6.32265 18.3387C7.76525 19.8645 9.76698 20.856 12 20.9855ZM5.67893 17.5727C6.48845 16.9362 7.44261 16.4207 8.49198 16.0493C9.59745 15.658 10.7888 15.4335 12 15.385V13H4.01446C4.11357 14.7086 4.71734 16.2818 5.67893 17.5727ZM3 12.5C3 7.25329 7.25329 3 12.5 3C17.7467 3 22 7.25329 22 12.5C22 17.7467 17.7467 22 12.5 22C7.25329 22 3 17.7467 3 12.5Z" fill="#272932"/>
</svg>
