<svg xmlns="http://www.w3.org/2000/svg" width="24" height="24" viewBox="0 0 24 24" fill="none">
  <path fill-rule="evenodd" clip-rule="evenodd" d="M9.86335 2.5H9.92236C11.1539 2.5 12.118 2.49999 12.8806 2.58024C13.6574 2.66196 14.2862 2.83167 14.8193 3.21344C15.0769 3.39796 15.3085 3.6139 15.5077 3.85618C15.9239 4.3624 16.1101 4.96349 16.1991 5.70028C16.2857 6.41766 16.2857 7.32216 16.2857 8.46676V12.5332C16.2857 13.6778 16.2857 14.5823 16.1991 15.2997C16.1101 16.0365 15.9239 16.6376 15.5077 17.1438C15.3085 17.3861 15.0769 17.602 14.8193 17.7866C14.2862 18.1683 13.6574 18.338 12.8806 18.4198C12.118 18.5 11.1539 18.5 9.92235 18.5H9.86337C8.63179 18.5 7.66774 18.5 6.90508 18.4198C6.12835 18.338 5.49948 18.1683 4.96643 17.7866C4.70877 17.602 4.47718 17.3861 4.27799 17.1438C3.86181 16.6376 3.67563 16.0365 3.58664 15.2997C3.49999 14.5823 3.49999 13.6778 3.5 12.5333V8.46675C3.49999 7.32215 3.49999 6.41765 3.58664 5.70028C3.67563 4.96349 3.86181 4.3624 4.27799 3.85618C4.47718 3.6139 4.70877 3.39796 4.96643 3.21344C5.49948 2.83167 6.12835 2.66196 6.90508 2.58024C7.66773 2.49999 8.63178 2.5 9.86335 2.5ZM7.00972 3.57475C6.31348 3.64801 5.88125 3.78827 5.54868 4.02644C5.36063 4.16112 5.19327 4.31753 5.05045 4.49125C4.80241 4.79295 4.65648 5.18222 4.57942 5.8202C4.50085 6.47066 4.5 7.31477 4.5 8.5V12.5C4.5 13.6852 4.50085 14.5293 4.57942 15.1798C4.65648 15.8178 4.80241 16.2071 5.05045 16.5088C5.19327 16.6825 5.36063 16.8389 5.54868 16.9736C5.88125 17.2117 6.31348 17.352 7.00972 17.4253C7.71395 17.4994 8.62543 17.5 9.89286 17.5C11.1603 17.5 12.0718 17.4994 12.776 17.4253C13.4722 17.352 13.9045 17.2117 14.237 16.9736C14.4251 16.8389 14.5924 16.6825 14.7353 16.5088C14.9833 16.2071 15.1292 15.8178 15.2063 15.1798C15.2849 14.5293 15.2857 13.6852 15.2857 12.5V8.5C15.2857 7.31477 15.2849 6.47066 15.2063 5.8202C15.1292 5.18222 14.9833 4.79295 14.7353 4.49125C14.5924 4.31753 14.4251 4.16112 14.237 4.02644C13.9045 3.78827 13.4722 3.64801 12.776 3.57475C12.0718 3.50065 11.1603 3.5 9.89286 3.5C8.62543 3.5 7.71395 3.50065 7.00972 3.57475ZM18.5 17V9H19.5V17C19.5 19.5172 17.3243 21.5 14.7143 21.5H8.28571V20.5H14.7143C16.8381 20.5 18.5 18.9011 18.5 17Z" fill="#272932"/>
</svg>
