<svg xmlns="http://www.w3.org/2000/svg" width="24" height="24" viewBox="0 0 24 24" fill="none">
  <path fill-rule="evenodd" clip-rule="evenodd" d="M4.05882 3.5C3.75183 3.5 3.5 3.7502 3.5 4.0625V19.0931C3.5 19.2016 3.54296 19.3053 3.61887 19.3814L3.6964 19.4592C3.72262 19.4855 3.7578 19.5 3.79412 19.5C3.83044 19.5 3.86562 19.4855 3.89183 19.4592L6.13243 17.2109C6.70545 16.6359 7.483 16.3125 8.29412 16.3125H19.4118C20.0111 16.3125 20.5 15.8244 20.5 15.2188V4.0625C20.5 3.7502 20.2482 3.5 19.9412 3.5H4.05882ZM2.5 4.0625C2.5 3.20119 3.19628 2.5 4.05882 2.5H19.9412C20.8037 2.5 21.5 3.20119 21.5 4.0625V15.2188C21.5 16.3735 20.5667 17.3125 19.4118 17.3125H8.29412C7.74933 17.3125 7.22651 17.5296 6.84076 17.9167L4.60016 20.1651C4.38669 20.3793 4.09678 20.5 3.79412 20.5C3.49146 20.5 3.20155 20.3793 2.98807 20.1651L2.91054 20.0873C2.64748 19.8233 2.5 19.4657 2.5 19.0931V4.0625ZM8.32353 8.3125C8.32353 8.03636 8.54739 7.8125 8.82353 7.8125H15.1765C15.4526 7.8125 15.6765 8.03636 15.6765 8.3125C15.6765 8.58864 15.4526 8.8125 15.1765 8.8125H8.82353C8.54739 8.8125 8.32353 8.58864 8.32353 8.3125ZM8.32353 11.5C8.32353 11.2239 8.54739 11 8.82353 11H15.1765C15.4526 11 15.6765 11.2239 15.6765 11.5C15.6765 11.7761 15.4526 12 15.1765 12H8.82353C8.54739 12 8.32353 11.7761 8.32353 11.5Z" fill="#272932"/>
</svg>
