<svg xmlns="http://www.w3.org/2000/svg" width="24" height="24" viewBox="0 0 24 24" fill="none">
  <path fill-rule="evenodd" clip-rule="evenodd" d="M14.5941 5.11959C14.5849 5.12853 14.5758 5.13756 14.5667 5.14667C14.5606 5.15273 14.5546 5.15882 14.5486 5.16493C14.4973 5.21598 14.445 5.26836 14.3914 5.32197L5.68482 14.0285C5.67297 14.0404 5.66124 14.0521 5.64965 14.0636C5.4488 14.2642 5.28786 14.4249 5.1748 14.6246C5.06173 14.8243 5.00672 15.045 4.93807 15.3204C4.93411 15.3363 4.93011 15.3524 4.92604 15.3687L4.12513 18.5723C4.12279 18.5817 4.12045 18.591 4.11811 18.6004C4.06974 18.7936 4.02144 18.9866 4.00585 19.146C3.98893 19.3189 3.9959 19.5833 4.2063 19.7937C4.4167 20.0041 4.68106 20.0111 4.85401 19.9942C5.01343 19.9786 5.20638 19.9303 5.39962 19.8819L8.63135 19.074C8.6476 19.0699 8.66367 19.0659 8.67956 19.0619C8.95499 18.9933 9.17569 18.9383 9.37538 18.8252C9.57508 18.7121 9.73579 18.5512 9.93636 18.3503C9.94793 18.3388 9.95964 18.327 9.97149 18.3152L18.678 9.60863C18.7316 9.55504 18.784 9.50268 18.835 9.45145C18.8412 9.44545 18.8473 9.43942 18.8533 9.43334C18.8624 9.42423 18.8715 9.41506 18.8804 9.40585C19.1741 9.11037 19.4214 8.85286 19.6018 8.61647C19.8349 8.31094 20 7.98602 20 7.59177C20 7.19752 19.8349 6.87261 19.6018 6.56708C19.4214 6.33067 19.1741 6.07315 18.8804 5.77766C18.8715 5.76846 18.8624 5.7593 18.8533 5.7502L18.7256 5.62242C18.7098 5.6067 18.694 5.59086 18.6781 5.57493L18.4251 5.32195C18.4093 5.30617 18.3936 5.2905 18.3781 5.27494L18.2498 5.14667C18.2407 5.13756 18.2315 5.12853 18.2223 5.11958C17.9268 4.82593 17.6693 4.57859 17.4329 4.39822C17.1274 4.16511 16.8025 4 16.4082 4C16.014 4 15.6891 4.16511 15.3835 4.39822C15.1471 4.57859 14.8896 4.82593 14.5941 5.11959ZM16.7706 10.185C16.1866 10.131 15.6173 9.88048 15.1702 9.43334L14.5667 8.82982C14.1195 8.38268 13.869 7.81341 13.815 7.22939L6.35034 14.694C6.09772 14.9466 6.03591 15.014 5.99381 15.0883C5.95172 15.1627 5.92577 15.2503 5.83912 15.5969L5.03821 18.8006C5.01769 18.8827 5.00022 18.9526 4.98568 19.0143C5.04739 18.9998 5.11733 18.9823 5.19941 18.9618L8.40308 18.1609C8.74967 18.0742 8.83732 18.0483 8.91166 18.0062C8.98601 17.9641 9.05336 17.9023 9.30598 17.6497L16.7706 10.185ZM18.2128 8.74227C18.1985 8.75674 18.1839 8.77139 18.1691 8.78623C17.5182 9.41729 16.479 9.41115 15.8357 8.76783L15.2322 8.1643C14.5888 7.52097 14.5827 6.48175 15.2138 5.83087C15.2286 5.8161 15.2433 5.80153 15.2577 5.78717C15.9004 5.17101 16.916 5.17101 17.5587 5.78716C17.6248 5.85274 17.6947 5.92262 17.7691 5.99702C17.7736 6.00147 17.778 6.00593 17.7825 6.0104L17.9896 6.2175C17.9955 6.22337 18.0013 6.22922 18.0071 6.23503C18.08 6.30788 18.1485 6.37644 18.2128 6.44124C18.829 7.08395 18.829 8.09955 18.2128 8.74227Z" fill="#272932"/>
</svg>
