<svg xmlns="http://www.w3.org/2000/svg" width="24" height="24" viewBox="0 0 24 24" fill="none">
  <path fill-rule="evenodd" clip-rule="evenodd" d="M4 3.5C3.72386 3.5 3.5 3.72386 3.5 4V6.04025C3.5 6.171 3.55122 6.29655 3.64267 6.38999L8.82668 11.6864C9.01791 11.8818 9.125 12.1443 9.125 12.4177V19.9934C9.125 20.3361 9.46184 20.5772 9.78619 20.4667L14.5362 18.849L14.6974 19.3223L14.5362 18.849C14.7388 18.78 14.875 18.5898 14.875 18.3757V12.4177C14.875 12.1443 14.9821 11.8818 15.1733 11.6864L20.3573 6.38999C20.4488 6.29655 20.5 6.171 20.5 6.04025V4C20.5 3.72386 20.2761 3.5 20 3.5H4ZM2.5 4C2.5 3.17157 3.17157 2.5 4 2.5H20C20.8284 2.5 21.5 3.17157 21.5 4V6.04025C21.5 6.4325 21.3463 6.80915 21.072 7.08947L15.888 12.3859C15.8797 12.3944 15.875 12.4058 15.875 12.4177V18.3757C15.875 19.0178 15.4664 19.5887 14.8586 19.7957L10.1086 21.4133C9.13551 21.7447 8.125 21.0213 8.125 19.9934V12.4177C8.125 12.4058 8.12034 12.3944 8.11203 12.3859L2.92802 7.08947C2.65365 6.80915 2.5 6.4325 2.5 6.04025V4Z" fill="#272932"/>
</svg>
