<svg xmlns="http://www.w3.org/2000/svg" width="24" height="24" viewBox="0 0 24 24" fill="none">
  <path fill-rule="evenodd" clip-rule="evenodd" d="M6.52354 16.7724C12.2604 16.7724 16.623 11.2835 16.623 4.9007C16.623 4.87746 16.623 4.85426 16.6229 4.83109C18.67 6.36115 20 8.81674 20 11.5915C20 16.2453 16.2704 19.9999 11.6936 19.9999C8.98875 19.9999 6.58532 18.6877 5.06878 16.65C5.54361 16.7306 6.02936 16.7724 6.52354 16.7724ZM4.32367 15.4518C4.30481 15.4463 4.28599 15.4406 4.26718 15.4348C4.15833 15.4016 4.05027 15.3661 3.94303 15.3283C3.8614 15.2995 3.78025 15.2694 3.69958 15.238C3.44529 15.1389 3.18187 15.3855 3.29826 15.6323C3.34285 15.7269 3.38896 15.8206 3.43653 15.9134C3.48878 16.0153 3.5428 16.1161 3.59856 16.2158C3.61053 16.2372 3.6226 16.2586 3.63473 16.2799C5.2406 19.0992 8.24391 20.9999 11.6936 20.9999C16.833 20.9999 21 16.7872 21 11.5915C21 8.19812 19.2196 5.22911 16.5544 3.575C16.5495 3.57201 16.5447 3.56902 16.5399 3.56605C16.4787 3.5282 16.417 3.49105 16.3548 3.45461C16.2279 3.38016 16.0991 3.30864 15.9684 3.24015C15.7584 3.13004 15.5195 3.30824 15.5455 3.54398C15.5611 3.68522 15.5746 3.82721 15.5858 3.96999C15.591 4.0361 15.5957 4.10238 15.5998 4.16883C15.6 4.17158 15.6002 4.17433 15.6003 4.17708C15.6151 4.41597 15.623 4.6571 15.623 4.9007C15.623 10.9052 11.5488 15.7724 6.52354 15.7724C5.76497 15.7724 5.02816 15.661 4.32367 15.4518Z" fill="#272932"/>
</svg>
