<svg width="20" height="18" viewBox="0 0 20 18" fill="none" xmlns="http://www.w3.org/2000/svg">
<path fill-rule="evenodd" clip-rule="evenodd" d="M10.5811 1.49852C10.1751 1.28695 9.71893 1.28695 9.31297 1.49852L1.50476 5.56783C1.5025 5.57453 1.5 5.58546 1.5 5.59982C1.5 5.61418 1.5025 5.62512 1.50476 5.63182L9.31297 9.70112C9.71893 9.9127 10.1751 9.9127 10.581 9.70113L18.3893 5.63182C18.3915 5.62512 18.394 5.61418 18.394 5.59982C18.394 5.58546 18.3915 5.57453 18.3893 5.56783L10.5811 1.49852ZM18.4036 5.57531C18.4036 5.57528 18.4035 5.57524 18.4034 5.57521L18.4036 5.57531ZM8.85081 0.611725C9.54639 0.249216 10.3476 0.249217 11.0432 0.611726L18.8658 4.68851C19.1025 4.81187 19.2499 5.0104 19.327 5.22157C19.433 5.31325 19.5 5.4487 19.5 5.59982V10.5954C19.5 10.8715 19.2761 11.0954 19 11.0954C18.7239 11.0954 18.5 10.8715 18.5 10.5954V6.70176L16.2519 7.87339C16.2857 7.94083 16.3048 8.01699 16.3048 8.09761V14.3421C16.3048 14.3771 16.3011 14.412 16.2938 14.4463L15.8048 14.3421C16.2938 14.4463 16.2937 14.4468 16.2936 14.4473L16.2934 14.4484L16.2929 14.4507L16.2917 14.456L16.2885 14.4694C16.286 14.4795 16.2827 14.4921 16.2785 14.5068C16.2701 14.5364 16.258 14.5749 16.2412 14.621C16.2074 14.7134 16.1544 14.8364 16.0731 14.9795C15.9097 15.2668 15.6348 15.63 15.1808 15.9849C14.27 16.6969 12.6862 17.3398 9.94701 17.3398C7.20782 17.3398 5.62402 16.6969 4.71318 15.9849C4.2592 15.63 3.98428 15.2668 3.82094 14.9795C3.73961 14.8364 3.6866 14.7134 3.65286 14.621C3.63599 14.5749 3.62392 14.5364 3.61553 14.5068C3.61133 14.4921 3.60805 14.4795 3.60554 14.4694L3.60233 14.456L3.60113 14.4507L3.60063 14.4484L3.6004 14.4473C3.60029 14.4468 3.60018 14.4463 4.08919 14.3421L3.60018 14.4463C3.59288 14.412 3.58919 14.3771 3.58919 14.3421V8.09761C3.58919 8.01699 3.60827 7.94083 3.64216 7.8734L1.02824 6.51113L1.25932 6.06774L1.02824 6.51113C0.650295 6.31416 0.5 5.9255 0.5 5.59982C0.5 5.27415 0.650296 4.88548 1.02824 4.68851L8.85081 0.611725ZM4.58919 8.36695V14.2697C4.5901 14.2723 4.59107 14.275 4.59209 14.2777C4.60827 14.322 4.63847 14.3941 4.69027 14.4852C4.79319 14.6663 4.98424 14.9275 5.32906 15.197C6.0158 15.7339 7.36091 16.3398 9.94701 16.3398C12.5331 16.3398 13.8782 15.7339 14.565 15.197C14.9098 14.9275 15.1008 14.6663 15.2037 14.4852C15.2555 14.3941 15.2857 14.322 15.3019 14.2777C15.3029 14.275 15.3039 14.2723 15.3048 14.2697V8.36695L11.0432 10.5879C10.3476 10.9504 9.54639 10.9504 8.85081 10.5879L4.58919 8.36695Z" fill="#737782"/>
</svg>
