<svg xmlns="http://www.w3.org/2000/svg" width="24" height="24" viewBox="0 0 24 24" fill="none">
  <path d="M20.5492 9.17878C20.3803 8.98791 20.1727 8.83505 19.9401 8.73034C19.7075 8.62563 19.4552 8.57146 19.2 8.57143H14.4546V7.10204C14.4546 6.27933 14.127 5.49031 13.5439 4.90857C12.9609 4.32682 12.17 4 11.3455 4C11.2542 3.99997 11.1648 4.02532 11.0872 4.07319C11.0096 4.12106 10.9469 4.18957 10.9061 4.27102L7.76919 10.5306H4.14546C3.84166 10.5306 3.55031 10.651 3.3355 10.8653C3.12068 11.0797 3 11.3704 3 11.6735V18.8571C3 19.1602 3.12068 19.4509 3.3355 19.6653C3.55031 19.8796 3.84166 20 4.14546 20H18.2182C18.6569 20 19.0805 19.8401 19.4094 19.5505C19.7383 19.2608 19.9499 18.8613 20.0043 18.4269L20.9861 10.5902C21.0178 10.3375 20.9952 10.0809 20.9198 9.83759C20.8445 9.59425 20.7182 9.36968 20.5492 9.17878ZM3.98182 18.8571V11.6735C3.98182 11.6302 3.99906 11.5886 4.02975 11.558C4.06044 11.5274 4.10206 11.5102 4.14546 11.5102H7.58182V19.0204H4.14546C4.10206 19.0204 4.06044 19.0032 4.02975 18.9726C3.99906 18.942 3.98182 18.9004 3.98182 18.8571ZM20.0117 10.4686L19.0298 18.3053C19.0051 18.5027 18.909 18.6843 18.7595 18.816C18.6101 18.9477 18.4176 19.0204 18.2182 19.0204H8.56364V11.1363L11.6384 5C12.1469 5.07053 12.6127 5.32218 12.9498 5.70851C13.287 6.09484 13.4727 6.58979 13.4727 7.10204V9.06122C13.4727 9.19113 13.5245 9.31571 13.6165 9.40756C13.7086 9.49942 13.8335 9.55102 13.9637 9.55102H19.2C19.316 9.55105 19.4307 9.57569 19.5364 9.6233C19.6421 9.67091 19.7365 9.74041 19.8132 9.82718C19.89 9.91394 19.9474 10.016 19.9816 10.1266C20.0158 10.2372 20.026 10.3537 20.0117 10.4686Z" fill="#272932"/>
</svg>
