<svg xmlns="http://www.w3.org/2000/svg" width="24" height="24" viewBox="0 0 24 24" fill="none">
  <path fill-rule="evenodd" clip-rule="evenodd" d="M13.6283 5.40781L11.8347 7.20136C11.6394 7.39662 11.3228 7.39661 11.1275 7.20135C10.9323 7.00608 10.9323 6.6895 11.1276 6.49424L12.9297 4.69211C12.9353 4.68658 12.9409 4.68118 12.9467 4.67591C13.805 3.89469 14.9312 3.47402 16.0914 3.50124C17.2517 3.52846 18.3569 4.00148 19.1776 4.82208C19.9983 5.64269 20.4714 6.74784 20.4987 7.90809C20.5261 9.06833 20.1055 10.1945 19.3243 11.0528C19.3188 11.0589 19.3132 11.0647 19.3074 11.0705L16.7325 13.6362C16.7324 13.6364 16.7322 13.6365 16.732 13.6367C15.8904 14.481 14.7479 14.9566 13.5557 14.9588C12.3632 14.961 11.2187 14.4895 10.3739 13.648L10.3732 13.6473L10.3627 13.6368C10.1674 13.4415 10.1674 13.125 10.3627 12.9297C10.558 12.7344 10.8745 12.7344 11.0698 12.9297L11.0796 12.9395C11.7366 13.5939 12.6265 13.9605 13.5538 13.9588C14.4811 13.9571 15.3697 13.5871 16.0242 12.9303L16.0254 12.9291L18.5927 10.371C19.1957 9.70393 19.5202 8.83091 19.499 7.93162C19.4778 7.0284 19.1094 6.16806 18.4705 5.52923C17.8316 4.8904 16.9712 4.52216 16.068 4.50097C15.1685 4.47987 14.2953 4.80453 13.6283 5.40781ZM12.9204 11.0605C12.2634 10.4061 11.3735 10.0395 10.4462 10.0412C9.51893 10.0429 8.63033 10.4129 7.97583 11.0697L7.97457 11.0709L5.40734 13.629C4.80429 14.2961 4.4798 15.1691 4.50097 16.0684C4.52224 16.9716 4.89055 17.8319 5.52945 18.4708C6.16835 19.1096 7.02875 19.4778 7.93201 19.499C8.83149 19.5201 9.70464 19.1955 10.3717 18.5922L12.1653 16.7986C12.3606 16.6034 12.6772 16.6034 12.8724 16.7987C13.0677 16.9939 13.0677 17.3105 12.8724 17.5058L11.0703 19.3079C11.0647 19.3134 11.0591 19.3188 11.0533 19.3241C10.195 20.1053 9.06882 20.526 7.90856 20.4988C6.74829 20.4715 5.64308 19.9985 4.82238 19.1779C4.00169 18.3573 3.52857 17.2522 3.50125 16.0919C3.47394 14.9317 3.89453 13.8055 4.6757 12.9472C4.68118 12.9411 4.6868 12.9353 4.69256 12.9295L7.26748 10.3638C7.26767 10.3636 7.26786 10.3634 7.26806 10.3632C8.10969 9.51894 9.25217 9.0434 10.4443 9.04118C11.6368 9.03896 12.7813 9.51047 13.6261 10.352L13.6268 10.3527L13.6373 10.3632C13.8326 10.5585 13.8326 10.875 13.6373 11.0703C13.442 11.2656 13.1255 11.2656 12.9302 11.0703L12.9204 11.0605Z" fill="#272932"/>
</svg>
