<svg xmlns="http://www.w3.org/2000/svg" width="24" height="24" viewBox="0 0 24 24" fill="none">
  <path fill-rule="evenodd" clip-rule="evenodd" d="M3 12.5C3 7.25329 7.25329 3 12.5 3C17.7467 3 22 7.25329 22 12.5C22 17.7467 17.7467 22 12.5 22C7.25329 22 3 17.7467 3 12.5ZM12.5 4C7.80558 4 4 7.80558 4 12.5C4 17.1944 7.80558 21 12.5 21C17.1944 21 21 17.1944 21 12.5C21 7.80558 17.1944 4 12.5 4ZM7 12.5C7 11.6716 7.67157 11 8.5 11C9.32843 11 10 11.6716 10 12.5C10 13.3284 9.32843 14 8.5 14C7.67157 14 7 13.3284 7 12.5ZM8.5 12C8.22386 12 8 12.2239 8 12.5C8 12.7761 8.22386 13 8.5 13C8.77614 13 9 12.7761 9 12.5C9 12.2239 8.77614 12 8.5 12ZM11 12.5C11 11.6716 11.6716 11 12.5 11C13.3284 11 14 11.6716 14 12.5C14 13.3284 13.3284 14 12.5 14C11.6716 14 11 13.3284 11 12.5ZM12.5 12C12.2239 12 12 12.2239 12 12.5C12 12.7761 12.2239 13 12.5 13C12.7761 13 13 12.7761 13 12.5C13 12.2239 12.7761 12 12.5 12ZM15 12.5C15 11.6716 15.6716 11 16.5 11C17.3284 11 18 11.6716 18 12.5C18 13.3284 17.3284 14 16.5 14C15.6716 14 15 13.3284 15 12.5ZM16.5 12C16.2239 12 16 12.2239 16 12.5C16 12.7761 16.2239 13 16.5 13C16.7761 13 17 12.7761 17 12.5C17 12.2239 16.7761 12 16.5 12Z" fill="#272932"/>
</svg>
