<svg xmlns="http://www.w3.org/2000/svg" width="24" height="24" viewBox="0 0 24 24" fill="none">
  <path fill-rule="evenodd" clip-rule="evenodd" d="M12.5 3.5C7.52944 3.5 3.5 7.52944 3.5 12.5C3.5 17.4706 7.52944 21.5 12.5 21.5C17.4706 21.5 21.5 17.4706 21.5 12.5C21.5 7.52944 17.4706 3.5 12.5 3.5ZM2.5 12.5C2.5 6.97715 6.97715 2.5 12.5 2.5C18.0228 2.5 22.5 6.97715 22.5 12.5C22.5 18.0228 18.0228 22.5 12.5 22.5C6.97715 22.5 2.5 18.0228 2.5 12.5ZM7.77778 9.27173C7.77778 7.95842 9.15986 7.10425 10.3345 7.69158L17.1687 11.1087C18.3152 11.6819 18.3152 13.3181 17.1687 13.8913L10.3345 17.3084C9.15987 17.8958 7.77778 17.0416 7.77778 15.7283V9.27173ZM9.88731 8.586C9.37755 8.33113 8.77778 8.70181 8.77778 9.27173V15.7283C8.77778 16.2982 9.37755 16.6689 9.88731 16.414L16.7215 12.9969C17.131 12.7922 17.131 12.2078 16.7215 12.0031L9.88731 8.586Z" fill="#272932"/>
</svg>
