<svg xmlns="http://www.w3.org/2000/svg" width="24" height="24" viewBox="0 0 24 24" fill="none">
  <path fill-rule="evenodd" clip-rule="evenodd" d="M11.5126 4.03517C11.2399 4.52605 10.9463 5.27879 10.53 6.35063L10.4824 6.47308C10.2585 7.04955 10.077 7.51685 9.89057 7.88315C9.69668 8.26409 9.47893 8.57481 9.16215 8.81804C8.84437 9.06203 8.49055 9.1893 8.07731 9.27217C7.68203 9.35144 7.19467 9.3965 6.59706 9.45177L6.34613 9.47497C5.31368 9.57046 4.59734 9.63806 4.10726 9.7575C3.60855 9.87904 3.5361 10.0093 3.51287 10.0806C3.48759 10.1582 3.47436 10.3169 3.80334 10.7284C4.12537 11.1312 4.65817 11.6335 5.42426 12.3533L5.92748 12.8261C5.95613 12.853 5.98443 12.8796 6.01235 12.9058C6.6932 13.5449 7.15604 13.9793 7.3755 14.5591C7.41622 14.6667 7.45005 14.7769 7.47679 14.8889C7.62043 15.4908 7.48555 16.1172 7.28564 17.0457C7.27751 17.0834 7.26928 17.1217 7.26095 17.1604L7.19138 17.4842C6.98348 18.4519 6.83667 19.1384 6.78229 19.636C6.72414 20.1681 6.79803 20.3035 6.82227 20.3313C6.89343 20.4132 6.98408 20.4701 7.08222 20.4977C7.10074 20.503 7.23654 20.521 7.67166 20.228C8.07619 19.9556 8.60293 19.5133 9.34758 18.8866L9.36656 18.8707C9.8331 18.478 10.2103 18.1606 10.5406 17.9325C10.8826 17.6963 11.2119 17.5284 11.5903 17.466C11.8622 17.4212 12.1392 17.4212 12.4111 17.466C12.7895 17.5284 13.1189 17.6963 13.4608 17.9325C13.7911 18.1606 14.1683 18.478 14.6348 18.8706L14.6538 18.8866C15.3985 19.5133 15.9252 19.9556 16.3297 20.228C16.7649 20.521 16.9007 20.503 16.9192 20.4977C17.0173 20.4701 17.108 20.4132 17.1791 20.3313C17.2034 20.3035 17.2773 20.1681 17.2191 19.636C17.1647 19.1384 17.0179 18.4519 16.81 17.4842L16.7405 17.1604C16.7321 17.1217 16.7239 17.0834 16.7158 17.0457C16.5159 16.1172 16.381 15.4908 16.5246 14.8889C16.5514 14.7769 16.5852 14.6667 16.6259 14.5591C16.8454 13.9793 17.3082 13.5449 17.9891 12.9058C18.017 12.8796 18.0453 12.853 18.0739 12.8261L18.5771 12.3533C19.3432 11.6335 19.876 11.1312 20.1981 10.7284C20.527 10.3169 20.5138 10.1582 20.4885 10.0806C20.4653 10.0093 20.3929 9.87904 19.8941 9.7575C19.4041 9.63806 18.6877 9.57046 17.6553 9.47497L17.4043 9.45177C16.8067 9.3965 16.3194 9.35144 15.9241 9.27217C15.5108 9.1893 15.157 9.06203 14.8393 8.81804C14.5225 8.57481 14.3047 8.26409 14.1108 7.88315C13.9244 7.51685 13.7429 7.04954 13.519 6.47305L13.4714 6.35063C13.0551 5.27879 12.7615 4.52605 12.4888 4.03517C12.2021 3.51882 12.0504 3.5 12.0007 3.5C11.951 3.5 11.7993 3.51882 11.5126 4.03517ZM10.6383 3.54963C10.9384 3.00944 11.3447 2.5 12.0007 2.5C12.6567 2.5 13.063 3.00944 13.3631 3.54963C13.6732 4.10795 13.9908 4.92582 14.3879 5.94819L14.4418 6.08696C14.6773 6.6932 14.8411 7.11333 15.002 7.42954C15.1581 7.73618 15.2925 7.90531 15.4483 8.02487C15.603 8.14368 15.7956 8.22649 16.1207 8.29169C16.4579 8.35932 16.8924 8.40015 17.5231 8.45848L17.792 8.48335C18.7693 8.57372 19.5602 8.64685 20.1309 8.78594C20.7017 8.92503 21.2454 9.17526 21.4394 9.77092C21.6313 10.3603 21.3497 10.8892 20.9791 11.3528C20.607 11.8183 20.0206 12.3692 19.2936 13.0523L18.7587 13.5549C17.9595 14.3057 17.6884 14.5768 17.5612 14.9131C17.5355 14.9808 17.5142 15.0503 17.4973 15.121C17.4129 15.4745 17.4843 15.8619 17.7181 16.9504L17.7945 17.3055C17.9941 18.235 18.1525 18.9722 18.2132 19.5274C18.2708 20.0543 18.2681 20.6031 17.9337 20.9876C17.7369 21.2139 17.4792 21.3789 17.1904 21.4602C16.6912 21.6009 16.2006 21.3466 15.7712 21.0575C15.3167 20.7514 14.7489 20.2737 14.0355 19.6733L14.01 19.6518C13.5199 19.2394 13.1789 18.9531 12.8925 18.7553C12.6132 18.5624 12.4241 18.4816 12.2484 18.4527C12.0843 18.4256 11.9171 18.4256 11.753 18.4527C11.5773 18.4816 11.3882 18.5624 11.1089 18.7553C10.8225 18.9531 10.4815 19.2394 9.99145 19.6518L9.9659 19.6733C9.25245 20.2737 8.68473 20.7514 8.23018 21.0575C7.80081 21.3466 7.31021 21.6009 6.81099 21.4602C6.5222 21.3789 6.26454 21.2139 6.0677 20.9876C5.73334 20.6031 5.73062 20.0543 5.78821 19.5274C5.84888 18.9722 6.00726 18.235 6.20696 17.3055L6.28326 16.9504C6.5171 15.8619 6.58846 15.4745 6.5041 15.121C6.48722 15.0503 6.46588 14.9808 6.44025 14.9131C6.31296 14.5768 6.04191 14.3057 5.24274 13.5549L4.70784 13.0523C3.98082 12.3693 3.39443 11.8183 3.02226 11.3528C2.65166 10.8892 2.37009 10.3603 2.56203 9.77092C2.75601 9.17526 3.29975 8.92503 3.87048 8.78594C4.44117 8.64685 5.23213 8.57372 6.20938 8.48335L6.4783 8.45848C7.10903 8.40015 7.54345 8.35932 7.8807 8.29169C8.20584 8.22649 8.39841 8.14368 8.55314 8.02487C8.70886 7.90531 8.84329 7.73618 8.99937 7.42954C9.16031 7.11333 9.32413 6.6932 9.5596 6.08696L9.61349 5.9482C10.0106 4.92583 10.3282 4.10795 10.6383 3.54963Z" fill="#272932"/>
</svg>
