<svg xmlns="http://www.w3.org/2000/svg" width="24" height="24" viewBox="0 0 24 24" fill="none">
  <path d="M3.50563 17.7984C3.22638 17.7984 3 17.572 3 17.2927V7C3 6.44771 3.44772 6 4 6H6.57458C7.36052 6 8.01667 6.1517 8.54304 6.45511C9.07301 6.75468 9.47138 7.17139 9.73817 7.70523C10.0086 8.23524 10.1438 8.84398 10.1438 9.53145C10.1438 10.2189 10.0086 10.8257 9.73817 11.3519C9.47138 11.8781 9.07481 12.289 8.54845 12.5847C8.02208 12.8805 7.36954 13.0283 6.59081 13.0283L4.01127 13.0283L4 12L6.56377 12.0432C7.1406 12.0432 7.6201 11.9414 8.00225 11.7379C8.38801 11.5343 8.67463 11.2444 8.8621 10.868C9.05318 10.4916 9.14872 10.0461 9.14872 9.53145C9.14872 9.0168 9.05318 8.56745 8.8621 8.18339C8.67102 7.79549 8.38261 7.49592 7.99685 7.28469C7.61469 7.07345 7.13159 6.96783 6.54754 6.96783H4.01127V17.2927C4.01127 17.572 3.78489 17.7984 3.50563 17.7984ZM7.99685 12.8257L10.2218 17.0425C10.3987 17.388 10.1478 17.7984 9.75965 17.7984C9.56402 17.7984 9.385 17.6884 9.29654 17.5139L7 13L7.99685 12.8257Z" fill="#272932"/>
  <path d="M19.9887 6.50563C19.9887 6.22638 20.2151 6 20.4944 6C20.7736 6 21 6.22638 21 6.50563V13.8118C21 14.6145 20.8233 15.3327 20.47 15.9664C20.1167 16.5963 19.6246 17.0936 18.9937 17.4585C18.3664 17.8195 17.6363 18 16.8035 18C15.9743 18 15.2443 17.8176 14.6133 17.4527C13.9824 17.0879 13.4903 16.5905 13.137 15.9606C12.7837 15.3308 12.607 14.6145 12.607 13.8118V6.50563C12.607 6.22638 12.8334 6 13.1127 6C13.3919 6 13.6183 6.22638 13.6183 6.50563V13.7369C13.6183 14.3629 13.7499 14.9217 14.0131 15.4133C14.2762 15.9011 14.6458 16.2852 15.1217 16.5655C15.6012 16.8459 16.1618 16.9861 16.8035 16.9861C17.4452 16.9861 18.0059 16.8459 18.4854 16.5655C18.9648 16.2852 19.3344 15.9011 19.594 15.4133C19.8571 14.9217 19.9887 14.3629 19.9887 13.7369V6.50563Z" fill="#272932"/>
</svg>
