<svg xmlns="http://www.w3.org/2000/svg" width="24" height="24" viewBox="0 0 24 24" fill="none">
  <path fill-rule="evenodd" clip-rule="evenodd" d="M10.7 4C6.99969 4 4 6.99969 4 10.7C4 14.4003 6.99969 17.4 10.7 17.4C12.5135 17.4 14.1586 16.6795 15.3649 15.5092C15.3659 15.5082 15.3669 15.5073 15.3679 15.5063C16.6213 14.2888 17.4 12.5854 17.4 10.7C17.4 6.99969 14.4003 4 10.7 4ZM16.4194 15.8556C17.6505 14.4907 18.4 12.6829 18.4 10.7C18.4 6.44741 14.9526 3 10.7 3C6.44741 3 3 6.44741 3 10.7C3 14.9526 6.44741 18.4 10.7 18.4C12.6097 18.4 14.3571 17.7048 15.7028 16.5536L21.1512 21.8582C21.3491 22.0509 21.6656 22.0467 21.8582 21.8488C22.0509 21.6509 22.0467 21.3344 21.8488 21.1418L16.4194 15.8556Z" fill="#222222"/>
</svg>
