<svg xmlns="http://www.w3.org/2000/svg" width="24" height="24" viewBox="0 0 24 24" fill="none">
  <path fill-rule="evenodd" clip-rule="evenodd" d="M11.6464 2.64645C11.8417 2.45118 12.1583 2.45118 12.3536 2.64645L15.3536 5.64645C15.5488 5.84171 15.5488 6.15829 15.3536 6.35355C15.1583 6.54882 14.8417 6.54882 14.6464 6.35355L12.5 4.20711V15C12.5 15.2761 12.2761 15.5 12 15.5C11.7239 15.5 11.5 15.2761 11.5 15V4.20711L9.35355 6.35355C9.15829 6.54882 8.84171 6.54882 8.64645 6.35355C8.45118 6.15829 8.45118 5.84171 8.64645 5.64645L11.6464 2.64645ZM3.5 11C3.5 10.1716 4.17157 9.5 5 9.5H6C6.27614 9.5 6.5 9.72386 6.5 10C6.5 10.2761 6.27614 10.5 6 10.5H5C4.72386 10.5 4.5 10.7239 4.5 11V19C4.5 19.3978 4.65804 19.7794 4.93934 20.0607C5.22064 20.342 5.60218 20.5 6 20.5H18C18.3978 20.5 18.7794 20.342 19.0607 20.0607C19.342 19.7794 19.5 19.3978 19.5 19V11C19.5 10.7239 19.2761 10.5 19 10.5H18C17.7239 10.5 17.5 10.2761 17.5 10C17.5 9.72386 17.7239 9.5 18 9.5H19C19.8284 9.5 20.5 10.1716 20.5 11V19C20.5 19.663 20.2366 20.2989 19.7678 20.7678C19.2989 21.2366 18.663 21.5 18 21.5H6C5.33696 21.5 4.70107 21.2366 4.23223 20.7678C3.76339 20.2989 3.5 19.663 3.5 19V11Z" fill="#272932"/>
</svg>
