<svg xmlns="http://www.w3.org/2000/svg" width="24" height="24" viewBox="0 0 24 24" fill="none">
  <path fill-rule="evenodd" clip-rule="evenodd" d="M2.5 4C2.5 3.72386 2.72386 3.5 3 3.5H21C21.2761 3.5 21.5 3.72386 21.5 4C21.5 4.27614 21.2761 4.5 21 4.5H3C2.72386 4.5 2.5 4.27614 2.5 4ZM2.5 12C2.5 11.7239 2.72386 11.5 3 11.5H15.8571C16.1333 11.5 16.3571 11.7239 16.3571 12C16.3571 12.2761 16.1333 12.5 15.8571 12.5H3C2.72386 12.5 2.5 12.2761 2.5 12ZM2.5 20C2.5 19.7239 2.72386 19.5 3 19.5H10.7143C10.9904 19.5 11.2143 19.7239 11.2143 20C11.2143 20.2761 10.9904 20.5 10.7143 20.5H3C2.72386 20.5 2.5 20.2761 2.5 20Z" fill="#272932"/>
</svg>
