<svg xmlns="http://www.w3.org/2000/svg" width="24" height="24" viewBox="0 0 24 24" fill="none">
  <path d="M17.4344 4.33738C17.6218 4.15082 17.9247 4.15083 18.112 4.3374L20.2885 6.505C20.681 6.89585 20.681 7.53126 20.2885 7.92211L18.112 10.0897C17.9247 10.2763 17.6218 10.2763 17.4344 10.0897C17.246 9.90206 17.246 9.59696 17.4344 9.40928L19.1581 7.69268H17.6449C16.6012 7.69268 15.8494 7.69311 15.253 7.74548C14.6646 7.79714 14.2655 7.89695 13.9236 8.07528C13.61 8.23881 13.3242 8.45056 13.0768 8.70274C12.9333 8.84901 12.6662 8.81769 12.5864 8.62891C12.5461 8.5335 12.5044 8.43922 12.4606 8.34527C12.3882 8.19007 12.4122 8.004 12.5378 7.88755C12.8189 7.62685 13.1359 7.40434 13.4773 7.22635C13.9739 6.96741 14.5118 6.84859 15.1684 6.79094C15.812 6.73442 16.6061 6.73442 17.6219 6.73443H19.1581L17.4344 5.01782C17.246 4.83015 17.246 4.52504 17.4344 4.33738Z" fill="#272932"/>
  <path d="M9.89712 15.6645C9.96931 15.8196 9.94543 16.0056 9.82001 16.1221C9.53887 16.3831 9.22163 16.6052 8.88014 16.7833C8.38353 17.0422 7.84562 17.161 7.18901 17.2187C6.54539 17.2752 5.75136 17.2752 4.73551 17.2752H3.47913C3.21451 17.2752 3 17.0606 3 16.796C3 16.5314 3.21451 16.3169 3.47913 16.3169H4.71257C5.75626 16.3169 6.50802 16.3165 7.1045 16.2641C7.69281 16.2125 8.09182 16.1127 8.43384 15.9344C8.74746 15.7708 9.03323 15.559 9.28062 15.3069C9.42414 15.1606 9.69145 15.1918 9.77127 15.3805C9.81161 15.4759 9.85349 15.5707 9.89712 15.6645Z" fill="#272932"/>
  <path d="M4.71257 7.68306C5.75626 7.68306 6.50803 7.68349 7.1045 7.73587C7.69281 7.78753 8.09183 7.88734 8.43383 8.06566C8.74746 8.22919 9.03322 8.44094 9.28063 8.69312C9.55041 8.96812 9.76108 9.32006 9.97981 9.8664C10.2016 10.4203 10.418 11.1373 10.7179 12.1329L10.7244 12.1544C11.0163 13.1236 11.2445 13.8811 11.4838 14.4789C11.728 15.0887 11.9968 15.5677 12.3885 15.967C12.7066 16.2911 13.074 16.5634 13.4773 16.7737C13.9739 17.0326 14.5118 17.1514 15.1684 17.2091C15.812 17.2656 16.6061 17.2656 17.622 17.2656H19.1581L17.4344 18.9822C17.246 19.1699 17.246 19.4749 17.4344 19.6626C17.6218 19.8492 17.9247 19.8492 18.112 19.6626L20.2885 17.495C20.681 17.1042 20.681 16.4687 20.2885 16.0779L18.112 13.9103C17.9247 13.7237 17.6217 13.7237 17.4344 13.9103C17.246 14.098 17.246 14.403 17.4344 14.5907L19.1581 16.3073H17.6449C16.6012 16.3073 15.8494 16.3069 15.2529 16.2545C14.6646 16.2029 14.2656 16.1031 13.9236 15.9247C13.6101 15.7613 13.3243 15.5495 13.0768 15.2973C12.807 15.0223 12.5963 14.6703 12.3776 14.124C12.1558 13.5701 11.9394 12.8531 11.6395 11.8575L11.6331 11.8362C11.3411 10.8669 11.1129 10.1093 10.8736 9.5115C10.6295 8.90173 10.3606 8.42275 9.96886 8.02345C9.65078 7.69922 9.28337 7.42698 8.88013 7.21673C8.38353 6.95779 7.84561 6.83897 7.18901 6.78132C6.54539 6.7248 5.75136 6.72481 4.73552 6.72481H3.47913C3.21451 6.72481 3 6.93932 3 7.20393C3 7.46855 3.21451 7.68306 3.47913 7.68306H4.71257Z" fill="#272932"/>
</svg>
