<svg xmlns="http://www.w3.org/2000/svg" width="24" height="24" viewBox="0 0 24 24" fill="none">
  <path fill-rule="evenodd" clip-rule="evenodd" d="M12 2.5C12.2761 2.5 12.5 2.72386 12.5 3V7.02469C13.5055 7.12452 14.4234 7.52224 15.1641 8.12834L18.0104 5.28207C18.2057 5.0868 18.5223 5.0868 18.7175 5.28207C18.9128 5.47733 18.9128 5.79391 18.7175 5.98917L15.8713 8.83541C16.4776 9.57624 16.8755 10.4943 16.9753 11.5H21C21.2761 11.5 21.5 11.7239 21.5 12C21.5 12.2761 21.2761 12.5 21 12.5H16.9753C16.8755 13.5055 16.4777 14.4235 15.8716 15.1642L18.7174 18.0101C18.9127 18.2053 18.9127 18.5219 18.7174 18.7172C18.5222 18.9124 18.2056 18.9124 18.0103 18.7172L15.1645 15.8713C14.4237 16.4776 13.5057 16.8755 12.5 16.9753V21C12.5 21.2761 12.2761 21.5 12 21.5C11.7239 21.5 11.5 21.2761 11.5 21V16.9753C10.4943 16.8755 9.5763 16.4776 8.83548 15.8713L5.98966 18.7172C5.7944 18.9124 5.47781 18.9124 5.28255 18.7172C5.08729 18.5219 5.08729 18.2053 5.28255 18.0101L8.1284 15.1642C7.52226 14.4235 7.12452 13.5055 7.02469 12.5H3C2.72386 12.5 2.5 12.2761 2.5 12C2.5 11.7239 2.72386 11.5 3 11.5H7.02469C7.12454 10.4943 7.5224 9.57624 8.12871 8.83541L5.28248 5.98917C5.08722 5.79391 5.08722 5.47733 5.28248 5.28207C5.47774 5.0868 5.79432 5.0868 5.98959 5.28207L8.83586 8.12834C9.57661 7.52224 10.4945 7.12452 11.5 7.02469V3C11.5 2.72386 11.7239 2.5 12 2.5ZM9.18286 14.8397C9.17919 14.8358 9.17545 14.8319 9.17164 14.8281C9.16783 14.8243 9.16398 14.8206 9.16009 14.8169C8.44298 14.094 8 13.0987 8 12C8 9.79086 9.79086 8 12 8C14.2091 8 16 9.79086 16 12C16 13.0987 15.557 14.094 14.8399 14.8169C14.836 14.8205 14.8322 14.8243 14.8284 14.8281C14.8245 14.8319 14.8208 14.8358 14.8171 14.8397C14.0942 15.5569 13.0988 16 12 16C10.9012 16 9.90581 15.5569 9.18286 14.8397Z" fill="#272932"/>
</svg>
