<svg xmlns="http://www.w3.org/2000/svg" width="24" height="24" viewBox="0 0 24 24" fill="none">
  <path fill-rule="evenodd" clip-rule="evenodd" d="M4 4.4C4 4.17909 4.17909 4 4.4 4H7.4C7.62091 4 7.8 4.17909 7.8 4.4V7.4C7.8 7.62091 7.62091 7.8 7.4 7.8H4.4C4.17909 7.8 4 7.62091 4 7.4V4.4ZM4.8 4.8V7H7V4.8H4.8ZM10 4.4C10 4.17909 10.1791 4 10.4 4H13.4C13.6209 4 13.8 4.17909 13.8 4.4V7.4C13.8 7.62091 13.6209 7.8 13.4 7.8H10.4C10.1791 7.8 10 7.62091 10 7.4V4.4ZM10.8 4.8V7H13V4.8H10.8ZM16 4.4C16 4.17909 16.1791 4 16.4 4H19.4C19.6209 4 19.8 4.17909 19.8 4.4V7.4C19.8 7.62091 19.6209 7.8 19.4 7.8H16.4C16.1791 7.8 16 7.62091 16 7.4V4.4ZM16.8 4.8V7H19V4.8H16.8ZM4 10.4C4 10.1791 4.17909 10 4.4 10H7.4C7.62091 10 7.8 10.1791 7.8 10.4V13.4C7.8 13.6209 7.62091 13.8 7.4 13.8H4.4C4.17909 13.8 4 13.6209 4 13.4V10.4ZM4.8 10.8V13H7V10.8H4.8ZM10 10.4C10 10.1791 10.1791 10 10.4 10H13.4C13.6209 10 13.8 10.1791 13.8 10.4V13.4C13.8 13.6209 13.6209 13.8 13.4 13.8H10.4C10.1791 13.8 10 13.6209 10 13.4V10.4ZM10.8 10.8V13H13V10.8H10.8ZM16 10.4C16 10.1791 16.1791 10 16.4 10H19.4C19.6209 10 19.8 10.1791 19.8 10.4V13.4C19.8 13.6209 19.6209 13.8 19.4 13.8H16.4C16.1791 13.8 16 13.6209 16 13.4V10.4ZM16.8 10.8V13H19V10.8H16.8ZM4 16.4C4 16.1791 4.17909 16 4.4 16H7.4C7.62091 16 7.8 16.1791 7.8 16.4V19.4C7.8 19.6209 7.62091 19.8 7.4 19.8H4.4C4.17909 19.8 4 19.6209 4 19.4V16.4ZM4.8 16.8V19H7V16.8H4.8ZM10 16.4C10 16.1791 10.1791 16 10.4 16H13.4C13.6209 16 13.8 16.1791 13.8 16.4V19.4C13.8 19.6209 13.6209 19.8 13.4 19.8H10.4C10.1791 19.8 10 19.6209 10 19.4V16.4ZM10.8 16.8V19H13V16.8H10.8ZM16 16.4C16 16.1791 16.1791 16 16.4 16H19.4C19.6209 16 19.8 16.1791 19.8 16.4V19.4C19.8 19.6209 19.6209 19.8 19.4 19.8H16.4C16.1791 19.8 16 19.6209 16 19.4V16.4ZM16.8 16.8V19H19V16.8H16.8Z" fill="#272932"/>
</svg>
