<svg xmlns="http://www.w3.org/2000/svg" width="24" height="24" viewBox="0 0 24 24" fill="none">
  <path fill-rule="evenodd" clip-rule="evenodd" d="M3 3.45C3 3.20147 3.20147 3 3.45 3H20.45C20.6985 3 20.9 3.20147 20.9 3.45V6.95C20.9 7.19853 20.6985 7.4 20.45 7.4H3.45C3.20147 7.4 3 7.19853 3 6.95V3.45ZM3.9 3.9V6.5H20V3.9H3.9Z" fill="#272932"/>
  <path fill-rule="evenodd" clip-rule="evenodd" d="M3 9.85C3 9.60147 3.20147 9.4 3.45 9.4H20.45C20.6985 9.4 20.9 9.60147 20.9 9.85V13.35C20.9 13.5985 20.6985 13.8 20.45 13.8H3.45C3.20147 13.8 3 13.5985 3 13.35V9.85ZM3.9 10.3V12.9H20V10.3H3.9Z" fill="#272932"/>
  <path fill-rule="evenodd" clip-rule="evenodd" d="M3 16.25C3 16.0015 3.20147 15.8 3.45 15.8H20.45C20.6985 15.8 20.9 16.0015 20.9 16.25V19.75C20.9 19.9985 20.6985 20.2 20.45 20.2H3.45C3.20147 20.2 3 19.9985 3 19.75V16.25ZM3.9 16.7V19.3H20V16.7H3.9Z" fill="#272932"/>
</svg>
