<svg width="24" height="24" viewBox="0 0 24 24" fill="none" xmlns="http://www.w3.org/2000/svg">
  <path fill-rule="evenodd" clip-rule="evenodd" d="M4 13.9V20H10.0031V13.9H4ZM4 4V10.1H10.0031V4H4ZM13.9969 13.9V20H20V13.9H13.9969ZM13.9969 4V10.1H20V4H13.9969ZM3.88923 3C3.39812 3 3 3.40294 3 3.9V10.2C3 10.6971 3.39812 11.1 3.88923 11.1H10.1139C10.605 11.1 11.0031 10.6971 11.0031 10.2V3.9C11.0031 3.40294 10.605 3 10.1139 3H3.88923ZM3.88923 12.9C3.39812 12.9 3 13.3029 3 13.8V20.1C3 20.5971 3.39812 21 3.88923 21H10.1139C10.605 21 11.0031 20.5971 11.0031 20.1V13.8C11.0031 13.3029 10.605 12.9 10.1139 12.9H3.88923ZM12.9969 13.8C12.9969 13.3029 13.395 12.9 13.8861 12.9H20.1108C20.6019 12.9 21 13.3029 21 13.8V20.1C21 20.5971 20.6019 21 20.1108 21H13.8861C13.395 21 12.9969 20.5971 12.9969 20.1V13.8ZM13.8861 3C13.395 3 12.9969 3.40294 12.9969 3.9V10.2C12.9969 10.6971 13.395 11.1 13.8861 11.1H20.1108C20.6019 11.1 21 10.6971 21 10.2V3.9C21 3.40294 20.6019 3 20.1108 3H13.8861Z" fill="#272932"/>
</svg>
