<svg xmlns="http://www.w3.org/2000/svg" width="24" height="24" viewBox="0 0 24 24" fill="none">
  <path d="M19.4894 6.5098H15.9149V5.72549C15.9149 5.26786 15.7176 4.82898 15.3665 4.50538C15.0154 4.18179 14.5391 4 14.0426 4H9.95745C9.46087 4 8.98463 4.18179 8.6335 4.50538C8.28237 4.82898 8.08511 5.26786 8.08511 5.72549V6.5098H4.51064C4.37521 6.5098 4.24533 6.55938 4.14956 6.64764C4.0538 6.73589 4 6.85558 4 6.98039C4 7.1052 4.0538 7.2249 4.14956 7.31315C4.24533 7.4014 4.37521 7.45098 4.51064 7.45098H5.3617V18.902C5.3617 19.1932 5.48723 19.4725 5.71068 19.6784C5.93413 19.8843 6.23719 20 6.55319 20H17.4468C17.7628 20 18.0659 19.8843 18.2893 19.6784C18.5128 19.4725 18.6383 19.1932 18.6383 18.902V7.45098H19.4894C19.6248 7.45098 19.7547 7.4014 19.8504 7.31315C19.9462 7.2249 20 7.1052 20 6.98039C20 6.85558 19.9462 6.73589 19.8504 6.64764C19.7547 6.55938 19.6248 6.5098 19.4894 6.5098ZM9.10638 5.72549C9.10638 5.51748 9.19605 5.31798 9.35565 5.1709C9.51526 5.02381 9.73173 4.94118 9.95745 4.94118H14.0426C14.2683 4.94118 14.4847 5.02381 14.6443 5.1709C14.804 5.31798 14.8936 5.51748 14.8936 5.72549V6.5098H9.10638V5.72549ZM17.617 18.902C17.617 18.9436 17.5991 18.9835 17.5672 19.0129C17.5352 19.0423 17.492 19.0588 17.4468 19.0588H6.55319C6.50805 19.0588 6.46475 19.0423 6.43283 19.0129C6.40091 18.9835 6.38298 18.9436 6.38298 18.902V7.45098H17.617V18.902ZM10.4681 10.7451V15.7647C10.4681 15.8895 10.4143 16.0092 10.3185 16.0975C10.2228 16.1857 10.0929 16.2353 9.95745 16.2353C9.82202 16.2353 9.69213 16.1857 9.59637 16.0975C9.50061 16.0092 9.44681 15.8895 9.44681 15.7647V10.7451C9.44681 10.6203 9.50061 10.5006 9.59637 10.4123C9.69213 10.3241 9.82202 10.2745 9.95745 10.2745C10.0929 10.2745 10.2228 10.3241 10.3185 10.4123C10.4143 10.5006 10.4681 10.6203 10.4681 10.7451ZM14.5532 10.7451V15.7647C14.5532 15.8895 14.4994 16.0092 14.4036 16.0975C14.3079 16.1857 14.178 16.2353 14.0426 16.2353C13.9071 16.2353 13.7772 16.1857 13.6815 16.0975C13.5857 16.0092 13.5319 15.8895 13.5319 15.7647V10.7451C13.5319 10.6203 13.5857 10.5006 13.6815 10.4123C13.7772 10.3241 13.9071 10.2745 14.0426 10.2745C14.178 10.2745 14.3079 10.3241 14.4036 10.4123C14.4994 10.5006 14.5532 10.6203 14.5532 10.7451Z" fill="#272932"/>
</svg>
