<svg width="20" height="20" viewBox="0 0 16 17" fill="none" xmlns="http://www.w3.org/2000/svg">
<g clip-path="url(#clip0_837_18828)">
<path fill-rule="evenodd" clip-rule="evenodd" d="M2.90039 5.82812C2.90039 4.58548 3.90775 3.57812 5.15039 3.57812C6.39303 3.57812 7.40039 4.58548 7.40039 5.82812C7.40039 7.07077 6.39303 8.07812 5.15039 8.07812C3.90775 8.07812 2.90039 7.07077 2.90039 5.82812ZM5.15039 4.77813C4.57049 4.77813 4.10039 5.24823 4.10039 5.82812C4.10039 6.40802 4.57049 6.87812 5.15039 6.87812C5.73029 6.87812 6.20039 6.40802 6.20039 5.82812C6.20039 5.24823 5.73029 4.77813 5.15039 4.77813Z" fill="currentColor"/>
<path d="M9.16379 8.96362C9.51523 8.6121 10.0852 8.6121 10.4366 8.96362L12.676 11.2029C12.9103 11.4372 13.2901 11.4372 13.5244 11.2029C13.7588 10.9686 13.7588 10.5887 13.5244 10.3544L11.2852 8.11506C10.465 7.29498 9.13539 7.29498 8.31523 8.11506L3.37593 13.0544C3.14162 13.2887 3.14162 13.6686 3.37593 13.9029C3.61024 14.1372 3.99015 14.1372 4.22446 13.9029L9.16379 8.96362Z" fill="currentColor"/>
<path fill-rule="evenodd" clip-rule="evenodd" d="M0.200195 4.27695C0.200195 2.39919 1.72243 0.876953 3.6002 0.876953H12.4002C14.278 0.876953 15.8002 2.39919 15.8002 4.27695V13.077C15.8002 14.9547 14.278 16.477 12.4002 16.477H3.6002C1.72243 16.477 0.200195 14.9547 0.200195 13.077V4.27695ZM3.6002 2.07695C2.38517 2.07695 1.4002 3.06193 1.4002 4.27695V13.077C1.4002 14.292 2.38517 15.277 3.6002 15.277H12.4002C13.6152 15.277 14.6002 14.292 14.6002 13.077V4.27695C14.6002 3.06193 13.6152 2.07695 12.4002 2.07695H3.6002Z" fill="currentColor"/>
</g>
<defs>
<clipPath id="clip0_837_18828">
<rect width="16" height="16" fill="white" transform="translate(0 0.677734)"/>
</clipPath>
</defs>
</svg>
