<svg
		width="25"
		height="25"
		viewBox="0 0 26 26"
		fill="none"
		xmlns="http://www.w3.org/2000/svg"
	>
		<g clipPath="url(#clip0_716_1099)">
			<path
				d="M7.43315 5.94141H4.37549C3.96104 5.94141 3.625 6.39983 3.625 6.9647V20.1658C3.625 20.7306 3.96104 21.1891 4.37549 21.1891H7.4332C7.84771 21.1891 8.18374 20.7306 8.18374 20.1658V6.9647C8.18374 6.39983 7.84766 5.94141 7.43315 5.94141Z"
				fill="currentColor"
			/>
			<path
				d="M2.09639 9.15039H1.14077C0.795703 9.15039 0.515625 9.53248 0.515625 10.0032V17.1257C0.515625 17.5965 0.795703 17.9785 1.14077 17.9785H2.09639C2.44145 17.9785 2.72153 17.5964 2.72153 17.1257V10.0032C2.72153 9.53248 2.44145 9.15039 2.09639 9.15039Z"
				fill="currentColor"
			/>
			<path
				d="M16.8389 11.7598H9.19141V15.3709H16.8389V11.7598Z"
				fill="currentColor"
			/>
			<path
				d="M21.6559 5.94141H18.5982C18.1837 5.94141 17.8477 6.39983 17.8477 6.9647V20.1658C17.8477 20.7306 18.1837 21.1891 18.5982 21.1891H21.6559C22.0703 21.1891 22.4064 20.7306 22.4064 20.1658V6.9647C22.4064 6.39983 22.0704 5.94141 21.6559 5.94141Z"
				fill="currentColor"
			/>
			<path
				d="M24.8893 9.15039H23.9337C23.5886 9.15039 23.3086 9.53248 23.3086 10.0032V17.1257C23.3086 17.5965 23.5887 17.9785 23.9337 17.9785H24.8893C25.2344 17.9785 25.5145 17.5964 25.5145 17.1257V10.0032C25.5145 9.53248 25.2344 9.15039 24.8893 9.15039Z"
				fill="currentColor"
			/>
		</g>
		<defs>
			<clipPath id="clip0_716_1099">
				<rect
					width="25"
					height="25"
					fill="white"
					transform="translate(0.515625 0.941406)"
				/>
			</clipPath>
		</defs>
	</svg>
