<svg xmlns="http://www.w3.org/2000/svg" width="24" height="24" viewBox="0 0 24 24" fill="none">
  <path fill-rule="evenodd" clip-rule="evenodd" d="M14.7 4.28963C12.9845 3.82996 11.1681 3.9192 9.50588 4.5448C7.84369 5.1704 6.41921 6.30095 5.43251 7.77765C4.44581 9.25436 3.94644 11.003 4.00455 12.7781C4.06266 14.5532 4.67533 16.2655 5.7565 17.6745C6.83767 19.0835 8.33304 20.1184 10.0326 20.634C11.7321 21.1495 13.5505 21.1198 15.2322 20.5489C16.914 19.978 18.3747 18.8947 19.4092 17.4511C20.4437 16.0074 21 14.276 21 12.5C21 12.2239 21.2239 12 21.5 12C21.7761 12 22 12.2239 22 12.5C22 14.485 21.3782 16.4201 20.222 18.0335C19.0658 19.647 17.4333 20.8578 15.5537 21.4958C13.6741 22.1339 11.6418 22.1671 9.7423 21.5909C7.84281 21.0147 6.17151 19.858 4.96315 18.2832C3.75478 16.7085 3.07003 14.7947 3.00509 12.8108C2.94014 10.8269 3.49825 8.87252 4.60104 7.22208C5.70383 5.57165 7.29589 4.3081 9.15363 3.6089C11.0114 2.90969 13.0415 2.80996 14.9588 3.32371C15.2255 3.39518 15.3838 3.66935 15.3123 3.93608C15.2409 4.20281 14.9667 4.3611 14.7 4.28963ZM20.8293 5.12371C21.0371 5.30555 21.0581 5.62144 20.8763 5.82925L14.487 13.1313C13.9703 13.7218 13.0858 13.8144 12.4581 13.3436L9.2 10.9C8.97909 10.7343 8.93432 10.4209 9.1 10.2C9.26569 9.97909 9.57909 9.93432 9.8 10.1L13.0581 12.5436C13.2673 12.7005 13.5622 12.6697 13.7344 12.4728L20.1237 5.17075C20.3056 4.96293 20.6214 4.94187 20.8293 5.12371Z" fill="#272932"/>
</svg>
