<svg xmlns="http://www.w3.org/2000/svg" width="24" height="24" viewBox="0 0 24 24" fill="none">
  <path fill-rule="evenodd" clip-rule="evenodd" d="M10.8889 3.30056C11.2282 3.10348 11.6108 3 12 3C12.3892 3 12.7718 3.10348 13.1111 3.30056C13.4504 3.49765 13.7348 3.78172 13.9369 4.1255L13.9382 4.12764L21.6961 17.4906C21.8941 17.8444 21.9989 18.2456 22 18.6543C22.0011 19.063 21.8985 19.4649 21.7024 19.8198C21.5063 20.1747 21.2237 20.4703 20.8828 20.6773C20.5418 20.8842 20.1544 20.9955 19.7591 20.9999L19.7543 21L4.24091 21C3.84555 20.9955 3.45815 20.8842 3.11724 20.6773C2.77631 20.4703 2.49368 20.1747 2.29761 19.8198C2.10154 19.4649 1.9989 19.063 2.00001 18.6543C2.00112 18.2456 2.10594 17.8444 2.30393 17.4906L2.30743 17.4844L10.0618 4.12764L10.0631 4.1255C10.2652 3.78172 10.5496 3.49765 10.8889 3.30056ZM12 3.9C11.7598 3.9 11.5237 3.96388 11.3145 4.08539C11.1057 4.20671 10.9308 4.38133 10.8065 4.59232L10.8059 4.59333L3.05475 17.9446C2.93405 18.1615 2.87025 18.4069 2.86957 18.6568C2.86889 18.9079 2.93192 19.1548 3.05249 19.3731C3.17307 19.5913 3.34703 19.7734 3.55721 19.901C3.76674 20.0282 4.00492 20.0968 4.24818 20.1H19.7518C19.9951 20.0968 20.2333 20.0282 20.4428 19.901C20.653 19.7734 20.8269 19.5913 20.9475 19.3731C21.0681 19.1548 21.1311 18.9079 21.1304 18.6568C21.1298 18.4069 21.066 18.1615 20.9453 17.9447L13.1941 4.59333L13.1935 4.59232C13.0692 4.38133 12.8943 4.20671 12.6855 4.08539C12.4763 3.96388 12.2402 3.9 12 3.9Z" fill="#272932"/>
  <path fill-rule="evenodd" clip-rule="evenodd" d="M12 9.075C12.3602 9.075 12.6522 9.37721 12.6522 9.75V14.25C12.6522 14.6228 12.3602 14.925 12 14.925C11.6398 14.925 11.3478 14.6228 11.3478 14.25V9.75C11.3478 9.37721 11.6398 9.075 12 9.075ZM11.3478 16.95C11.3478 16.5772 11.6398 16.275 12 16.275H12.0087C12.3689 16.275 12.6609 16.5772 12.6609 16.95C12.6609 17.3228 12.3689 17.625 12.0087 17.625H12C11.6398 17.625 11.3478 17.3228 11.3478 16.95Z" fill="#272932"/>
</svg>
