<svg xmlns="http://www.w3.org/2000/svg" width="24" height="24" viewBox="0 0 24 24" fill="none">
  <path fill-rule="evenodd" clip-rule="evenodd" d="M8.21053 3C8.47214 3 8.68421 3.20254 8.68421 3.45238V4.80952H15.3158V3.45238C15.3158 3.20254 15.5279 3 15.7895 3C16.0511 3 16.2632 3.20254 16.2632 3.45238V4.80952H18.6316C19.9396 4.80952 21 5.82221 21 7.07143V19.7381C21 20.9873 19.9396 22 18.6316 22H5.36842C4.06038 22 3 20.9873 3 19.7381V7.07143C3 5.82221 4.06038 4.80952 5.36842 4.80952H7.73684V3.45238C7.73684 3.20254 7.94892 3 8.21053 3ZM7.73684 5.71429H5.36842C4.5836 5.71429 3.94737 6.3219 3.94737 7.07143V10.2381H20.0526V7.07143C20.0526 6.3219 19.4164 5.71429 18.6316 5.71429H16.2632V7.07143C16.2632 7.32127 16.0511 7.52381 15.7895 7.52381C15.5279 7.52381 15.3158 7.32127 15.3158 7.07143V5.71429H8.68421V7.07143C8.68421 7.32127 8.47214 7.52381 8.21053 7.52381C7.94892 7.52381 7.73684 7.32127 7.73684 7.07143V5.71429ZM20.0526 11.1429H3.94737V19.7381C3.94737 20.4876 4.5836 21.0952 5.36842 21.0952H18.6316C19.4164 21.0952 20.0526 20.4876 20.0526 19.7381V11.1429Z" fill="#272932"/>
</svg>
