<svg xmlns="http://www.w3.org/2000/svg" width="24" height="24" viewBox="0 0 24 24" fill="none">
  <path fill-rule="evenodd" clip-rule="evenodd" d="M7.62755 2.93934C7.90886 2.65804 8.29039 2.5 8.68821 2.5H15.3118C15.7096 2.5 16.0911 2.65804 16.3724 2.93934L21.0607 7.62755C21.342 7.90886 21.5 8.29039 21.5 8.68821V15.3118C21.5 15.7096 21.342 16.0911 21.0607 16.3724L16.3724 21.0607C16.0911 21.342 15.7096 21.5 15.3118 21.5H8.68821C8.29039 21.5 7.90886 21.342 7.62755 21.0607L2.93934 16.3724C2.65804 16.0911 2.5 15.7096 2.5 15.3118V8.68821C2.5 8.29039 2.65804 7.90886 2.93934 7.62755L7.62755 2.93934ZM8.68821 3.5C8.55561 3.5 8.42843 3.55268 8.33466 3.64645L3.64645 8.33466C3.55268 8.42843 3.5 8.55561 3.5 8.68821V15.3118C3.5 15.4444 3.55268 15.5716 3.64645 15.6653L8.33466 20.3536C8.42843 20.4473 8.55561 20.5 8.68821 20.5H15.3118C15.4444 20.5 15.5716 20.4473 15.6653 20.3536L20.3536 15.6653C20.4473 15.5716 20.5 15.4444 20.5 15.3118V8.68821C20.5 8.55561 20.4473 8.42843 20.3536 8.33466L15.6653 3.64645C15.5716 3.55268 15.4444 3.5 15.3118 3.5H8.68821ZM8.94645 8.94645C9.14171 8.75118 9.45829 8.75118 9.65355 8.94645L12 11.2929L14.3464 8.94645C14.5417 8.75118 14.8583 8.75118 15.0536 8.94645C15.2488 9.14171 15.2488 9.45829 15.0536 9.65355L12.7071 12L15.0536 14.3464C15.2488 14.5417 15.2488 14.8583 15.0536 15.0536C14.8583 15.2488 14.5417 15.2488 14.3464 15.0536L12 12.7071L9.65355 15.0536C9.45829 15.2488 9.14171 15.2488 8.94645 15.0536C8.75118 14.8583 8.75118 14.5417 8.94645 14.3464L11.2929 12L8.94645 9.65355C8.75118 9.45829 8.75118 9.14171 8.94645 8.94645Z" fill="#272932"/>
</svg>
