<svg xmlns="http://www.w3.org/2000/svg" width="24" height="24" viewBox="0 0 24 24" fill="none">
  <path fill-rule="evenodd" clip-rule="evenodd" d="M20.3536 3.64645C20.5488 3.84171 20.5488 4.15829 20.3536 4.35355L4.35355 20.3536C4.15829 20.5488 3.84171 20.5488 3.64645 20.3536C3.45118 20.1583 3.45118 19.8417 3.64645 19.6464L19.6464 3.64645C19.8417 3.45118 20.1583 3.45118 20.3536 3.64645ZM20.3536 9.46463C20.5488 9.65989 20.5488 9.97647 20.3536 10.1717L10.1717 20.3536C9.97647 20.5488 9.65989 20.5488 9.46463 20.3536C9.26937 20.1583 9.26937 19.8417 9.46463 19.6464L19.6464 9.46463C19.8417 9.26936 20.1583 9.26937 20.3536 9.46463Z" fill="#272932"/>
</svg>
