<svg xmlns="http://www.w3.org/2000/svg" width="24" height="24" viewBox="0 0 24 24" fill="none">
  <path fill-rule="evenodd" clip-rule="evenodd" d="M2.64645 2.64644C2.84172 2.45118 3.1583 2.45119 3.35356 2.64645L7.47792 6.771C7.48864 6.78081 7.499 6.79116 7.50896 6.80204L10.6042 9.89743C10.6137 9.90612 10.6228 9.91524 10.6317 9.92478C10.6324 9.92551 10.6331 9.92624 10.6338 9.92697L14.0736 13.3669C14.0743 13.3676 14.075 13.3683 14.0757 13.3689C14.0853 13.3778 14.0944 13.387 14.1031 13.3965L17.1975 16.491C17.2082 16.5008 17.2186 16.5112 17.2286 16.5221L21.3528 20.6465C21.548 20.8417 21.548 21.1583 21.3527 21.3536C21.1575 21.5488 20.8409 21.5488 20.6456 21.3535L16.8075 17.5152C15.3954 18.4835 13.7269 19.0175 12.0086 19.0456L12.0004 19.0457V19.0457C9.42827 19.0457 7.34236 17.8109 5.81112 16.4249C4.27968 15.0387 3.26394 13.4672 2.81858 12.7041C2.56167 12.2639 2.56989 11.7289 2.82137 11.2965C3.75228 9.69599 4.96077 8.27405 6.39008 7.09736L2.64644 3.35355C2.45118 3.15828 2.45119 2.8417 2.64645 2.64644ZM7.10072 7.80802C5.73028 8.92106 4.57326 10.2735 3.68579 11.7993C3.61055 11.9287 3.61161 12.079 3.68225 12.2C4.10122 12.9179 5.05663 14.3932 6.48219 15.6835C7.90708 16.9733 9.76261 18.0443 11.9963 18.0457C13.454 18.021 14.8711 17.5853 16.0866 16.7943L13.715 14.4226C13.5377 14.5561 13.3454 14.6694 13.1416 14.7602C12.7792 14.9217 12.388 15.0085 11.9913 15.0155C11.5946 15.0225 11.2006 14.9495 10.8327 14.8009C10.4648 14.6523 10.1306 14.4312 9.85006 14.1506C9.56952 13.87 9.34835 13.5358 9.19976 13.168C9.05117 12.8001 8.9782 12.406 8.9852 12.0093C8.9922 11.6126 9.07903 11.2214 9.2405 10.8589C9.33129 10.6552 9.44463 10.4629 9.57805 10.2855L7.10072 7.80802ZM10.2959 11.0033C10.2421 11.0869 10.1946 11.1747 10.1539 11.2659C10.0471 11.5057 9.98967 11.7645 9.98504 12.0269C9.98041 12.2894 10.0287 12.5501 10.127 12.7934C10.2253 13.0368 10.3716 13.2579 10.5572 13.4435C10.7428 13.6291 10.9638 13.7754 11.2072 13.8737C11.4506 13.972 11.7112 14.0203 11.9737 14.0157C12.2361 14.011 12.4949 13.9536 12.7346 13.8468C12.8259 13.8061 12.9136 13.7586 12.9972 13.7048L10.2959 11.0033ZM11.9992 5.95474C11.4596 5.95348 10.9217 6.01496 10.3963 6.13795C10.1274 6.20089 9.85839 6.03394 9.79545 5.76507C9.73251 5.4962 9.89946 5.22721 10.1683 5.16427C10.769 5.02365 11.384 4.95334 12.001 4.95475C12.0012 4.95475 12.0014 4.95475 12.0016 4.95475L12.0004 5.45474V4.95474C12.0006 4.95474 12.0008 4.95475 12.001 4.95475C14.5733 4.95493 16.6593 6.19004 18.1905 7.57627C19.7221 8.96279 20.7377 10.5345 21.1827 11.2972C21.4391 11.7366 21.4314 12.2706 21.1811 12.7026C20.7253 13.4896 20.2014 14.2357 19.6154 14.9321C19.4376 15.1434 19.1222 15.1706 18.9109 14.9928C18.6996 14.815 18.6724 14.4996 18.8502 14.2883C19.3987 13.6364 19.8891 12.9381 20.3158 12.2014C20.3907 12.0721 20.3895 11.922 20.319 11.8012C19.9004 11.0837 18.9451 9.60828 17.5194 8.3176C16.0935 7.02674 14.2363 5.95474 12.0004 5.95474L11.9992 5.95474Z" fill="#272932"/>
</svg>
