<svg xmlns="http://www.w3.org/2000/svg" width="24" height="24" viewBox="0 0 24 24" fill="none">
  <path fill-rule="evenodd" clip-rule="evenodd" d="M6.45013 7.96983C5.01916 9.31658 4.06761 10.849 3.66364 11.5683C3.5991 11.6833 3.5991 11.8167 3.66364 11.9317C4.06761 12.651 5.01916 14.1834 6.45013 15.5302C7.88213 16.8779 9.75043 18 12.0003 18C14.2502 18 16.1185 16.8779 17.5505 15.5302C18.9815 14.1834 19.933 12.651 20.337 11.9317C20.4015 11.8167 20.4015 11.6833 20.337 11.5683C19.933 10.849 18.9815 9.31658 17.5505 7.96983C16.1185 6.62212 14.2502 5.5 12.0003 5.5C9.75043 5.5 7.88212 6.62212 6.45013 7.96983ZM5.76478 7.24162C7.29841 5.79825 9.40009 4.5 12.0003 4.5C14.6005 4.5 16.7022 5.79825 18.2359 7.24162C19.7705 8.68593 20.7802 10.3153 21.2089 11.0787C21.4442 11.4977 21.4442 12.0023 21.2089 12.4213C20.7802 13.1847 19.7705 14.8141 18.2359 16.2584C16.7022 17.7017 14.6005 19 12.0003 19C9.40009 19 7.29841 17.7017 5.76478 16.2584C4.23014 14.8141 3.22042 13.1847 2.79172 12.4213C2.55641 12.0023 2.55641 11.4977 2.79172 11.0787C3.22042 10.3153 4.23013 8.68594 5.76478 7.24162ZM12.0003 9.71875C10.9352 9.71875 10.0458 10.6136 10.0458 11.75C10.0458 12.8864 10.9352 13.7812 12.0003 13.7812C13.0654 13.7812 13.9549 12.8864 13.9549 11.75C13.9549 10.6136 13.0654 9.71875 12.0003 9.71875ZM9.04578 11.75C9.04578 10.0905 10.3542 8.71875 12.0003 8.71875C13.6465 8.71875 14.9549 10.0905 14.9549 11.75C14.9549 13.4095 13.6465 14.7812 12.0003 14.7812C10.3542 14.7812 9.04578 13.4095 9.04578 11.75Z" fill="#272932"/>
</svg>
