<svg xmlns="http://www.w3.org/2000/svg" width="24" height="24" viewBox="0 0 24 24" fill="none">
  <path fill-rule="evenodd" clip-rule="evenodd" d="M12 2.5C12.2761 2.5 12.5 2.72386 12.5 3V6.6C12.5 6.87614 12.2761 7.1 12 7.1C11.7239 7.1 11.5 6.87614 11.5 6.6V3C11.5 2.72386 11.7239 2.5 12 2.5ZM5.28345 5.28345C5.47871 5.08818 5.79529 5.08818 5.99055 5.28345L8.53755 7.83045C8.73282 8.02571 8.73282 8.34229 8.53755 8.53755C8.34229 8.73282 8.02571 8.73282 7.83045 8.53755L5.28345 5.99055C5.08818 5.79529 5.08818 5.47871 5.28345 5.28345ZM18.7166 5.28345C18.9118 5.47871 18.9118 5.79529 18.7166 5.99055L16.1696 8.53755C15.9743 8.73282 15.6577 8.73282 15.4624 8.53755C15.2672 8.34229 15.2672 8.02571 15.4624 7.83045L18.0094 5.28345C18.2047 5.08818 18.5213 5.08818 18.7166 5.28345ZM2.5 12C2.5 11.7239 2.72386 11.5 3 11.5H6.6C6.87614 11.5 7.1 11.7239 7.1 12C7.1 12.2761 6.87614 12.5 6.6 12.5H3C2.72386 12.5 2.5 12.2761 2.5 12ZM16.9 12C16.9 11.7239 17.1239 11.5 17.4 11.5H21C21.2761 11.5 21.5 11.7239 21.5 12C21.5 12.2761 21.2761 12.5 21 12.5H17.4C17.1239 12.5 16.9 12.2761 16.9 12ZM8.53755 15.4624C8.73282 15.6577 8.73282 15.9743 8.53755 16.1696L5.99055 18.7166C5.79529 18.9118 5.47871 18.9118 5.28345 18.7166C5.08818 18.5213 5.08818 18.2047 5.28345 18.0094L7.83045 15.4624C8.02571 15.2672 8.34229 15.2672 8.53755 15.4624ZM15.4624 15.4624C15.6577 15.2672 15.9743 15.2672 16.1696 15.4624L18.7166 18.0094C18.9118 18.2047 18.9118 18.5213 18.7166 18.7166C18.5213 18.9118 18.2047 18.9118 18.0094 18.7166L15.4624 16.1696C15.2672 15.9743 15.2672 15.6577 15.4624 15.4624ZM12 16.9C12.2761 16.9 12.5 17.1239 12.5 17.4V21C12.5 21.2761 12.2761 21.5 12 21.5C11.7239 21.5 11.5 21.2761 11.5 21V17.4C11.5 17.1239 11.7239 16.9 12 16.9Z" fill="#272932"/>
</svg>
