<svg width="14" height="19" viewBox="0 0 14 19" fill="none" xmlns="http://www.w3.org/2000/svg">
<path fill-rule="evenodd" clip-rule="evenodd" d="M8.5016 4.81997C8.02469 3.53167 7.16235 2.36166 6.2061 1.10614C5.8196 0.59871 4.98409 0.880712 4.98175 1.51716C4.97369 3.70822 3.89593 5.06735 2.67034 6.49498C1.47369 7.8889 0.0478516 9.42138 0.0478516 11.809C0.0478516 15.6487 3.16054 18.7614 7.00019 18.7614C10.8399 18.7614 13.9526 15.6487 13.9526 11.809C13.9526 9.3838 12.8357 7.1759 11.5082 5.94568C11.0995 5.56696 10.4066 5.83278 10.3649 6.39356C10.2972 7.30529 9.87969 8.73263 8.72069 8.62696C9.03869 7.18914 8.92777 5.97115 8.5016 4.81997ZM10.3643 13.7289C10.3643 15.4864 8.85819 16.9111 7.00027 16.9111C5.14234 16.9111 3.6362 15.4864 3.6362 13.7289C3.6362 12.707 4.24501 12.0377 4.87826 11.3415C5.56444 10.5872 6.27935 9.8013 6.27935 8.50096C7.2451 9.77313 7.96144 10.774 7.48085 12.3651C9.04652 12.9022 9.16285 11.0013 9.16285 11.0013C9.75744 11.5752 10.3643 12.5924 10.3643 13.7289Z" fill="#6C8DFF"/>
</svg>
