<svg width="13" height="13" viewBox="0 0 13 13" fill="none" xmlns="http://www.w3.org/2000/svg">
<g clip-path="url(#clip0_1301_841)">
<path fill-rule="evenodd" clip-rule="evenodd" d="M3.86816 1.125C2.83263 1.125 1.99316 1.96447 1.99316 3V9C1.99316 10.0356 2.83263 10.875 3.86816 10.875H7.86816C8.90371 10.875 9.74316 10.0356 9.74316 9V3C9.74316 1.96447 8.90371 1.125 7.86816 1.125H3.86816ZM2.74316 3C2.74316 2.37868 3.24684 1.875 3.86816 1.875H7.86816C8.48946 1.875 8.99316 2.37868 8.99316 3V9C8.99316 9.6213 8.48946 10.125 7.86816 10.125H3.86816C3.24684 10.125 2.74316 9.6213 2.74316 9V3Z" fill="#383838"/>
<path d="M11.2432 5C11.2432 4.7929 11.0753 4.625 10.8682 4.625C10.6611 4.625 10.4932 4.7929 10.4932 5V9.25C10.4932 10.5617 9.42986 11.625 8.11816 11.625H4.86816C4.66106 11.625 4.49316 11.7929 4.49316 12C4.49316 12.2071 4.66106 12.375 4.86816 12.375H8.11816C9.84406 12.375 11.2432 10.9759 11.2432 9.25V5Z" fill="#383838"/>
</g>
<defs>
<clipPath id="clip0_1301_841">
<rect width="12" height="12" fill="white" transform="translate(0.368164 0.5)"/>
</clipPath>
</defs>
</svg>
