<svg width="24" height="25" viewBox="0 0 24 25" fill="none" xmlns="http://www.w3.org/2000/svg">
<path fill-rule="evenodd" clip-rule="evenodd" d="M12.0004 2.8999C6.69845 2.8999 2.40039 7.37705 2.40039 12.8999C2.40039 18.4228 6.69845 22.8999 12.0004 22.8999C17.3024 22.8999 21.6004 18.4228 21.6004 12.8999C21.6004 7.37705 17.3024 2.8999 12.0004 2.8999ZM10.018 4.39498C7.53466 5.02083 5.48216 6.79616 4.40875 9.1499H7.76959C7.97863 8.14443 8.27026 7.22914 8.62933 6.44394C8.99799 5.63775 9.46426 4.91805 10.018 4.39498ZM3.60039 12.8999C3.60039 12.0312 3.72193 11.192 3.94825 10.3999H7.55899C7.45444 11.1976 7.39905 12.0364 7.39905 12.8999C7.39905 13.7634 7.45444 14.6023 7.55899 15.3999H3.94825C3.72193 14.6078 3.60039 13.7687 3.60039 12.8999ZM4.40875 16.6499C5.48216 19.0037 7.53466 20.779 10.018 21.4048C9.46426 20.8818 8.99799 20.162 8.62933 19.3559C8.27026 18.5707 7.97863 17.6554 7.76959 16.6499H4.40875ZM9.00001 16.6499C9.18508 17.4629 9.42746 18.1945 9.7127 18.8183C10.4118 20.3472 11.2605 21.0249 12.0004 21.0249C12.7403 21.0249 13.589 20.3472 14.2881 18.8183C14.5733 18.1945 14.8157 17.4629 15.0008 16.6499H9.00001ZM16.2312 16.6499C16.0222 17.6554 15.7305 18.5707 15.3714 19.3559C15.0028 20.162 14.5365 20.8818 13.9828 21.4048C16.4661 20.779 18.5187 19.0037 19.5921 16.6499H16.2312ZM20.0525 15.3999H16.4418C16.5464 14.6023 16.6017 13.7634 16.6017 12.8999C16.6017 12.0364 16.5464 11.1976 16.4418 10.3999H20.0525C20.2788 11.192 20.4004 12.0312 20.4004 12.8999C20.4004 13.7687 20.2788 14.6078 20.0525 15.3999ZM15.2298 15.3999H8.77097C8.65971 14.614 8.59905 13.7745 8.59905 12.8999C8.59905 12.0252 8.65971 11.1857 8.77097 10.3999H15.2298C15.3411 11.1857 15.4017 12.0252 15.4017 12.8999C15.4017 13.7745 15.3411 14.614 15.2298 15.3999ZM16.2312 9.1499H19.5921C18.5187 6.79616 16.4661 5.02083 13.9828 4.39498C14.5365 4.91804 15.0028 5.63775 15.3714 6.44394C15.7305 7.22914 16.0222 8.14443 16.2312 9.1499ZM9.7127 6.9815C9.42746 7.60525 9.18508 8.33692 9.00001 9.1499H15.0008C14.8157 8.33692 14.5733 7.60525 14.2881 6.9815C13.589 5.45263 12.7403 4.7749 12.0004 4.7749C11.2605 4.7749 10.4118 5.45263 9.7127 6.9815Z" fill="#202020"/>
</svg>
