<svg width="50" height="49" viewBox="0 0 50 49" fill="none" xmlns="http://www.w3.org/2000/svg">
<path d="M49.9759 23.8518C49.9793 23.8099 49.9793 23.7677 49.9759 23.7258C49.9759 23.7195 49.9759 23.7145 49.9759 23.7082C49.9607 23.6646 49.9417 23.6225 49.9192 23.5822C49.8992 23.5292 49.8734 23.4785 49.8424 23.4311C49.8424 23.4248 49.8424 23.4172 49.8323 23.4122C46.9354 19.7419 49.855 14.8991 49.8852 14.8474C49.8953 14.8298 49.8965 14.8109 49.9054 14.7933C49.9196 14.7605 49.9318 14.7268 49.9419 14.6925C49.9729 14.6078 49.9887 14.5182 49.9885 14.428C49.9885 14.4053 50.0011 14.3864 49.9998 14.3638C49.9986 14.3411 49.986 14.3361 49.9834 14.3209C49.9693 14.207 49.9297 14.0976 49.8676 14.001C49.8676 13.9947 49.8676 13.9859 49.8575 13.9796C49.7965 13.8926 49.7185 13.819 49.6283 13.763C49.6132 13.7542 49.5968 13.7542 49.5817 13.7453C49.5665 13.7365 49.5628 13.7252 49.5514 13.7201L22.4288 0.872971C22.3019 0.81357 22.1616 0.788695 22.0221 0.800859C21.8825 0.813022 21.7487 0.861792 21.634 0.942244L1.82795 15.0023C1.82795 15.0023 1.82795 15.0099 1.81913 15.0137C1.73752 15.0723 1.6682 15.1463 1.61509 15.2316C1.47276 15.4596 -1.68614 20.6941 1.35562 25.1504C0.599907 26.6026 -1.37881 31.1961 1.66547 35.054C1.74096 35.1498 1.8375 35.227 1.9476 35.2795L29.0715 48.1267C29.1767 48.1762 29.2915 48.202 29.4078 48.2022C29.5517 48.1989 29.6918 48.1552 29.8121 48.0763C29.8285 48.0675 29.8474 48.0763 29.8625 48.0612L49.6585 33.9922C49.6673 33.9859 49.6799 33.9922 49.6887 33.9822C49.8257 33.8707 49.92 33.7155 49.9557 33.5426C49.962 33.5187 49.9746 33.4972 49.9784 33.4746C49.9828 33.4247 49.9828 33.3746 49.9784 33.3247C49.9799 33.2702 49.9756 33.2158 49.9658 33.1622C49.9576 33.1412 49.9484 33.1206 49.9381 33.1005C49.9182 33.028 49.8876 32.9588 49.8474 32.8952C49.8411 32.8864 49.8298 32.8826 49.8235 32.8738C46.9266 29.2035 49.8462 24.3619 49.8764 24.309C49.8764 24.309 49.8764 24.2964 49.8839 24.2901C49.9066 24.2442 49.9243 24.1961 49.9368 24.1465C49.9557 24.106 49.9709 24.0638 49.9822 24.0206C49.9829 24.0134 49.9829 24.0063 49.9822 23.9991C49.985 23.9499 49.9829 23.9006 49.9759 23.8518ZM29.6018 46.3029C27.6583 43.086 29.5703 39.2684 29.9922 38.5064L47.3876 26.1504C46.8233 28.0599 46.5651 30.7074 48.1093 33.1597L29.6018 46.3029ZM2.62649 16.6876L28.3208 28.8546C27.6571 30.2288 26.5399 33.2164 27.555 36.1977L2.78141 24.4639C0.667921 21.5998 1.9539 18.0869 2.62649 16.6876ZM29.6018 36.8501C27.642 33.603 29.6018 29.7464 30.0036 29.0335L47.385 16.6901C46.8195 18.6008 46.5626 21.2521 48.1118 23.7057L29.6018 36.8501ZM22.1592 2.49398L47.6483 14.5678L29.3247 27.5812L25.8358 25.9287L3.83563 15.5074L22.1592 2.49398ZM2.79148 33.9343C0.664143 31.0752 1.9539 27.5586 2.62145 26.1466L28.3158 38.3137C27.6495 39.6992 26.5361 42.6817 27.5601 45.6605L2.79148 33.9343Z" fill="#202020"/>
<path d="M28.1155 46.4019L3.12599 34.5326C1.30692 32.2624 0.932584 29.1571 2.16006 26.5197L2.50126 25.7865L28.739 38.2808L28.4026 38.7854C27.8007 39.688 27.3973 40.7081 27.219 41.7782C26.9889 43.1592 27.2025 44.5777 27.8291 45.8297L28.1155 46.4019Z" fill="#F4F4F4"/>
<path d="M48.1054 33.2827L29.3641 47.0261L29.0721 46.2465C28.08 43.598 28.4211 40.6342 29.9889 38.2803L47.4806 25.7862L47.3318 26.8286C47.0203 29.0106 47.2871 31.2361 48.1054 33.2827Z" fill="#F4F4F4"/>
<path d="M48.1054 33.2827L29.3641 47.0261L29.0721 46.2465C28.08 43.598 28.4211 40.6342 29.9889 38.2803L47.4806 25.7862L47.3318 26.8286C47.0203 29.0106 47.2871 31.2361 48.1054 33.2827Z" fill="#F4F4F4"/>
<path d="M48.1057 23.9122L29.3641 37.0309L28.895 35.7787C28.025 33.4561 28.4406 30.847 29.9892 28.9097L47.4807 16.4157C47.0707 18.877 47.2688 21.4013 48.0578 23.7685L48.1057 23.9122Z" fill="#F4F4F4"/>
<path d="M28.1154 37.0309L2.52203 24.5369C1.05997 22.2465 0.944589 19.3462 2.22007 16.9469L2.50248 16.4156L28.5244 28.9097L28.1787 29.567C26.9523 31.8985 26.9288 34.679 28.1154 37.0309Z" fill="#ADD3FF"/>
<path d="M28.1154 37.0304L2.52203 24.5364C1.05997 22.246 0.944589 19.3457 2.22007 16.9464L2.50248 16.4151L28.5244 28.9093L28.1787 29.5665C26.9523 31.898 26.9288 34.6785 28.1154 37.0304Z" fill="#6C8DFF"/>
<path d="M22.0765 2.04736L3.14648 15.1662L29.3425 28.285L48.1253 14.5415L22.0765 2.04736Z" fill="#9EB4FF"/>
<path d="M18.082 13L27.2256 17.6322C27.6041 17.824 28.0587 17.7844 28.3984 17.5302L32.588 14.3948" stroke="#202020" stroke-linecap="round" stroke-linejoin="round"/>
</svg>
