<svg width="25" height="24" viewBox="0 0 25 24" fill="none" xmlns="http://www.w3.org/2000/svg">
<path fill-rule="evenodd" clip-rule="evenodd" d="M14.083 5.78445C13.5107 4.23849 12.4759 2.83448 11.3284 1.32785C10.8646 0.71894 9.86197 1.05734 9.85916 1.82108C9.84949 4.45035 8.55617 6.0813 7.08546 7.79446C5.64949 9.46716 3.93848 11.3061 3.93848 14.1712C3.93848 18.7789 7.6737 22.5141 12.2813 22.5141C16.889 22.5141 20.6242 18.7789 20.6242 14.1712C20.6242 11.261 19.2839 8.61156 17.6909 7.1353C17.2005 6.68084 16.369 6.99982 16.319 7.67276C16.2377 8.76683 15.7367 10.4796 14.3459 10.3528C14.7275 8.62745 14.5944 7.16587 14.083 5.78445ZM16.3182 16.4751C16.3182 18.5841 14.5109 20.2938 12.2814 20.2938C10.0519 20.2938 8.2445 18.5841 8.2445 16.4751C8.2445 15.2489 8.97507 14.4457 9.73497 13.6103C10.5584 12.7051 11.4163 11.762 11.4163 10.2016C12.5752 11.7282 13.4348 12.9292 12.8581 14.8386C14.7369 15.4831 14.8765 13.202 14.8765 13.202C15.59 13.8907 16.3182 15.1113 16.3182 16.4751Z" fill="#6C8DFF"/>
</svg>
