<svg xmlns="http://www.w3.org/2000/svg" width="24" height="24" viewBox="0 0 24 24" fill="none">
  <path fill-rule="evenodd" clip-rule="evenodd" d="M7.94519 2.5H16.0549C16.6635 2.49999 17.1546 2.49999 17.5586 2.53766C17.9781 2.57677 18.3397 2.65888 18.684 2.84314C19.0283 3.02741 19.2971 3.28269 19.5624 3.61006C19.8178 3.92531 20.0903 4.33395 20.4279 4.84039L20.6099 5.11341C20.6237 5.13407 20.6373 5.15445 20.6507 5.17459C21.0118 5.71594 21.2509 6.07434 21.3756 6.48629C21.5003 6.89823 21.5002 7.32905 21.5 7.97978C21.5 8.00398 21.5 8.0285 21.5 8.05332V16.2373C21.5 17.337 21.5 18.2132 21.4077 18.9001C21.3124 19.6091 21.1105 20.1908 20.6506 20.6506C20.1908 21.1105 19.6091 21.3124 18.9001 21.4077C18.2132 21.5 17.337 21.5 16.2373 21.5H7.76274C6.66301 21.5 5.78682 21.5 5.09995 21.4077C4.39095 21.3124 3.80927 21.1105 3.34942 20.6506C2.88956 20.1908 2.68767 19.6091 2.59235 18.9001C2.5 18.2132 2.50001 17.337 2.50002 16.2373L2.50002 8.05332C2.50002 8.0285 2.50002 8.00398 2.50001 7.97978C2.49984 7.32904 2.49973 6.89823 2.62446 6.48629C2.74918 6.07435 2.98825 5.71595 3.34935 5.1746C3.36278 5.15446 3.37639 5.13407 3.39016 5.11341L3.57219 4.84036C3.9098 4.33393 4.18222 3.9253 4.43765 3.61006C4.70291 3.28269 4.97177 3.02741 5.31608 2.84314C5.66038 2.65888 6.02192 2.57677 6.44145 2.53766C6.84544 2.49999 7.33655 2.49999 7.94519 2.5ZM3.50002 9.5V16.2C3.50002 17.3455 3.50109 18.1543 3.58343 18.7668C3.66385 19.3649 3.81343 19.7004 4.05652 19.9435C4.29961 20.1866 4.63509 20.3362 5.2332 20.4166C5.84569 20.4989 6.65452 20.5 7.80002 20.5H16.2C17.3455 20.5 18.1544 20.4989 18.7669 20.4166C19.365 20.3362 19.7004 20.1866 19.9435 19.9435C20.1866 19.7004 20.3362 19.3649 20.4166 18.7668C20.499 18.1543 20.5 17.3455 20.5 16.2V9.5H15.5V14.0463C15.5 14.8546 14.6181 15.354 13.9249 14.9381L12 13.7831L10.0751 14.938C9.38192 15.354 8.50003 14.8546 8.50003 14.0463V9.5H3.50002ZM3.50002 8.5V8.05332C3.50002 7.30282 3.50496 7.02904 3.58155 6.77607C3.65814 6.5231 3.8059 6.29257 4.22221 5.66811L4.39109 5.41479C4.74493 4.88403 4.99193 4.51443 5.21461 4.23961C5.43078 3.97283 5.60162 3.82453 5.78794 3.72482C5.97425 3.6251 6.19241 3.56522 6.53429 3.53334C6.88648 3.5005 7.33101 3.5 7.96891 3.5H16.0311C16.669 3.5 17.1136 3.5005 17.4658 3.53334C17.8076 3.56522 18.0258 3.6251 18.2121 3.72482C18.3984 3.82453 18.5693 3.97283 18.7854 4.23961C19.0081 4.51443 19.2551 4.88403 19.609 5.41479L19.7778 5.66811C20.1941 6.29257 20.3419 6.5231 20.4185 6.77607C20.4951 7.02904 20.5 7.30282 20.5 8.05332V8.5H3.50002ZM9.50003 9.5V14.0463C9.50003 14.0581 9.50269 14.0634 9.50457 14.0665C9.50728 14.071 9.51239 14.0766 9.52032 14.0811C9.52824 14.0856 9.53565 14.0871 9.54087 14.0871C9.5445 14.0871 9.55047 14.0866 9.56061 14.0806L11.5884 12.8639C11.8418 12.7119 12.1583 12.7119 12.4116 12.8639L14.4394 14.0806C14.4496 14.0866 14.4555 14.0871 14.4592 14.0871C14.4644 14.0871 14.4718 14.0856 14.4797 14.0811C14.4877 14.0766 14.4928 14.071 14.4955 14.0665C14.4974 14.0634 14.5 14.0581 14.5 14.0463V9.5H9.50003Z" fill="#272932"/>
</svg>
