<svg xmlns="http://www.w3.org/2000/svg" width="24" height="24" viewBox="0 0 24 24" fill="none">
  <path fill-rule="evenodd" clip-rule="evenodd" d="M12.5811 4.65868C12.1751 4.44711 11.7189 4.44711 11.313 4.65868L3.50476 8.72798C3.5025 8.73468 3.5 8.74562 3.5 8.75998C3.5 8.77434 3.5025 8.78527 3.50476 8.79198L11.313 12.8613C11.7189 13.0729 12.1751 13.0729 12.581 12.8613L20.3893 8.79198C20.3915 8.78527 20.394 8.77434 20.394 8.75998C20.394 8.74562 20.3915 8.73468 20.3893 8.72798L12.5811 4.65868ZM20.4036 8.73546C20.4036 8.73543 20.4035 8.7354 20.4034 8.73537L20.4036 8.73546ZM10.8508 3.77188C11.5464 3.40937 12.3476 3.40937 13.0432 3.77188L20.8658 7.84867C21.1025 7.97202 21.2499 8.17056 21.327 8.38172C21.433 8.4734 21.5 8.60886 21.5 8.75998V13.7555C21.5 14.0317 21.2761 14.2555 21 14.2555C20.7239 14.2555 20.5 14.0317 20.5 13.7555V9.86192L18.2519 11.0336C18.2857 11.101 18.3048 11.1771 18.3048 11.2578V17.5022C18.3048 17.5373 18.3011 17.5722 18.2938 17.6065L17.8048 17.5022C18.2938 17.6065 18.2937 17.607 18.2936 17.6075L18.2934 17.6085L18.2929 17.6108L18.2917 17.6162L18.2885 17.6295C18.286 17.6397 18.2827 17.6522 18.2785 17.667C18.2701 17.6965 18.258 17.735 18.2412 17.7812C18.2074 17.8735 18.1544 17.9966 18.0731 18.1396C17.9097 18.4269 17.6348 18.7901 17.1808 19.145C16.27 19.8571 14.6862 20.5 11.947 20.5C9.20782 20.5 7.62402 19.8571 6.71318 19.145C6.2592 18.7901 5.98428 18.4269 5.82094 18.1396C5.73961 17.9966 5.6866 17.8735 5.65286 17.7812C5.63599 17.735 5.62392 17.6965 5.61553 17.667C5.61133 17.6522 5.60805 17.6397 5.60554 17.6295L5.60233 17.6162L5.60113 17.6108L5.60063 17.6085L5.6004 17.6075C5.60029 17.607 5.60018 17.6065 6.08919 17.5022L5.60018 17.6065C5.59288 17.5722 5.58919 17.5373 5.58919 17.5022V11.2578C5.58919 11.1771 5.60827 11.101 5.64216 11.0336L3.02824 9.67129L3.25932 9.22789L3.02824 9.67129C2.65029 9.47432 2.5 9.08565 2.5 8.75998C2.5 8.4343 2.6503 8.04564 3.02824 7.84867L10.8508 3.77188ZM6.58919 11.5271V17.4299C6.5901 17.4324 6.59107 17.4351 6.59209 17.4379C6.60827 17.4822 6.63847 17.5543 6.69027 17.6454C6.79319 17.8264 6.98424 18.0876 7.32906 18.3572C8.0158 18.894 9.36091 19.5 11.947 19.5C14.5331 19.5 15.8782 18.894 16.565 18.3572C16.9098 18.0876 17.1008 17.8264 17.2037 17.6454C17.2555 17.5543 17.2857 17.4822 17.3019 17.4379C17.3029 17.4351 17.3039 17.4324 17.3048 17.4299V11.5271L13.0432 13.7481C12.3476 14.1106 11.5464 14.1106 10.8508 13.7481L6.58919 11.5271Z" fill="#272932"/>
</svg>
