<svg xmlns="http://www.w3.org/2000/svg" width="24" height="24" viewBox="0 0 24 24" fill="none">
  <path fill-rule="evenodd" clip-rule="evenodd" d="M9.96204 2.5H14.038C15.42 2.49999 16.5082 2.49998 17.3584 2.61429C18.2308 2.73158 18.9272 2.9774 19.4749 3.52513C20.0226 4.07285 20.2684 4.76918 20.3857 5.64156C20.5 6.49179 20.5 7.58 20.5 8.96202V15.8728C20.5 17.1762 20.5 18.2116 20.3892 18.9699C20.2779 19.7313 20.0308 20.3935 19.3743 20.7126C18.7178 21.0317 18.0444 20.8169 17.3769 20.434C16.7122 20.0527 15.898 19.4129 14.8732 18.6077L14.1624 18.0492C13.5596 17.5755 13.1418 17.2484 12.7903 17.0345C12.4503 16.8277 12.2202 16.7578 12 16.7578C11.7798 16.7578 11.5497 16.8277 11.2097 17.0345C10.8582 17.2484 10.4404 17.5755 9.83762 18.0492L9.12683 18.6077C8.10198 19.4129 7.28778 20.0527 6.62308 20.434C5.95564 20.8169 5.28222 21.0317 4.62573 20.7126C3.96923 20.3935 3.72207 19.7313 3.61079 18.9699C3.49997 18.2116 3.49999 17.1762 3.5 15.8728L3.5 8.96204C3.49999 7.58001 3.49998 6.49179 3.61429 5.64156C3.73158 4.76918 3.9774 4.07285 4.52513 3.52513C5.07285 2.9774 5.76918 2.73158 6.64156 2.61429C7.49179 2.49998 8.58001 2.49999 9.96204 2.5ZM6.77481 3.60538C6.01331 3.70776 5.56319 3.90128 5.23223 4.23223C4.90128 4.56319 4.70776 5.01331 4.60538 5.77481C4.50106 6.55069 4.5 7.57165 4.5 9V15.8276C4.5 17.1863 4.50131 18.1481 4.60028 18.8253C4.70008 19.5081 4.87507 19.7219 5.06286 19.8132C5.25066 19.9045 5.52687 19.91 6.12546 19.5666C6.71912 19.226 7.47622 18.6328 8.54455 17.7934L9.24445 17.2435C9.81669 16.7939 10.2812 16.4288 10.69 16.1802C11.1161 15.9209 11.5285 15.7578 12 15.7578C12.4715 15.7578 12.8839 15.9209 13.31 16.1802C13.7188 16.4288 14.1833 16.7939 14.7556 17.2435L15.4554 17.7934C16.5238 18.6328 17.2809 19.226 17.8745 19.5666C18.4731 19.91 18.7493 19.9045 18.9371 19.8132C19.1249 19.7219 19.2999 19.5081 19.3997 18.8253C19.4987 18.1481 19.5 17.1863 19.5 15.8276V9C19.5 7.57165 19.4989 6.55069 19.3946 5.77481C19.2922 5.01331 19.0987 4.56319 18.7678 4.23223C18.4368 3.90128 17.9867 3.70776 17.2252 3.60538C16.4493 3.50106 15.4283 3.5 14 3.5H10C8.57165 3.5 7.55069 3.50106 6.77481 3.60538Z" fill="#272932"/>
</svg>
