<svg xmlns="http://www.w3.org/2000/svg" width="24" height="24" viewBox="0 0 24 24" fill="none">
  <path fill-rule="evenodd" clip-rule="evenodd" d="M10.0714 13.7705H13.9286C14.8485 13.7705 15.7143 14.4346 15.7143 15.3921V20H15.8571C17.0941 20 17.9339 19.9984 18.5622 19.9247C19.1742 19.8529 19.4321 19.7267 19.5895 19.5894C19.7272 19.4693 19.8447 19.2955 19.9175 18.8227C19.9972 18.3056 20 17.6034 20 16.5137V11.7577C20 10.1344 19.9735 9.67065 19.7625 9.27057C19.6638 9.08332 19.5061 8.88482 19.1796 8.59662C18.8416 8.29829 18.3829 7.95434 17.7073 7.4492L16.4216 6.48784C15.2044 5.57777 14.3611 4.94925 13.6477 4.53822C12.9598 4.1419 12.478 4 12 4C11.522 4 11.0402 4.1419 10.3523 4.53822C9.63892 4.94925 8.79557 5.57777 7.57844 6.48784L6.29273 7.4492C5.61714 7.95434 5.15842 8.29829 4.82045 8.59662C4.49395 8.88482 4.33618 9.08332 4.23746 9.27057C4.02652 9.67065 4 10.1344 4 11.7577V16.5137C4 17.6034 4.00277 18.3056 4.08248 18.8227C4.15534 19.2955 4.27285 19.4693 4.41052 19.5894C4.56786 19.7267 4.82577 19.8529 5.43779 19.9247C6.06614 19.9984 6.90593 20 8.14286 20H8.28571V15.3921C8.28571 14.4346 9.15152 13.7705 10.0714 13.7705ZM15.8571 21C18.2815 21 19.4937 21 20.2468 20.343C21 19.686 21 18.6285 21 16.5137V11.7577C21 10.2349 21 9.47348 20.6471 8.80419C20.2942 8.13489 19.6315 7.63937 18.3061 6.64832L17.0204 5.68697C14.6247 3.89566 13.4269 3 12 3C10.5732 3 9.3753 3.89566 6.97961 5.68697L5.6939 6.64832C4.36847 7.63937 3.70576 8.13489 3.35288 8.80419C3 9.47348 3 10.2349 3 11.7577V16.5137C3 18.6285 3 19.686 3.75315 20.343C4.50631 21 5.71849 21 8.14286 21H15.8571ZM14.7143 20H9.28571V15.3921C9.28571 15.1108 9.57117 14.7705 10.0714 14.7705H13.9286C14.4288 14.7705 14.7143 15.1108 14.7143 15.3921V20Z" fill="#272932"/>
</svg>
