<svg xmlns="http://www.w3.org/2000/svg" width="24" height="24" viewBox="0 0 24 24" fill="none">
  <path fill-rule="evenodd" clip-rule="evenodd" d="M14.3302 4.24437C13.2461 4.00402 12.1252 3.97956 11.0316 4.17239C9.93802 4.36522 8.89311 4.77156 7.95655 5.36822C7.01999 5.96487 6.21012 6.74015 5.57319 7.64979C4.93625 8.55944 4.48471 9.58563 4.24437 10.6698C4.00402 11.7539 3.97956 12.8748 4.17239 13.9684C4.36522 15.062 4.77156 16.1069 5.36822 17.0434C5.96487 17.98 6.74015 18.7899 7.6498 19.4268C8.55944 20.0638 9.58563 20.5153 10.6698 20.7556C11.7539 20.996 12.8748 21.0204 13.9684 20.8276C15.062 20.6348 16.1069 20.2284 17.0434 19.6318C17.98 19.0351 18.7899 18.2598 19.4268 17.3502C20.0638 16.4406 20.5153 15.4144 20.7556 14.3302C20.996 13.2461 21.0204 12.1252 20.8276 11.0316C20.6348 9.93802 20.2284 8.89311 19.6318 7.95655C19.0351 7.01999 18.2598 6.21012 17.3502 5.57319C16.4406 4.93625 15.4144 4.48471 14.3302 4.24437ZM10.8503 3.14433C12.0789 2.92769 13.3382 2.95517 14.5562 3.22519C15.7742 3.49521 16.927 4.00249 17.949 4.71806C18.9709 5.43362 19.8419 6.34347 20.5122 7.39565C21.1825 8.44783 21.639 9.62174 21.8557 10.8503C22.0723 12.0789 22.0448 13.3382 21.7748 14.5562C21.5048 15.7742 20.9975 16.927 20.2819 17.949C19.5664 18.9709 18.6565 19.8419 17.6043 20.5122C16.5522 21.1825 15.3783 21.639 14.1497 21.8557C12.9211 22.0723 11.6618 22.0448 10.4438 21.7748C9.22584 21.5048 8.07297 20.9975 7.05103 20.2819C6.02909 19.5664 5.1581 18.6565 4.48778 17.6043C3.81747 16.5522 3.36096 15.3783 3.14433 14.1497C2.92769 12.9211 2.95517 11.6618 3.22519 10.4438C3.49521 9.22584 4.00249 8.07297 4.71805 7.05103C5.43362 6.02909 6.34347 5.15809 7.39565 4.48778C8.44783 3.81747 9.62174 3.36096 10.8503 3.14433ZM12.5001 8.13032C12.2118 8.13032 11.9781 8.36401 11.9781 8.65228C11.9781 8.94055 12.2118 9.17424 12.5001 9.17424H12.5129C12.8012 9.17424 13.0348 8.94055 13.0348 8.65228C13.0348 8.36401 12.8012 8.13032 12.5129 8.13032H12.5001ZM11.2175 10.329C10.9292 10.329 10.6955 10.5627 10.6955 10.851C10.6955 11.1393 10.9292 11.3729 11.2175 11.3729H11.9781V15.8258C11.9781 16.4023 12.4455 16.8697 13.022 16.8697H13.7826C14.0709 16.8697 14.3046 16.636 14.3046 16.3477C14.3046 16.0595 14.0709 15.8258 13.7826 15.8258H13.022V11.3729C13.022 10.7964 12.5546 10.329 11.9781 10.329H11.2175Z" fill="#272932"/>
</svg>
