<svg xmlns="http://www.w3.org/2000/svg" width="24" height="24" viewBox="0 0 24 24" fill="none">
  <path fill-rule="evenodd" clip-rule="evenodd" d="M9.22515 3.5C9.50129 3.5 9.72515 3.72386 9.72515 4V5.42321H12.9174C12.9212 5.42317 12.9251 5.42317 12.9289 5.42321H15.454C15.7301 5.42321 15.954 5.64707 15.954 5.92321C15.954 6.19935 15.7301 6.42321 15.454 6.42321H13.3512C13.3157 6.60794 13.2634 6.84483 13.1873 7.12628C12.9963 7.83304 12.655 8.82119 12.052 9.96939C11.5869 10.8549 10.9673 11.8336 10.1431 12.8503C10.8567 13.6782 11.5951 14.4059 12.2686 14.8348C12.5015 14.9831 12.5701 15.2922 12.4217 15.5251C12.2734 15.7581 11.9643 15.8266 11.7314 15.6783C10.9897 15.2059 10.2141 14.4512 9.48596 13.619C8.23358 15.0098 6.5873 16.4449 4.42508 17.7894C4.19058 17.9352 3.88227 17.8633 3.73645 17.6288C3.59063 17.3943 3.66253 17.086 3.89703 16.9401C6.03269 15.6122 7.63522 14.1994 8.83728 12.8441C8.49848 12.4227 8.17705 11.9977 7.88257 11.5931C7.33534 10.8413 6.86723 10.1404 6.53597 9.62746C6.37023 9.37084 6.23847 9.16087 6.14789 9.01465C6.1026 8.94152 6.06759 8.88431 6.04376 8.84514L6.0165 8.80017L6.00937 8.78832L6.00693 8.78426C6.00688 8.78418 6.00668 8.78384 6.4357 8.52705L6.00693 8.78426C5.86511 8.54732 5.94197 8.23985 6.17891 8.09803C6.41584 7.95622 6.72287 8.03331 6.8647 8.27023C6.86469 8.27022 6.86471 8.27024 6.8647 8.27023L6.86652 8.27325L6.87273 8.28357L6.89807 8.32538C6.92059 8.36239 6.95421 8.41733 6.99802 8.48807C7.08567 8.62957 7.21405 8.83417 7.376 9.08491C7.70011 9.58675 8.15756 10.2717 8.69106 11.0046C8.94599 11.3548 9.21528 11.7117 9.49307 12.0624C10.2119 11.1548 10.7557 10.287 11.1667 9.50443C11.732 8.42794 12.0479 7.50924 12.222 6.86533C12.267 6.69889 12.3025 6.55084 12.3304 6.42321H3C2.72386 6.42321 2.5 6.19935 2.5 5.92321C2.5 5.64707 2.72386 5.42321 3 5.42321H8.72515V4C8.72515 3.72386 8.94901 3.5 9.22515 3.5ZM16.7847 11.8318L14.6908 16.4913H18.8766L16.7847 11.8318ZM20.0824 16.7354L17.5385 11.0692L17.5368 11.0654C17.4696 10.919 17.3609 10.7981 17.2274 10.7146C17.094 10.6314 16.9403 10.5882 16.7848 10.5882C16.6293 10.5882 16.4756 10.6314 16.3422 10.7146C16.2087 10.7981 16.1 10.9191 16.0328 11.0654L16.0312 11.0691L13.4756 16.7559C13.4649 16.7759 13.4556 16.7967 13.4476 16.8181L12.1099 19.7951C11.9967 20.0469 12.1091 20.3429 12.361 20.4561C12.6129 20.5693 12.9088 20.4568 13.022 20.2049L14.2415 17.4913H19.3256L20.5439 20.2048C20.657 20.4567 20.9529 20.5692 21.2048 20.4561C21.4567 20.343 21.5692 20.0471 21.4561 19.7952L20.1297 16.8407C20.1179 16.8035 20.102 16.7682 20.0824 16.7354Z" fill="#272932"/>
</svg>
