<svg xmlns="http://www.w3.org/2000/svg" width="24" height="24" viewBox="0 0 24 24" fill="none">
  <path fill-rule="evenodd" clip-rule="evenodd" d="M20 7C20 5.11438 20 4.17157 19.4142 3.58579C18.8284 3 17.8856 3 16 3H8C6.11438 3 5.17157 3 4.58579 3.58579C4 4.17157 4 5.11438 4 7V18.5C4 18.6704 4.01704 18.8368 4.04952 18.9976C4.28022 20.1399 5.28967 21 6.5 21H16C17.8856 21 18.8284 21 19.4142 20.4142C20 19.8284 20 18.8856 20 17V7ZM5 17.1771V18.5C5 19.3284 5.67157 20 6.5 20H16C16.9711 20 17.5988 19.9979 18.0613 19.9357C18.495 19.8774 18.631 19.7832 18.7071 19.7071C18.7832 19.631 18.8774 19.495 18.9357 19.0613C18.9979 18.5988 19 17.9711 19 17V16.2498C18.7727 16.3331 18.5262 16.3867 18.2612 16.4223C17.6832 16.5 16.9483 16.5 16.0366 16.5H6.5C5.90265 16.5 5.36647 16.7619 5 17.1771ZM19 15.1166V7C19 6.02892 18.9979 5.40121 18.9357 4.9387C18.8774 4.50496 18.7832 4.36902 18.7071 4.29289C18.631 4.21677 18.495 4.12262 18.0613 4.06431C17.5988 4.00212 16.9711 4 16 4H8C7.02892 4 6.40121 4.00212 5.9387 4.06431C5.50496 4.12262 5.36902 4.21677 5.29289 4.29289C5.21677 4.36902 5.12262 4.50496 5.06431 4.9387C5.00212 5.40121 5 6.02892 5 7V15.9013C5.44126 15.6461 5.95357 15.5 6.5 15.5H16C16.9569 15.5 17.6244 15.4989 18.1279 15.4312C18.5658 15.3724 18.8193 15.2698 19 15.1166ZM8.64645 9.64645C8.84171 9.45118 9.15829 9.45118 9.35355 9.64645L10.6464 10.9393C10.8417 11.1346 11.1583 11.1346 11.3536 10.9393L14.6464 7.64645C14.8417 7.45118 15.1583 7.45118 15.3536 7.64645C15.5488 7.84171 15.5488 8.15829 15.3536 8.35355L12.0607 11.6464C11.4749 12.2322 10.5251 12.2322 9.93934 11.6464L8.64645 10.3536C8.45118 10.1583 8.45118 9.84171 8.64645 9.64645Z" fill="#272932"/>
</svg>
