<svg xmlns="http://www.w3.org/2000/svg" width="24" height="24" viewBox="0 0 24 24" fill="none">
  <rect width="24" height="24" rx="12" fill="#9EB4FF"/>
  <path d="M17.5446 7.01098C16.5073 6.53481 15.4126 6.19525 14.2879 6.00082C14.2777 5.99893 14.2671 6.00031 14.2577 6.00477C14.2483 6.00922 14.2406 6.01652 14.2356 6.02562C14.0949 6.2757 13.9391 6.6021 13.8301 6.85858C12.6002 6.67442 11.3768 6.67442 10.1722 6.85858C10.0631 6.59634 9.90165 6.2757 9.76037 6.02562C9.75514 6.0167 9.74734 6.00956 9.73799 6.00514C9.72864 6.00072 9.71818 5.99921 9.70797 6.00082C8.58317 6.19486 7.4884 6.53443 6.45124 7.01098C6.44236 7.01475 6.43487 7.02118 6.4298 7.02938C4.35555 10.1282 3.78739 13.1509 4.06611 16.1362C4.06689 16.1435 4.06913 16.1506 4.0727 16.157C4.07628 16.1635 4.08111 16.1691 4.08691 16.1736C5.4554 17.1787 6.78108 17.7888 8.08212 18.1932C8.09224 18.1962 8.10304 18.1961 8.11308 18.1928C8.12312 18.1895 8.13191 18.1832 8.13828 18.1748C8.44604 17.7545 8.72036 17.3114 8.95564 16.8454C8.95888 16.839 8.96073 16.832 8.96107 16.8249C8.96141 16.8177 8.96023 16.8106 8.95761 16.8039C8.95498 16.7972 8.95098 16.7912 8.94585 16.7862C8.94073 16.7812 8.93461 16.7774 8.92788 16.7749C8.49268 16.6098 8.07836 16.4086 7.6798 16.18C7.67254 16.1758 7.66645 16.1698 7.66205 16.1626C7.65766 16.1554 7.6551 16.1472 7.6546 16.1388C7.6541 16.1304 7.65568 16.122 7.6592 16.1143C7.66271 16.1067 7.66806 16.1 7.67476 16.0949C7.75884 16.0321 7.84147 15.9673 7.9226 15.9007C7.9297 15.8948 7.93831 15.891 7.94744 15.8898C7.95657 15.8885 7.96587 15.8899 7.97428 15.8936C10.5928 17.0891 13.4277 17.0891 16.0153 15.8936C16.0237 15.8896 16.0331 15.8881 16.0424 15.8892C16.0517 15.8904 16.0604 15.8941 16.0677 15.9C16.1489 15.967 16.2317 16.032 16.3161 16.0949C16.3229 16.1 16.3283 16.1066 16.3318 16.1142C16.3354 16.1218 16.337 16.1302 16.3366 16.1386C16.3362 16.1471 16.3337 16.1552 16.3293 16.1624C16.325 16.1697 16.319 16.1757 16.3117 16.18C15.913 16.4129 15.4952 16.6117 15.063 16.7743C15.0563 16.7768 15.0502 16.7808 15.0451 16.7859C15.0401 16.7909 15.0361 16.797 15.0335 16.8038C15.031 16.8105 15.0299 16.8176 15.0303 16.8248C15.0307 16.832 15.0326 16.839 15.0359 16.8454C15.2753 17.3077 15.5482 17.7518 15.8525 18.1742C15.8587 18.1828 15.8675 18.1893 15.8776 18.1927C15.8876 18.1961 15.8985 18.1963 15.9087 18.1932C17.2161 17.7888 18.5417 17.1787 19.9103 16.1736C19.9162 16.1693 19.9211 16.1638 19.9246 16.1575C19.9282 16.1511 19.9304 16.1441 19.9311 16.1368C20.2647 12.6856 19.3723 9.6876 17.5654 7.03002C17.561 7.02138 17.5536 7.01463 17.5446 7.01098ZM9.34668 14.3185C8.55828 14.3185 7.90868 13.5948 7.90868 12.7059C7.90868 11.817 8.54572 11.0933 9.34668 11.0933C10.1539 11.0933 10.7972 11.8234 10.7845 12.7059C10.7845 13.5948 10.1476 14.3185 9.34668 14.3185ZM14.6632 14.3185C13.8748 14.3185 13.2253 13.5948 13.2253 12.7059C13.2253 11.817 13.8622 11.0933 14.6632 11.0933C15.4704 11.0933 16.1137 11.8234 16.1011 12.7059C16.1011 13.5948 15.4704 14.3185 14.6632 14.3185Z" fill="white"/>
</svg>
