<svg xmlns="http://www.w3.org/2000/svg" width="24" height="24" viewBox="0 0 24 24" fill="none">
  <g clip-path="url(#clip0_4181_25700)">
  <path d="M12 0C5.6376 0 0 5.66507 0 12.018C0 18.371 5.6376 24 12 24C18.3624 24 24 18.4212 24 12.0682C24 5.71527 18.3624 0 12 0ZM16.2193 13.2929C16.3587 13.4272 16.5 13.5605 16.6351 13.6991C16.9388 14.0107 17.4944 14.601 17.6875 14.9396C17.6965 14.9555 17.7055 14.9707 17.7137 14.9871C17.8157 15.1584 17.8397 15.2914 17.7893 15.3909C17.7053 15.5562 17.4173 15.6377 17.3189 15.6449H15.5189C15.3941 15.6449 15.1325 15.6125 14.8157 15.3944C14.5721 15.2243 14.3321 14.9451 14.0981 14.6731C13.7489 14.2681 13.4465 13.9183 13.1417 13.9183C13.103 13.9182 13.0645 13.9243 13.0277 13.9362C12.7973 14.0105 12.5021 14.3388 12.5021 15.2135C12.5021 15.4867 12.2861 15.6437 12.1337 15.6437H11.3093C11.0285 15.6437 9.56567 15.5454 8.26967 14.1807C6.68327 12.5092 5.25527 9.15657 5.24327 9.12542C5.15327 8.90854 5.33927 8.79232 5.54207 8.79232H7.36007C7.60247 8.79232 7.68167 8.93969 7.73687 9.0703C7.80167 9.22247 8.03927 9.82756 8.42927 10.5082C9.06167 11.6177 9.44927 12.0682 9.76007 12.0682C9.81835 12.0675 9.87559 12.0527 9.92687 12.0251C10.3325 11.7998 10.2569 10.356 10.2389 10.0564C10.2389 10.0001 10.2377 9.41059 10.0301 9.12781C9.96043 9.03192 9.86792 8.96384 9.77345 8.91561C9.64268 8.84883 9.58195 8.67947 9.71327 8.61378C9.99167 8.47479 10.4933 8.45442 10.9913 8.45442H11.2685C11.8085 8.46161 11.9477 8.49636 12.1433 8.54549C12.5393 8.64014 12.5477 8.89536 12.5129 9.76886C12.5021 10.0169 12.4913 10.2973 12.4913 10.628C12.4913 10.6999 12.4877 10.7765 12.4877 10.858C12.4757 11.3026 12.4613 11.807 12.7757 12.0143C12.8167 12.04 12.8641 12.0537 12.9125 12.0538C13.0217 12.0538 13.3505 12.0538 14.2409 10.5285C14.4807 10.0997 14.6931 9.65621 14.8768 9.20072C14.93 9.06893 14.966 8.91054 15.0881 8.83785C15.1341 8.81441 15.1852 8.80248 15.2369 8.8031H17.3741C17.6069 8.8031 17.7665 8.83785 17.7965 8.92771C17.8493 9.0703 17.7869 9.50524 16.8113 10.8245L16.3757 11.3984C15.5636 12.4613 15.4972 12.5977 16.2193 13.2929Z" fill="#9EB4FF"/>
  </g>
  <defs>
  <clipPath id="clip0_4181_25700">
  <rect width="24" height="24" rx="12" fill="white"/>
  </clipPath>
  </defs>
</svg>
