<svg width="24" height="24" viewBox="0 0 24 24" fill="none" xmlns="http://www.w3.org/2000/svg">
<path fill-rule="evenodd" clip-rule="evenodd" d="M8 3C8 3.26522 8.10536 3.51957 8.29289 3.70711C8.48043 3.89464 8.73478 4 9 4H14.795C15.909 4 16.314 4.116 16.721 4.334C17.128 4.552 17.448 4.872 17.666 5.279C17.884 5.686 18 6.09 18 7.205V17C18 17.2652 18.1054 17.5196 18.2929 17.7071C18.4804 17.8946 18.7348 18 19 18C19.2652 18 19.5196 17.8946 19.7071 17.7071C19.8946 17.5196 20 17.2652 20 17V7.128C20 5.345 19.814 4.698 19.466 4.046C19.125 3.40181 18.5982 2.87501 17.954 2.534C17.302 2.186 16.655 2 14.872 2H9C8.73478 2 8.48043 2.10536 8.29289 2.29289C8.10536 2.48043 8 2.73478 8 3ZM12.795 6H7.205C6.09 6 5.686 6.116 5.279 6.334C4.87638 6.54714 4.54714 6.87638 4.334 7.279C4.116 7.686 4 8.09 4 9.205V20.92C4.00008 21.1083 4.0533 21.2927 4.15353 21.452C4.25377 21.6114 4.39695 21.7392 4.5666 21.8208C4.73626 21.9024 4.9255 21.9344 5.11256 21.9132C5.29961 21.892 5.47689 21.8185 5.624 21.701L10 18.204L14.376 21.701C14.523 21.8184 14.7002 21.892 14.8872 21.9132C15.0742 21.9344 15.2633 21.9025 15.4329 21.821C15.6026 21.7395 15.7458 21.6119 15.8461 21.4526C15.9464 21.2934 15.9997 21.1092 16 20.921V9.204C16 8.089 15.884 7.685 15.666 7.278C15.4529 6.87538 15.1236 6.54614 14.721 6.333C14.314 6.116 13.91 6 12.795 6Z" fill="#FF482F"/>
<path fill-rule="evenodd" clip-rule="evenodd" d="M8 3C8 3.26522 8.10536 3.51957 8.29289 3.70711C8.48043 3.89464 8.73478 4 9 4H14.795C15.909 4 16.314 4.116 16.721 4.334C17.128 4.552 17.448 4.872 17.666 5.279C17.884 5.686 18 6.09 18 7.205V17C18 17.2652 18.1054 17.5196 18.2929 17.7071C18.4804 17.8946 18.7348 18 19 18C19.2652 18 19.5196 17.8946 19.7071 17.7071C19.8946 17.5196 20 17.2652 20 17V7.128C20 5.345 19.814 4.698 19.466 4.046C19.125 3.40181 18.5982 2.87501 17.954 2.534C17.302 2.186 16.655 2 14.872 2H9C8.73478 2 8.48043 2.10536 8.29289 2.29289C8.10536 2.48043 8 2.73478 8 3ZM12.795 6H7.205C6.09 6 5.686 6.116 5.279 6.334C4.87638 6.54714 4.54714 6.87638 4.334 7.279C4.116 7.686 4 8.09 4 9.205V20.92C4.00008 21.1083 4.0533 21.2927 4.15353 21.452C4.25377 21.6114 4.39695 21.7392 4.5666 21.8208C4.73626 21.9024 4.9255 21.9344 5.11256 21.9132C5.29961 21.892 5.47689 21.8185 5.624 21.701L10 18.204L14.376 21.701C14.523 21.8184 14.7002 21.892 14.8872 21.9132C15.0742 21.9344 15.2633 21.9025 15.4329 21.821C15.6026 21.7395 15.7458 21.6119 15.8461 21.4526C15.9464 21.2934 15.9997 21.1092 16 20.921V9.204C16 8.089 15.884 7.685 15.666 7.278C15.4529 6.87538 15.1236 6.54614 14.721 6.333C14.314 6.116 13.91 6 12.795 6Z" fill="#C0C0C0" fill-opacity="0.2"/>
</svg>
