<svg width="24" height="24" viewBox="0 0 24 24" fill="none" xmlns="http://www.w3.org/2000/svg">
<path fill-rule="evenodd" clip-rule="evenodd" d="M13.8017 5.78397C13.2294 4.23801 12.1946 2.83399 11.0471 1.32736C10.5833 0.718452 9.58072 1.05685 9.57791 1.82059C9.56824 4.44986 8.27492 6.08081 6.80421 7.79397C5.36824 9.46667 3.65723 11.3057 3.65723 14.1708C3.65723 18.7785 7.39245 22.5137 12 22.5137C16.6077 22.5137 20.3429 18.7785 20.3429 14.1708C20.3429 11.2606 19.0026 8.61107 17.4096 7.13481C16.9192 6.68035 16.0877 6.99934 16.0377 7.67228C15.9564 8.76635 15.4554 10.4792 14.0646 10.3524C14.4462 8.62697 14.3131 7.16539 13.8017 5.78397ZM16.0369 16.4747C16.0369 18.5837 14.2296 20.2934 12.0001 20.2934C9.77061 20.2934 7.96325 18.5837 7.96325 16.4747C7.96325 15.2485 8.69382 14.4453 9.45372 13.6099C10.2771 12.7047 11.135 11.7616 11.135 10.2012C12.2939 11.7278 13.1535 12.9288 12.5768 14.8382C14.4556 15.4827 14.5952 13.2016 14.5952 13.2016C15.3087 13.8903 16.0369 15.1109 16.0369 16.4747Z" fill="#6C8DFF"/>
</svg>
