<svg width="17" height="17" viewBox="0 0 17 17" fill="none" xmlns="http://www.w3.org/2000/svg">
<g clip-path="url(#clip0_837_18677)">
<path d="M16.4679 15.104L13.6937 7.34734C13.4988 6.83704 13.0627 6.52158 12.5617 6.52158C12.0607 6.52158 11.6339 6.83704 11.4205 7.3659L8.65558 15.104C8.52568 15.4658 8.71125 15.8648 9.0731 15.9947C9.43495 16.1246 9.83391 15.939 9.96381 15.5771L10.5391 13.972H14.5751L15.1503 15.5771C15.2524 15.8648 15.5215 16.0411 15.8091 16.0411C15.8833 16.0411 15.9668 16.0318 16.0411 16.0039C16.4029 15.8741 16.5885 15.4751 16.4586 15.1132L16.4679 15.104ZM11.0494 12.571L12.571 8.31228L14.0926 12.571H11.0494ZM8.68341 4.41542C6.58652 7.72775 4.69377 9.73185 2.39276 11.0679C2.28142 11.1329 2.16081 11.1607 2.04947 11.1607C1.80823 11.1607 1.57628 11.0401 1.44638 10.8174C1.25154 10.4834 1.36288 10.0566 1.69689 9.87103C3.64532 8.73908 5.24118 7.11539 7.03188 4.4247H1.19587C0.81546 4.4247 0.5 4.10924 0.5 3.72883C0.5 3.34842 0.81546 3.03296 1.19587 3.03296H4.67521V1.19587C4.67521 0.81546 4.99067 0.5 5.37108 0.5C5.75148 0.5 6.06695 0.81546 6.06695 1.19587V3.03296H9.54629C9.9267 3.03296 10.2422 3.34842 10.2422 3.72883C10.2422 4.10924 9.9267 4.4247 9.54629 4.4247H8.67413L8.68341 4.41542ZM8.72052 11.1607C8.59991 11.1607 8.47929 11.1329 8.36795 11.0679C7.76487 10.7153 7.18034 10.3257 6.63291 9.91742C6.32673 9.68546 6.26179 9.24938 6.49375 8.9432C6.7257 8.63702 7.16178 8.57207 7.46796 8.80403C7.96899 9.18444 8.5164 9.53701 9.0731 9.86175C9.40711 10.0566 9.51845 10.4834 9.32361 10.8174C9.19372 11.0401 8.96176 11.1607 8.72052 11.1607Z" fill="#202020"/>
</g>
<defs>
<clipPath id="clip0_837_18677">
<rect width="16" height="16" fill="white" transform="translate(0.5 0.5)"/>
</clipPath>
</defs>
</svg>
