<svg width="24" height="24" viewBox="0 0 24 24" fill="none" xmlns="http://www.w3.org/2000/svg">
<path d="M2.62012 12.002C2.62012 13.0375 3.45958 13.877 4.49512 13.877C5.53065 13.877 6.37012 13.0375 6.37012 12.002C6.37012 10.9664 5.53065 10.127 4.49512 10.127C3.45958 10.127 2.62012 10.9664 2.62012 12.002Z" fill="#202020"/>
<path d="M11.9971 13.877C10.9616 13.877 10.1221 13.0376 10.1221 12.002C10.1221 10.9665 10.9616 10.127 11.9971 10.127C13.0326 10.127 13.8721 10.9665 13.8721 12.002C13.8721 13.0376 13.0326 13.877 11.9971 13.877Z" fill="#202020"/>
<path d="M19.5 13.877C18.4644 13.877 17.625 13.0375 17.625 12.002C17.625 10.9665 18.4644 10.127 19.5 10.127C20.5355 10.127 21.375 10.9665 21.375 12.002C21.375 13.0375 20.5355 13.877 19.5 13.877Z" fill="#202020"/>
</svg>
