<svg width="34" height="34" viewBox="0 0 34 34" fill="none" xmlns="http://www.w3.org/2000/svg">
<rect x="0.5" y="0.5" width="33" height="33" rx="16.5" stroke="#58638B"/>
<path d="M20.5 13C20.5 14.933 18.933 16.5 17 16.5C15.067 16.5 13.5 14.933 13.5 13C13.5 11.067 15.067 9.5 17 9.5C18.933 9.5 20.5 11.067 20.5 13Z" fill="#58638B"/>
<path d="M23.1735 24.1889H10.8306C10.1098 24.1889 9.72784 23.3187 10.2251 22.7515C11.7024 21.0662 14.4123 18.5 17.2166 18.5C20.0484 18.5 22.5164 21.1171 23.8116 22.801C24.2549 23.3774 23.8647 24.1889 23.1735 24.1889Z" fill="#58638B"/>
</svg>
