<svg xmlns="http://www.w3.org/2000/svg" width="24" height="24" viewBox="0 0 24 24" fill="none">
  <path fill-rule="evenodd" clip-rule="evenodd" d="M5.64645 5.64645C5.84171 5.45118 6.15829 5.45118 6.35355 5.64645L12.3536 11.6464C12.5488 11.8417 12.5488 12.1583 12.3536 12.3536L6.35355 18.3536C6.15829 18.5488 5.84171 18.5488 5.64645 18.3536C5.45118 18.1583 5.45118 17.8417 5.64645 17.6464L11.2929 12L5.64645 6.35355C5.45119 6.15829 5.45119 5.84171 5.64645 5.64645ZM11.6464 5.64645C11.8417 5.45118 12.1583 5.45118 12.3536 5.64645L18.3536 11.6464C18.4473 11.7402 18.5 11.8674 18.5 12C18.5 12.1326 18.4473 12.2598 18.3536 12.3536L12.3536 18.3536C12.1583 18.5488 11.8417 18.5488 11.6464 18.3536C11.4512 18.1583 11.4512 17.8417 11.6464 17.6464L17.2929 12L11.6464 6.35355C11.4512 6.15829 11.4512 5.84171 11.6464 5.64645Z" fill="#272932"/>
</svg>
