<svg xmlns="http://www.w3.org/2000/svg" width="24" height="24" viewBox="0 0 24 24" fill="none">
  <path fill-rule="evenodd" clip-rule="evenodd" d="M20 5.5C20.2761 5.5 20.5 5.72386 20.5 6V12C20.5 13.3807 19.3807 14.5 18 14.5H5.13462L8.94044 18.6626C9.12678 18.8664 9.11261 19.1827 8.90881 19.369C8.70501 19.5553 8.38875 19.5412 8.20241 19.3374L3.63099 14.3374C3.45634 14.1464 3.45634 13.8536 3.63099 13.6626L8.20241 8.66262C8.38875 8.45881 8.70501 8.44465 8.90881 8.63099C9.11261 8.81732 9.12678 9.13358 8.94044 9.33738L5.13462 13.5H18C18.8284 13.5 19.5 12.8284 19.5 12V6C19.5 5.72386 19.7239 5.5 20 5.5Z" fill="#272932"/>
</svg>
