<svg xmlns="http://www.w3.org/2000/svg" width="24" height="24" viewBox="0 0 24 24" fill="none">
  <path fill-rule="evenodd" clip-rule="evenodd" d="M8.68146 19.3847C8.46901 19.2083 8.50069 18.6871 8.50069 18.6871L8.50083 5.33152C8.50083 5.33152 8.46264 4.8088 8.66935 4.62571C8.87607 4.44262 9.19207 4.46177 9.37517 4.66849L15.3752 11.4427C15.5388 11.6274 15.5432 11.9038 15.3855 12.0936L9.38555 19.3194C9.20914 19.5319 8.89391 19.5611 8.68146 19.3847Z" fill="#272932"/>
  <path fill-rule="evenodd" clip-rule="evenodd" d="M8.68146 19.3847C8.46901 19.2083 8.50069 18.6871 8.50069 18.6871L8.50083 5.33152C8.50083 5.33152 8.46264 4.8088 8.66935 4.62571C8.87607 4.44262 9.19207 4.46177 9.37517 4.66849L15.3752 11.4427C15.5388 11.6274 15.5432 11.9038 15.3855 12.0936L9.38555 19.3194C9.20914 19.5319 8.89391 19.5611 8.68146 19.3847Z" fill="#272932"/>
</svg>
