<svg xmlns="http://www.w3.org/2000/svg" width="24" height="24" viewBox="0 0 24 24" fill="none">
  <path fill-rule="evenodd" clip-rule="evenodd" d="M11.5 4.20708C11.5 3.31618 12.5771 2.87001 13.2071 3.49998L21 11.2929C21.3905 11.6834 21.3905 12.3166 21 12.7071L13.2071 20.5C12.5771 21.1299 11.5 20.6838 11.5 19.7929V16.3571H3C2.72386 16.3571 2.5 16.1333 2.5 15.8571C2.5 15.581 2.72386 15.3571 3 15.3571H11.5C12.0523 15.3571 12.5 15.8048 12.5 16.3571L12.5 19.7929L20.2929 12L12.5 4.20708V7.64283C12.5 8.19512 12.0523 8.64283 11.5 8.64283H3C2.72386 8.64283 2.5 8.41898 2.5 8.14283C2.5 7.86669 2.72386 7.64283 3 7.64283H11.5V4.20708Z" fill="#272932"/>
</svg>
