<svg xmlns="http://www.w3.org/2000/svg" width="24" height="24" viewBox="0 0 24 24" fill="none">
  <path fill-rule="evenodd" clip-rule="evenodd" d="M13.4538 6.97524C12.9768 5.68694 12.1145 4.51694 11.1583 3.26141C10.7718 2.75398 9.93624 3.03599 9.9339 3.67244C9.92584 5.86349 8.84808 7.22262 7.62248 8.65025C6.42584 10.0442 5 11.5767 5 13.9642C5 17.804 8.11268 20.9167 11.9523 20.9167C15.7921 20.9167 18.9047 17.804 18.9047 13.9642C18.9047 11.5391 17.7878 9.33117 16.4603 8.10095C16.0517 7.72224 15.3588 7.98805 15.3171 8.54884C15.2493 9.46056 14.8318 10.8879 13.6728 10.7822C13.9908 9.34441 13.8799 8.12643 13.4538 6.97524ZM15.3164 15.8842C15.3164 17.6417 13.8103 19.0664 11.9524 19.0664C10.0945 19.0664 8.58835 17.6417 8.58835 15.8842C8.58835 14.8623 9.19716 14.193 9.83041 13.4968C10.5166 12.7425 11.2315 11.9566 11.2315 10.6562C12.1973 11.9284 12.9136 12.9292 12.433 14.5204C13.9987 15.0575 14.115 13.1566 14.115 13.1566C14.7096 13.7305 15.3164 14.7477 15.3164 15.8842Z" fill="#6C8DFF"/>
</svg>
