<svg xmlns="http://www.w3.org/2000/svg" width="24" height="24" viewBox="0 0 24 24" fill="none">
  <path fill-rule="evenodd" clip-rule="evenodd" d="M18.8014 6.35424C17.1731 4.3086 14.6789 3 11.8831 3C6.97711 3 3 7.02944 3 12C3 16.9706 6.97711 21 11.8831 21C16.7891 21 20.7662 16.9706 20.7662 12C20.7662 10.3809 20.3443 8.86172 19.6057 7.5491L20.7946 6.34452C21.0685 6.06705 21.0685 5.61717 20.7946 5.33969C20.5207 5.06221 20.0767 5.06221 19.8028 5.33969L18.8014 6.35424ZM11.8831 19.5789C16.0145 19.5789 19.3636 16.1857 19.3636 12C19.3636 10.7769 19.0777 9.62148 18.5698 8.5986L12.379 14.8708C12.1051 15.1483 11.6611 15.1483 11.3872 14.8708L7.17943 10.6077C6.90556 10.3302 6.90556 9.88032 7.17943 9.60285C7.45331 9.32537 7.89734 9.32537 8.17122 9.60285L11.8831 13.3636L17.8029 7.36595C16.4347 5.57449 14.2918 4.42105 11.8831 4.42105C7.75174 4.42105 4.4026 7.81426 4.4026 12C4.4026 16.1857 7.75174 19.5789 11.8831 19.5789Z" fill="#2FBC48"/>
</svg>
