<svg xmlns="http://www.w3.org/2000/svg" width="24" height="24" viewBox="0 0 24 24" fill="none">
  <path d="M13.3837 5.30769C9.55794 5.30769 6.41986 8.21514 6.11701 11.912C6.08752 12.2719 5.76784 12.5401 5.40298 12.511C5.03812 12.482 4.76625 12.1665 4.79573 11.8067C5.15377 7.43617 8.86164 4 13.3837 4C18.1424 4 22 7.80558 22 12.5C22 16.9415 18.5472 20.5869 14.1447 20.9673C13.78 20.9988 13.4585 20.7327 13.4266 20.373C13.3946 20.0132 13.6644 19.6961 14.029 19.6646C17.7529 19.3428 20.6744 16.2576 20.6744 12.5C20.6744 8.5278 17.4102 5.30769 13.3837 5.30769Z" fill="#6C8DFF"/>
  <path d="M13.1628 7.75962C13.5288 7.75962 13.8256 8.05236 13.8256 8.41346V11.8552C13.8256 12.1029 13.9674 12.3293 14.192 12.4401L17.1045 13.8767C17.432 14.0382 17.5647 14.4309 17.4009 14.7539C17.2373 15.0769 16.8392 15.2079 16.5117 15.0463L13.5992 13.6097C12.9255 13.2775 12.5 12.5983 12.5 11.8552V8.41346C12.5 8.05236 12.7968 7.75962 13.1628 7.75962Z" fill="#6C8DFF"/>
  <path d="M4.98837 19.6923C4.62233 19.6923 4.32558 19.9851 4.32558 20.3462C4.32558 20.7073 4.62233 21 4.98837 21H10.7326C11.0986 21 11.3953 20.7073 11.3953 20.3462C11.3953 19.9851 11.0986 19.6923 10.7326 19.6923H4.98837Z" fill="#6C8DFF"/>
  <path d="M3 17.7308C3 17.3697 3.29674 17.0769 3.66279 17.0769H8.52325C8.8893 17.0769 9.18605 17.3697 9.18605 17.7308C9.18605 18.0919 8.8893 18.3846 8.52325 18.3846H3.66279C3.29674 18.3846 3 18.0919 3 17.7308Z" fill="#6C8DFF"/>
  <path d="M4.54651 14.4615C4.18047 14.4615 3.88372 14.7543 3.88372 15.1154C3.88372 15.4765 4.18047 15.7692 4.54651 15.7692H6.75581C7.12186 15.7692 7.4186 15.4765 7.4186 15.1154C7.4186 14.7543 7.12186 14.4615 6.75581 14.4615H4.54651Z" fill="#6C8DFF"/>
</svg>
