<svg xmlns="http://www.w3.org/2000/svg" width="24" height="24" viewBox="0 0 24 24" fill="none">
  <path fill-rule="evenodd" clip-rule="evenodd" d="M16.1968 9.42908C16.1968 9.0177 15.8784 8.68421 15.4854 8.68421H8.44825C8.05535 8.68421 7.73684 9.0177 7.73684 9.42908V10.637C7.73684 11.49 8.25924 12.2153 8.98736 12.4813C9.14347 12.5383 9.30904 12.5742 9.48095 12.5857C9.50289 12.6408 9.52645 12.6951 9.55158 12.7484C9.92278 13.5358 10.6349 14.1156 11.4862 14.2762V15.7303H10.2364C9.97091 15.7303 9.75571 15.9556 9.75571 16.2336C9.75571 16.5115 9.97091 16.7368 10.2364 16.7368H13.6973C13.9628 16.7368 14.178 16.5115 14.178 16.2336C14.178 15.9556 13.9628 15.7303 13.6973 15.7303H12.4475V14.2762C13.2988 14.1156 14.0109 13.5358 14.3821 12.7484C14.4072 12.6951 14.4308 12.6408 14.4527 12.5857C14.6246 12.5742 14.7902 12.5383 14.9463 12.4813C15.6744 12.2153 16.1968 11.49 16.1968 10.637V9.42908ZM14.6587 9.57H15.3508V10.637C15.3508 10.9933 15.184 11.3088 14.9277 11.5026C14.8452 11.565 14.7535 11.6147 14.6551 11.6491C14.6563 11.6248 14.6572 11.6004 14.6578 11.5759C14.6584 11.5515 14.6587 11.5271 14.6587 11.5026V9.57ZM13.7113 9.63158H10.2224V11.5026C10.2224 11.5363 10.2232 11.5698 10.2248 11.6029L10.241 11.9334L10.3612 12.2355C10.5952 12.8237 11.0923 13.2378 11.6618 13.3453L11.9668 13.4029L12.2718 13.3453C12.8414 13.2378 13.3384 12.8237 13.5725 12.2355L13.6926 11.9336L13.7089 11.6026C13.7105 11.5698 13.7113 11.5364 13.7113 11.5026V9.63158ZM8.58284 9.57H9.27502V11.5026C9.27502 11.5271 9.27532 11.5515 9.27591 11.5759C9.27651 11.6004 9.27741 11.6248 9.2786 11.6491C9.18019 11.6147 9.08847 11.565 9.00602 11.5026C8.74967 11.3088 8.58284 10.9933 8.58284 10.637V9.57Z" fill="#2FBC48"/>
  <path fill-rule="evenodd" clip-rule="evenodd" d="M21 12C21 16.9706 16.9706 21 12 21C7.02944 21 3 16.9706 3 12C3 7.02944 7.02944 3 12 3C16.9706 3 21 7.02944 21 12ZM19.5789 12C19.5789 16.1857 16.1857 19.5789 12 19.5789C7.81426 19.5789 4.42105 16.1857 4.42105 12C4.42105 7.81426 7.81426 4.42105 12 4.42105C16.1857 4.42105 19.5789 7.81426 19.5789 12Z" fill="#2FBC48"/>
</svg>
